<mxfile host="app.diagrams.net" modified="2024-04-18T19:57:09.069Z" agent="Mozilla/5.0 (Windows NT 10.0; Win64; x64) AppleWebKit/537.36 (KHTML, like Gecko) Chrome/123.0.0.0 Safari/537.36" etag="lGxVd68lx9ME8uISVDzr" version="24.2.5" type="device">
  <diagram name="Page-1" id="u0L17v48KZmP9dGs3uG4">
    <mxGraphModel dx="1167" dy="589" grid="1" gridSize="10" guides="1" tooltips="1" connect="1" arrows="1" fold="1" page="1" pageScale="1" pageWidth="827" pageHeight="1169" math="0" shadow="0">
      <root>
        <mxCell id="0" />
        <mxCell id="1" parent="0" />
        <mxCell id="aMjAXd4H22HxAeJlpXIM-34" value="" style="edgeStyle=orthogonalEdgeStyle;rounded=0;orthogonalLoop=1;jettySize=auto;html=1;" edge="1" parent="1" source="aMjAXd4H22HxAeJlpXIM-19" target="aMjAXd4H22HxAeJlpXIM-4">
          <mxGeometry relative="1" as="geometry">
            <Array as="points">
              <mxPoint x="590" y="320" />
              <mxPoint x="590" y="320" />
            </Array>
          </mxGeometry>
        </mxCell>
        <mxCell id="aMjAXd4H22HxAeJlpXIM-19" value="" style="shape=ext;double=1;rounded=1;whiteSpace=wrap;html=1;" vertex="1" parent="1">
          <mxGeometry x="420" y="200" width="160" height="200" as="geometry" />
        </mxCell>
        <mxCell id="aMjAXd4H22HxAeJlpXIM-14" style="edgeStyle=orthogonalEdgeStyle;rounded=0;orthogonalLoop=1;jettySize=auto;html=1;" edge="1" parent="1" source="aMjAXd4H22HxAeJlpXIM-1" target="aMjAXd4H22HxAeJlpXIM-13">
          <mxGeometry relative="1" as="geometry">
            <Array as="points">
              <mxPoint x="160" y="241" />
              <mxPoint x="160" y="241" />
            </Array>
          </mxGeometry>
        </mxCell>
        <mxCell id="aMjAXd4H22HxAeJlpXIM-1" value="" style="dashed=0;outlineConnect=0;html=1;align=center;labelPosition=center;verticalLabelPosition=bottom;verticalAlign=top;shape=mxgraph.webicons.github;gradientColor=#DFDEDE" vertex="1" parent="1">
          <mxGeometry x="20" y="200" width="80" height="82.4" as="geometry" />
        </mxCell>
        <mxCell id="aMjAXd4H22HxAeJlpXIM-30" value="" style="edgeStyle=orthogonalEdgeStyle;rounded=0;orthogonalLoop=1;jettySize=auto;html=1;" edge="1" parent="1" source="aMjAXd4H22HxAeJlpXIM-3" target="aMjAXd4H22HxAeJlpXIM-6">
          <mxGeometry relative="1" as="geometry" />
        </mxCell>
        <mxCell id="aMjAXd4H22HxAeJlpXIM-3" value="" style="outlineConnect=0;dashed=0;verticalLabelPosition=bottom;verticalAlign=top;align=center;html=1;shape=mxgraph.aws3.cloudwatch;fillColor=#759C3E;gradientColor=none;" vertex="1" parent="1">
          <mxGeometry x="374.00000000000006" y="49.999999999999986" width="80" height="83" as="geometry" />
        </mxCell>
        <mxCell id="aMjAXd4H22HxAeJlpXIM-36" value="" style="edgeStyle=orthogonalEdgeStyle;rounded=0;orthogonalLoop=1;jettySize=auto;html=1;" edge="1" parent="1" source="aMjAXd4H22HxAeJlpXIM-4" target="aMjAXd4H22HxAeJlpXIM-35">
          <mxGeometry relative="1" as="geometry" />
        </mxCell>
        <mxCell id="aMjAXd4H22HxAeJlpXIM-4" value="Amazon Lex" style="sketch=0;outlineConnect=0;fontColor=#232F3E;gradientColor=none;strokeColor=#ffffff;fillColor=#232F3E;dashed=0;verticalLabelPosition=middle;verticalAlign=bottom;align=center;html=1;whiteSpace=wrap;fontSize=10;fontStyle=1;spacing=3;shape=mxgraph.aws4.productIcon;prIcon=mxgraph.aws4.lex;" vertex="1" parent="1">
          <mxGeometry x="620" y="270" width="80" height="100" as="geometry" />
        </mxCell>
        <mxCell id="aMjAXd4H22HxAeJlpXIM-40" style="edgeStyle=orthogonalEdgeStyle;rounded=0;orthogonalLoop=1;jettySize=auto;html=1;" edge="1" parent="1" source="aMjAXd4H22HxAeJlpXIM-5">
          <mxGeometry relative="1" as="geometry">
            <mxPoint x="420" y="320" as="targetPoint" />
            <Array as="points">
              <mxPoint x="380" y="320" />
              <mxPoint x="380" y="320" />
            </Array>
          </mxGeometry>
        </mxCell>
        <mxCell id="aMjAXd4H22HxAeJlpXIM-5" value="" style="shape=image;imageAspect=0;aspect=fixed;verticalLabelPosition=bottom;verticalAlign=top;image=data:image/png,iVBORw0KGgoAAAANSUhEUgAAAhcAAAGSCAYAAABQTOO+AAAAAXNSR0IArs4c6QAAAARnQU1BAACxjwv8YQUAAAAJcEhZcwAAEnQAABJ0Ad5mH3gAAP+lSURBVHhe7J0HYFNVF8f/GW26B4WWWfbee8oeypCNiGxUhp8IqMgQkSEgDhBkKqAoCDIEGbKVLUv2LLPsQindTZvx3fPyQl7SlzRt01LK/fnly7uvaUnT5N3/Pfec/1EUL13eCA6Hw+FwOBwXoRTvORwOh8PhcFyCQqtN5pELDofD4XA4LoNHLjgcDofD4bgULi44HA6Hw+G4FC4uOBwOh8PhuBQuLjgcDofD4bgULi44HA6Hw+G4FC4uOBwOh8PhuBQuLjgcDofD4bgULi44HA6Hw+G4FC4uOBwOh8PhuBQuLjgcDofD4bgULi44HA6Hw+G4FC4uOBwOh8PhuBQuLjgcDofD4bgULi44HA6Hw+G4FC4uOBwOh8PhuBQuLjgcDofD4bgULi44HA6Hw+G4FC4uOBwOh8PhuBQuLjgcDofD4bgULi44HA6Hw+G4FC4uOBwOh8PhuBQuLjgcDofD4bgULi44HA6Hw+G4FC4uOBwOh8PhuBQuLjgcDofD4bgULi44HA6Hw+G4FC4uOBwOh8PhuBQuLjgcDofD4bgULi44HA6Hw+G4FC4uOBwOh8PhuBQuLjgcDofD4bgULi44HA6Hw+G4FC4uOBwOh8PhuBQuLjgcDofD4bgULi44HA6Hw+G4FC4uOBwOh8PhuBQuLjgcDofD4bgULi44HA6Hw+G4FC4uOBwOh8PhuBSFVptsFI85nBeGe/fu4fbt27h79y7u3LmNJ0+iEB8fj6SkRCQkJCAxMZHdkoR7pVIJLy9PeHt7CzcvL2/4+vrC398P+fIFIzg4H/Lmzcfug1GoUCHxX+BwOBxORuHigpOjefToEQ4cOIB///0Xx44dxa1bt5iYuCN+NWsILVIYFcqXQ5WqVVGufCVUrFgR1apVE7/K4XA4nLTg4oKTo7h58yb27NmDQ4cO4siRI7hy5Yr4ledPjerVUKduPdSpU5fd6qB06dLiVzgcDocjhYsLznNn795/sG3bdnb7CxcuXBDP5nzy5AlE48ZN8PrrHdGhQwf4+fmJX+FwOJyXGy4uONkO5UZs3LgRf/65Ebt370ZMTIz4lRebNm1eRadOnYRbnjx5xLMcDofz8sHFBSdbSE5OxrZt2/D776uxZcsWIekyt6JWq9GlSxeMGDESNWvWFM9yOBzOywMXF5ws5caNG1i4cCF++WU5IiMjxbMvD/Xq1cP77w9H586doVKpxLMcDoeTu+HigpMl/Pnnn1i8eDF27twhnsleShQtjMIFQ+Dn6wNfH292743AAH+kpOgQFx+P2LgExLL7OHYf8SgS9x4+QtTTrNueKVy4MD75ZAzeffdd8QyHw+HkXri44LiMp0+fYunSJViwYAHCw8PFs1kLCYhX6tVE/dpVUbNqBRQukB/B+TKe73Dz9l3cf/AYJ89dxKmzl/Df6Qs4f/ma+NXMU6xYMXz66QT06dNHPMPhcDi5Dy4uOJmGyke/+momfvzxR/FM1kLi4YN3e6Nr+1YoWqSgeDbrSEzS4sTp89h/+D/8c/Ao9h0+IX4l45QvXx6TJ0/B66+/Lp7hcDic3AMXF5wMQy6Z06Z9gR9++EE8k7UUCy2ED4f1w9u9u4pnng9J2mQcPHISew4cwR+bd+FG+F3xK+mHKky+//57hIaGimc4HA7nxYeLC066iY6OxpQpUzB37hzxTNZSICQfPvtoCPq/2Uk8k7M4ezEMm7b9g/Wbd2ZoC8XDwwOff/45Ro4cJZ7hcDicFxsuLjjpgpI0P/tsAqKiosQzWUeeQH+MG/ku3hvYUzyT87l+6w5+37ANazbuwIUr6RMaZDP+008/o0qVKuIZDofDeTHh4oLjFPv378f77/8PFy9eFM84T5EiRfD48SOhkZgzeHl6YNTQfhg5tK9w/KJy9UY4fl61ET/+uh5Po52vRFm4cBEGDBggjjgcDufFg4sLjkPCwsIwZcpkrF69WjzjHCVLlECrli3RpPErqF27thDp6NWnD/t5V8VHyEP5FBM/Hoq8QYHimRcfKnudv/Q3fL/kNzyOdC7iQ9UkP/64RBxxOBzOiwUXFxxZLl++jC++mJouUUG9NTq0b48unTuhqkxov2XrNrh565Y4sqZdq8aYPmEESpcoKp7JQRiN7H8G0z37T8H+g4L9v0Ip3DsLJYL++MtazPx+GR49fiKetU/jxo3xxx8b4OPjI57hcDicFwMuLjhWULImJRfOnz9PPJM2zZs1xRs9eqBF8+biGWvi4uIweepUrGcTpS3FQwth/lcT0LRhbfFM9kGCwWjQP7ux/7OICLo30Jg+Hml8REhoCIJDyQ7Fe6Uq1c1MQmISFv+8Bl/OXZrmdgm1ev/rr228VwmHw3mh4OKC8wwSFNOmTcejRxHiGftoNBp069oVbw8cIORUyHHv3n0sWLRQEBVarVY8a2HEkD747KOh8PTQiGeyBqNBZxIQehIR4jHdSEBkI4LIUKmhUntAqXZHdFw8vpyzBLMWLBcfIQ95YpDAKFCggHiGw+FwcjZcXHCE3h/Tpk3Dw4cPxDP2CfD3R79+fdG3Tx/4O2gxHhERgU5duwn3tpQtVQxLvpuMmlUrimdch1Gvg0GfAoMu+ZmQyKko3TRMZGhw8NhZ9H1vPB4+st97pWDBgoLAKFeunHiGw+Fwci5cXLzEnD9/HkOGDMbRo0fFM/YhIfG/94ZhQP/+4hl5IiIe4dTp0/h80mREyERAPh01GONHua6/BgkJs6AwkqDI5miEq4iO12LwJzOxbc8h8UxqAgICsGnTZtSpU0c8w+FwODkTLi5eUsaPH4+vv/5KHDmmX98+GP7++w4jFefOX0DYlas4dPgwtu/cnqqlOtl0/zJ/OmpXrySeyTgUkdCnaGFgNzrOTcxcuArT5vwsjlLj6ekpJNmSsyeHw+HkVLi4eMk4cuSIsK1BrdDTon27dvhw5Ai7ORXElSthOH3mLG7fvoODhw/i9OnT4lcsdO/YBt/PGC90Js0MJCb0uiThPjez68BxDProS0THxIlnUrNlyxa0bNlKHHE4HE7OgouLl4h5877HqFFpW0xTe/CvZkwX/CnscfPmLUFU0P3jx4+xbce2VK6dvj5emP3FGPTq2k48k35om0OfnJgroxSOeBARiQEfzsDhE+fEM9ZQBGPbtu2oV6+eeIbD4XByDlxcvARQK/ShQ4dg/fr14hn79H7rLYwZ/bHQ70IOqgAhUUERC+Lu3bvYtGUTUlJShLEZKjHd+OvcjPtWGI2CqNCnJObopMys5os5y/HVwt/EkTW+vr7YuXMXqlevLp7hcDicnAEXF7kcsu3u27eP0MHUEWVKl8aUyZNQs0YN8Yw1MTGxOHbsuJBbYebmrZvYtHmTOLLQ/JW6WLl4Jvx9M2b+JIiK5ISXWlRI+evvf/H2xzMRn5AonrFA/hf79x9AqVKlxDMcDofz/OHiIhezffs2vP766+LIPmNGj8bbgwaKo9RcuHgJR44cFQSGmYcPH2LdH+ug11sLgFHD+uGLccPFUfrQpySZRIX+5dn+cJbTF67i9QFjEB0bL56xQO3aDx48iODgEPEMh8PhPF+4uMilbNv2Fzp27CiO5KGw+qL581GnjnxuBYkJEhUkLqTQFsivK38VnDel/Dh7Et7q1l4cOY+QV6GNFyIWHPtcuHIT7fqNRlS0ReSZIaOtvXv3wd/fXzzD4XA4zw8uLnIhGzZswBtv9BBH8lDS5tIff0CJ4sXFM9bIRSvM7DuwL1VVyB/L5+DV5g3FkfMYdFromLDg0QrnuHz9NjoOHCskfNrSsGFD7NnztzjicDic54dSvOfkEihpMy1hUaFCBaxf87tdYbFz527hJicsqCJEKiw8NO7Y8tv8DAkLEhUpCdFcWKSDsiWKYPeqWShZtJB4xgJtjXzwwQfiiMPhcJ4fPHKRi7h48SLq16+HxET72wsN6tfHogUL4OkpXw3yx4Y/ER5+WxylZuOfGxF+O1w49mI/Y/3P36FJg1rC2GmMRqQkRgsW3ZyMcevOA7ToOQKPn0SLZyz8+usKdO/eXRxxOBxO9sPFRS6BHDFr166Fq1evimdS06xpU/ywaKE4Ss3K337Ho0ePxFFqrt+4ji1btwjHHh4abFk5Hw3qVBPGzkIVIEK04iXyrMgqTp0Pw2t9PkZikrWpmJeXF44ePYbSpUuLZzgcDid74dsiuYSxY8c6FBbNmzdzKCyWLvvZobDQ6XTYt3+fOALmz/w0/cJCr0Ny/BMuLFxEtYql8cPM0eLIAgnNrl27OIxgcTgcTlbCxUUu4O+/92DhwgXiKDWNGjXE4gX2vz5v/iLExtq3miYOHT7EHmPKwRjwZie82aWtcOws1FiMhAVtiXBcR/uWDTB+eF9xZOHy5csYM2aMOOJwOJzshW+L5AIqVCiPa9euiSNrqlatipW/LIdGoxHPWLN48RIkJiWJI3lu3bqFPzf/KRxXKlcKx3atFo6dhSIVyXFMWHCyjB5DPsOOfcfEkYWtW7eiRYuW4ojD4XCyBx65eMFZvHixXWGRP39+/LBwgV1hsWbN+jSFxZOoJ/hr+1/CMe3lr1n2rXDsLFxYZA9Lvh6DokVSV5AMGDAwVc8XDofDyWq4uHjBmTp1qniUmh8XLxLsoeXY+td23Lt/XxzJQ8KCPDPMfUNmTfkYxWQmMHsIwiKeT2zZATWJmzcltTPqw4cPMHr0x+KIw+FwsgcuLl5glixZIkwecowaMQLlypYVR9aQh0VY2FXExMQIPUeiY1KXM168dBHr1q9DfILJbrpCudLo+0baVuJmSFikJMTwHItspFGdKujd7TVxZGH58uVCq30Oh8PJLnjOxQtMlSqVhcQ9W6iJ1bYtm8WRBepo+gMTJNRJ83HkY6ECRArZgXt6eCLiUYR4xsL2NYvRuH5NceQYsvM2mWNZd0rNFhQK9j+mmZ/dK9m9QrinahUSPbm5IRr1HinfrA8SbJqcUe4NladyOBxOdsDFxQvKf//9JxhmyfH9nDl4tU1r4ZgqPDZv2Yo/N23CsePHhXPppVXzRvhz+XfiKG1SEmNgSHGcy+EqFEo1lGo3KFVuUNBNqRK/4gCjEQZRZJAAooZpuSnCMv/nPzDuy8XiyMLixT+gX79+4ojD4XCyDi4uXlA+/vgjzGEiwpaiRYviqy9nCKvUI0ePYv+BA+JXMs5/e9agfJkS4sgxZOlNTciyEopIKN00TFTQzV08m3GMBgMMuiRBZOQWK/Iyr7yJiMin4shEuXLlcPr0GXHE4XA4WQcXFy8g06Z9gUmTJomjrGfjr3PRumkDcWQffUoidImp+5G4CoVKDZWbpyAshC2PLMCQohXavpMvx4sAvQ5CtIbdFEr2mhiMwtbPX3sO4Y2hn4mPskAJuq+9lj6PEg6Hw0kvXFy8QBw6dAgfffQhTpw4IZ7JHt7o9Cp++v4LcSTPs8qQLNheoAlUpfGCyt2TRqaTEh5FRuHcxTDExMYjJi4OsXQfGwe93iA+woSXl6fg01GqeCiKyzT+egb7HXRa9v05sAU8CSuV2kMQWoKYkHk9zLze+3/Y+c9hcWSiWrWqOHKE515wOJyshYuLF4QpU6Zg6tQp4ijzFChQADWqVxduZMIVGBCAgIBAJCcno3GzZuKjTFCDssiwg+JIHqERGVv1uxqlmwfUGm+rXIrrt+5g36HjOPLfWRw5cQYXr1wXv+I8eQL9UbZUcbRuWh9tWzZGlYplxK9YIHGhS8q6SIyzCNs/gqjQkNISz1ogUXXkvzM4euIs4hMThWTOhMQk3L0fgT37U1eJ9O7dG0uWLBVHHA6H43q4uMjhnD17FiNGfIADLsidqFypEtq0bo1XX22DYkWLimdT06Vbd5xh/66UPX8sRf3aVcWRNVk1Cas9fMVoBRAZ9RRbdu7DVnbbsmMfdHrXVnw0a1SHiYxX0L1jG4TkCxLPQujcmpJgnbuQXVDERu3pK4gLKZfCbuDYqXM4dvIcjrPbybOXxK84T40aNTBr1izUq1dfPMPhcDiug4uLHMzixYswfPhwGDOx1UCt1bt17Yq+ffqgeLFi4lnHzJ03D9/NmSuOTEwd9z4+HNZfHFkwdTmNEpIiXYmbp7+wWicW/rQa385fjtv35D09XEmRQvkxpP8b7NZDiNgQusQYU0VJNkLbHm5eAc9yS2Lj4rHmzx1Ys3E7/jnoum2N6dNnYNSoUeKIw+FwXAMXFzkQrVaL994bhl9++UU8k37IqnvY0CHo89Zb8Pb2Fs86hr0XEBkZiZ27dmHKF9Y5Fm91a48fZ6dOIqWIhatzE8zC4vip8/j8y3nYLRPaz2oqlC0pCIx3+nQTxkI312yqJKFoDUVtzHy3+FfMX7oK4XccO6pmlM6dO2PevPkICrJEbDgcDiczcHGRwyAnxaFMFJw/f148k3769+2L/zFxEhAQIJ6Rh/bmw8PDcf/+AzxmoiIy8okgbKhl95JlS8RHmaAtEdoakUIVFSkutvdWUY6Fpx/WbtqJPkOff1fPEYP7YPqEEabflbZHstgPg7ZA3Lz8heMDR07iyzlLsGuvdVJmVkAlzAsWLOBNzjgcjkvg4iIHsWTJjxg2bJg4Sj9NGjfGhE/HO8ynIMvvW+G3mai4jVu3wp/1DbFl/sL50EvyGooWKYhLhzeJIxNZYZbl5h2IHu98gi079opnnj/UYn7+VxOyJEojhbZA3H0peqDA+s278NaQT0xfyEa+/HImRowYIY44HA4nY3BxkUP46KOPMHdualMsZ/D09MSX06eh7Wup+0qYISFx5sxZ3Lh5y6kcjl9W/IKnTy2JjFRdcffsHnGUNYmOVBEyZsYSLPgpfS3ds4OuHVph+dzJWZrcSRELilz8smYT3h35uXg2+xkwYAAWLlwkjjgcDif9cHHxnHny5AkGDhyAv/4ytTVPLyEhIUL30/LlyolnrKF+IiQqLl8JE884x+o1qxERYd1jJPGOxV+DeocYdK4tPU3WG1GiXjfExSeIZxzj7u6GMsWLoEwJuhUWz1pz4uwV/Hf2MiKjYsQzGWfel5/irdcbZcnWCOWYUK7J3B9WYvSkb8Sz6SPQ3xcd2zRCuZKhyBcUgLx5AoT7fOw+Mioa9V4fIj4ybRo1aoSlS5cJ2yUcDoeTXri4eI6cPHkS/fv3w6VL6S8lJKj6Y+WKX5Evb17xjIWYmFgcO3Yc585fEM+kj/Ub1uPu3bviyNTSO+LSfuGY/CzI18LVHDx+Du362m8PXq5UUdSvURHNG9VE5XIlUKxwfvEraXPu8nVBaGz/5wi27vlXPJs+iocWwraVsxGSx0c84zrUHj7Y+vdR9Bj0oXjGeV5tWhdd2jZBj/bW/iS2NO/xAf47d0UcpU2hQoXw008/o3HjxuIZDofDcQ4uLp4TmzdvRt++fRAfn7E+HGSC9ftvK4V7Wy5cvIQjR44KAiOjrFm7Bg8k7dzJ++HmyR3CMSVxZoU99oFjZ9C+nyXPwNvLA22a1EGzBjVQj4mK0sXloxPp5Z/DJ/Hr+h1Yu+Uf8YzzDOnbBTPGvCOOXIe7dx407jhQqJBxFhIV/Xu8Jtw7wy/rtuP9CbPFkfOQwHjzzTfFEYfD4aQNFxfPgSVLlmDYsKHiKP1QFcj6Nb8jNDRUPGOCxASJChIXmcU256J0iaI4s2+94PdAvg9ZRUCF19D8FSYo6lVDuxZ1USK0oPgV13P01EVBZCxfu008kzaBAX64cci1OSFk473vxFV0eOs98YxjCgQH4aPBPTHozfbiGecJrdtNcPR8Rh72HnoSLg7swxM9ORxOesia7k8cu8yc+WWmhAXxw8KFqYQFtVb/c9MWlwgLgkpSpZhdK7O638aONQuxYcl0vD+gc5YKC6JOtfKYM/kDTB8zWDyTNlFPY4QIi0tRKPHz6o3iwDGd2ryCrcu/ypCwIN58vYV4JOJfAKjRVRzY55NPRuPTTz8VRxwOh+MYLi6ykXHjxmHChAniKGMMHTIY1atXE0cmSAhs275TMMByFYmJ1iKCSlEpgdOYxd1C61QsKlSiZCdD+3bCr3MmQKNxrn379Vv3xCPXQO6ma/80bTk5goTFT7PGoXho6q0wZ+n8WhPxSOTeOaAJE7vNPxBP2Oerr2bi/ff/J444HA7HPlxcZBNk4/3NN1+LI3vY73BJ+Pr64t233xZHJgxGI7bv2CVUhbgKal5mS4mihbPdAjs7ad+yAa4dWIVC+fOJZ+zz5KmLt4WMaVunm4VFZqlXo4JQVfIMbTwQdRuo2oEpj+mAh5/4BXkWL16MAQNS28BzOByOFC4usoHBg9/FokULxZE8Kj+q+HCc/jKgXz9BYEg5sP8gbty4KY5cg+2WCFGyaKEs6Xqak/Dx9sT5PctRvVLqDqlSQguGiEfZA1XJzBjnfBlpWrRrYdOs7IG4lVasNtBjFpC3hGlsh5UrV+LNN3uKIw6Hw0kNFxdZzMCBA/HTTz+JI3ncC5SBX4Ne4kgejUaDfv36iiMT167fwMlTp8WR64iOTl1mWrGMdY5HTibsxm0hL0J6O376EiIeO2dV/vfv3wn+EHL4+XqjTvXy4ih7+HzUAOTPl0ccZZ5X6lp3t83z5KJ4xAgqygTGt0DRmuIJedavX49u3Ux9VzgcDscWXi2ShZCwWLHiV3Ekj0fxmgjs8BHiT2xCzMGV4tnUNG3SRDDLMkPRhXXrN+DRo8fiGddx7tw5/L33b3EEuKnViDizGYo0IivPgydPY7H+r704dT4Ml6+F48yl6+y1Sb2tQ1EJMpfKHxyE4KBAhOQLxCt1qqJBrUriI6y5c/8RKrWwFnPEoJ7t8M1nrs87aNp9uPA72DLmvbfYrbc4ss/ytduxcsMOnLl4HYlJ2mcurJRHkjfQH7WrlsN3k4fD39cHD5nIKtvYImYLFC+N+50WiCMJW78ALlveB3J06NABa9euE0ccDodjgouLLOLdd9/Bzz//LI7k8Sz3CgLbmsr7ojZ/jcQr9htUffbpp+jbxzLJHD58BEePHRdHruXAwQM4eeqkOAJqV6uAnSsz5hqZVRw7fUkQFev/2oeHj56IZ014erijcIFg5M3jj+KhBYUKCdvVujP8fegkOr9tyXMY3Pt1fDkuc5U+9vhuyVpM/Ma6WRxth1AUxdPD1HreGeISkrD4143YuOMALl29BW2yJQFXpVSifs2K+JqJozeGTsStO5IW9iN3iQc27J4NMGHpiE6dOmP16pxn2c7hcJ4fqgkTJjy/Jga5FMqoX7rUuoOoLV6VWyLw1ffFERB7aBUMifZNrz4aNRL58pmSDaOinmL3nr+tGou5kjNnz1h5XHR5rSmaN6wujp4vFFEYNv5bTPjqR2GrIz4hdWmsTqcXki7psWcvXcdvG3dh577juB/xWMiZDS3kXM5E8SIFkCfAH4laLeZPG4VBPTNW/ukMlGhZtFABbNl9SDwDQchUKV9SHDnH2UvX2M84DIVSgdLFiyB/vkCksNcjgYkOSv4NvxeBpau3CnkjDx9LRFmZxuxNKbMVVKIekJwA3Lfv9EoOs1evhgmt2zkcDofgkQsXM2bMGMya9a04kse72qvwb27t8nh/zpsw2inBVKvVuMAmfCVbeRL/7N2H06fPCsdZga2B1i9zJqBDywbi6PlBkYRh47/B/YeZK7mtVrE0+nd/TXC3zGls++cIfvr9L8TExQt+Fs5ARmAUwTl2+iJi4+z3ZSELd7tfbzeBCQybMlUpB5YAx34TB/IMGjQI8+fLbK9wOJyXDi4uXMj06dPx+ecTxZE83tXbwr/ZIHFkwqCNx4N5qff3zVSoUAF//rFeOCYXzmU/LReOs4q58+aKRyauHVyNoEDHJYpZzeIVmzD6i/niyAIlunbp0gVVqlQRmm2VL19eEEbmG62q9+7dK9xsG7HlZJHhDCS2Pp46D1dvWnrAOINCoUjdGbdBf6BuGrkdh5YBR1aIA3lGjhyFGTNmiCPO8+Lq1asIDw9n14toREfHsHu6mY+jhbH1semecrn8/f2FGzkBm4/9/QPY2HJs+rppXKNGTfj4uL7fDufFhosLF0H1/2kZDHlXew3+za19KoiUR7fw6JdR4ig1r7Zpje/nmNqxkwPnzp27heOsgCZkilyYKVq4AE7vcLzFk9VQtYe054iZMmXK4NtvvxVEhTMcOnQI+/btE6p3Hjyw5Bu8aCKDtntGfD4Hu/Zb59wEBQWhTZs2bIIfidKlS4tngWnTpmHZsmV49OiReEZGYJRtDrR1wkfjIHsvHLWfeExMnfoFPv7YfgM6jmsgAXHt2jXx/qrVOLspV64catasKQgNEvqVK1dGYGCg+FXOywgXFy5g48YN6NGjhziSx6tyKwS0kvcq0N48icj1U8VRat4eNBBjRo8Wjrf+tR1hYVl38bh56yY2bd4kjoAeHVpg8ZcfiaPsJzlFh2AyeGIUCMmL+w9N1TEtW7bEHCa4ChaUtwinLSTaTlKpVM+2k8xQt9cffvhB6PEiFRnk/0CVGdRxNafy6Uz2vFdtESpCzJCgIOfXBg0aCHk4BoMBOp0OKSnWbqpffPEF5s2bh4QEma2R4FLAW469WJ6xbxFwYo04kIde3759+4kjTkYhsX/kyJEcISDSCwmM6tWro1KlyuxWSRgHBweLX+Xkdri4yCTHjh1DixbNZY2nzHiWb4zA1+zbK1OVCFWL2OPjjz7E4HdMORrfzZkn3GcVVCVC1SJmZo4finffel0cZT9jZyzCguUbhOP6tarh8PFTwjG1qy9evLhwLIW2Sdzd3VMJCjnu3buHRYsWCRPh/fsmh1N/X29BYJAleE7iHhNVb743CacvWCYV2i4bO3YseveW384gkUFuq9L3JlUwffCB6b1oFb1w8wD+57gqxIo9c4DTf4oDebZs2SqIwJwKCctff/1FmLyrVq2KTz/NnDW/K7h37y7+/fcI9u/fz277cPZs5nKr/Pz8ZG9kxid3nqAtEunNvG0id45EbHogIdymzavCfalSTNByci1cXGSChw8folmzpsJKwh4eJWohT6ex4kiexEv7EbXVfivs6dO+QPeuXdkHOuvzLfb8vQfnL1jafm9f8Q3qVq8gjrKXVX/uxpAxJtG15LspGPSB6eJPFybb0keKUHh4eAjRivRy69YtTJ482arCJydFMaj6gypkomPixDPUSOwTIXmY9sXTgiYAaWt/ev1oQk3F0PVp2n9bsW0GcNFOCSsjb968+Pvvf4Ttq5wCRXP+/HMjli9fjm3brLvh7ty5E40bO0hqzQLCwsKEBcrhw4cEQXHxosTQzEkoeleiRAmULFlSuJceZzU3b94UfHHOnz+PCxcu4MqVK7hx44b4VcdwoZG74eIiE7Rr1xa7dtm/uLoXLIeg7pOgUDme8BIu/IOn26yTKKV8PfNLdOrYEXfu3BWMs7KSdevX4d59S2Ou+/9tSJfPgisxG0t9PekjaNkKfPwXprwT2g7p29eSAEvCwsvLy6lohSN+++03TJky5dkFnqIYkz8ahH7dM5eLQW3kKa/jz6XTBYfP9PDhlO+x5Lct4gioWLEivvnmG+GCTBPTX3/9JSSrUj4JRSFq1aqFV155Ba+99pqw922GohdJSabeMHfu3BHC1KmgbRHaHkkPG8YDN2SEigg9n71792VI9LmSffv2Cq6iJCqkQktKdoiLU6dOCWKCbocOHRT+hs5A+Qty4oFunp6e4qNyBrSVQ2KDkqlJbNCNPlN03h5caOQ+uLjIIB98MBwLF9rfo1YHFEBQj8lQ+aRt25xwdhee7rRfwvfN11+hY4cOWZ7MSfy49MdnHVGLFs6P0zuWCcfZzbFTF9Gq1yi0bdkY636ahZZd3sbBoyZjL4oUUfKiGRIWbm5u4ig1O3bsECaO48ePCystCgk3bNgQrVu3xquvvmp1caaKEhIY33//vXgGeH9AV0z5OHUirrMUrdsN0bHxeK9fZ3zxybvi2bTpOHAs9v5r2gYiunfvjq+//lpot0+JqTNnzsSWLRbhIaVx48ZYu3btM28UgnItzHkYFFVIFdLuOAUoYdN3JC2omd2aUcDDK+KJ1PTs2RM//5y1ETc5aILbtGkTfv/9d3Z8TjwrT6FChXD9unMr7vRAuRHbt28XIhMkKOj95wzFihVD3bp1hTwauhUpUkT8ivPExcUhKipKuD158sTq3tvbW6jwoHtHxyTcXQUtxHbv3i28HrQlaQ8SGB07dhJKmzkvLlxcZID58+dj5EiTs6YcCjcN8vaYArcQ5wyQ4s/sQPQui7W3LTNnzECXzp3w75FjOHLkqHg2a5CWobZtXh8rv/9MHGUvb3/8JdZu+QeHtv6K6lXKo26bN3Hm/BVBSEgvTLQipougHJcvXxbyKX755ZdUZahm+vfvj//9739CpruUP/74Ax9++OGzEO+rzepixtghKMYEV3qp3LIfbt+LQO1q5bFzpWMPFDM1XxuEa5LW7p9//jkmTjSVOf/9998YP348m7DsO7rShfnHH38URyYo2ZMmHKJw4cLPjp9BbdfF5Nl08ZQ9z99Hsjeyff8Rev5jx2a+q2taUB4FCYrNmzel2vaQEuKrgFIB3I8xXf6ouoWqXFyBWVBs375NuHcG2jqqUaMG6tev77SYIJFNt+vXrz87lgoIue7G6YUiJvnz50dISMizG5V7U1SMoicZgQQuiQwSGyT6aXtZjtq16+Ddd9+1ilJyXhy4uEgntGJs1cpxklqe1z+BR6k64iht4s9sZ+JisThKzRdTJuONHj2EqAVFL7IKilhQ5MLMB4O6Y9KHA8VR9tK+/yfIFxSIlT+YJuOKDTvi+q07wsWNRIMZijpQAqctFPqnnIQVKxz7MhDfffed0BLfFgrr0qSzebMp0bFUscJMYAxGy1dqCWNnadR5GM5dNomU83t+QaH81AHXPqUbvYlHT0whZBIBX375JXr1svQCoQROR78XRWYoFE2TghTaNqFEPIImCHMS6zNq92RPNoMRmjungTUfigN51qxZi9dfz7rk4KlTpwh/S/PvaIu/hwJl8ymFGwmLn09Yqmn++++ksOWUUdIrKKhygsQE3dISE1RCTPkMdDPnNtDteUMRDhIZdCNRVK9ePcH3Ij1QNM0sNOgWGZlaoDZo0FAQGW+++aZ4hvMiwMVFOqDs6AYN6jssA/NvOgDeNdJnE51wdiee7rS/xTJp4md4i00u69ZtwJ276TNMSg+2HhffTx2J3l1ai6PspdWbI9Gry6sYMqiPMC5arRUiHj8R/BsovGxG7mJGF6zRo0eDyi6d4cyZM8LFXg5a7VNFxldfWdwyN//8JRrVtuQzpMVrfT7C4ROmJNlZE9/HgDfaCsdySD09qNKCPCpq164tjAkK8ZPQcGT9Pnv27GcVIURsbOyzVv008ZLIoO0S21JVVGgFtEntJ+I059mkusO+qyhtxRw6dBhFixYVz7iONWvWMNH1ljiy4KEGyjAxUT5YiZJBlpycv6/pcfiW6TWkyfFYBvr0pEdQkIig/BO6pyhZRrY5nIGiFXSjv635WO6c3FaJ3Ln0Uq1aNWHLsU6dOsLvSX9zZ6H3JgkMihpSRMOWpk2b4p133uXdeF8QuLhIB3TxoouYPbyrvgr/Fta23s6QVkLn2E8+waCBA7JcXFBIec06y+/31y9foX5N+a6hWU3DTkOxY/U85MlnWn3nKd0QiYlJwsV5z549wjkqpTSXz0mhpL1+/ZzzWKD9XUfhczMUmqXtFeLYlh9Qunhh4dgZRn+xAItXmMo2K5UtITQjc3OTT3BMZhNAcFXT6p48Av777z/h2MyAAQMctvCnVTBFNajygKJsdKP9e/PkR1shVCkiWyJK+RaUd5EZ0jDZatWqFTZvls8TyQy2OVAVQkyCgqIUciz6NwWRCaZLHzmKkrOoM6RHUNBKvlmzZsKkSKWuLyIkvE+fPi383rQdSZVVdM5ZSGRIRVWBAgXErzhm69atwuf4n3/+Ec9YoPcQiYyOHTuKZzg5kcyl179EULjVkbDQFKmUIWFBKD1Mq0p7pNobzyK0ydZeHYEBz8/ymzqC+vlaLIWp7TtB3g1mSFzYQl+nlY+z0GTtDHRRJajaIz3CgpCW8p67fF0wwbKHu5vbs2Zl5OVBZX5mKHLmKM+CoFUp+X+QGKKcC9oeoUoSc7SNohZ2O5hq7TfOc5qGA4FS9h1TaUU6adIkceQ6SEyZoQhFp4pqu8LixhPDM2FBdO7cRTyS5/bt20IU7PXXO6BixQoYNWqkXWHRpEkTITeGJsUNGzYIEaQXVVgQFNXp06eP8Df74YcfhORoWoTQPZnQkTHb0KFDhd9bmjxs5ujRo0KO2ttvvy2IZUpKpmspCRZHtG3bFqtWrRJ8aCgSIoXeQz16dGd/t044ePCgeJaT0+DiwgnoAzJ6tH07Y6WnLwJaDxNH6Ufla6l8kCPbxIWNEVhAOssmXQklk0qpV8u0DUGlfDSBEnLigi42dFF3BgpNv/HGG+LIlGhmFhFSqKrCXDKY3i6lhO33LFm1GXHxqbu5munQynIxpf1oM1RCKc03kYMqYmyh94+5DJDEF5WuEiRkrNC66H3W6iP25ikkDlIzbdoXwuTkKug9QbkIZkoFpX5fSLny2CIsmjVrLkR25KD30vDh77NVd3W7goISimklTdtXJOJIuNFkS3bYuRkSHe3atRMSh0lM0e9Nhl8rV64UzpHBmxwkAqkHE0UMBw8eLLv9IYWiE+vWrROqtygKIoWiG23atGZixb5HEOf5wcWFEziqDCECWg2Fyt+5Nt5yqAMdhwpjYuUT1FyNLsW6NNHf7/k0I6Kyza5tm8Cgt2S716tlWf3RZELIiQu6wDsLRS2o/p5WUu3btxeqTswVGVIoOdSc/FilXPrFBUU6qKzXTNiNO4LAsEePDs3FI5P3hhlZ224noe8lYUEXc4pmEKG2lS9aef+HdOPB3jetHG8zjBjxQaZ+HykHDliiFoQ0t8IWPdMVVx5Zol9vvtlTPLJAK+ZOnTqhefNmwsrZNkGUKpbo/UJlwbTFRNtlAwcOzBbTqpxO8+bNhWgGbV1KxYacm+7GjRuFqAiVg1N04/Fjk7W/HJRn8eeff2LWrFlCBMQMLQgov4qSnJ017+JkD1xcpMG4cWNlV4NmfOt2g0epuuIoYyjUGqjzhoqj1Dx+nLkW486itskDeF7mWTFMXBBGPRM7oj119UqWlaBZXMglNaZnP5hWW7TCGjFihOAXQRcquXCtNDO/cvmMTSD1a1pXItDWSGRUtDiypmihEDQQc11o8qILNJEZzwGqqCFxMXWqpYfN8LdtJlZXiQuiMBODjQeLg9RQ2eSHHzqX55AW+/db7Or9NAoEeNqPXFx9bECs1hK5aNu2nXBPWx9ffTUT1apVRb9+ffHXX1uF82bo9aPuu3PnzhX+JrTlRBMa+WNw5KFtErPYoO28X3/9VSj9tk1mpc8zOeTSVghtvTiCKkbIOI5Km6WfhzVrfmcipY1wz8kZcHHhAMpcJjdEe2hCq8C3oWvKo9Qh9l3pzOVZAYHyVs/kvEiPuf/gvhD+dtTnxBG2RlRPnmZPxMQWH2+LqZU5elGlYlnhnjCLC8ofkOZgEBRlcBa5LYZU5ZkMWmGZqVstY1bo7Vs0EI9MhN996DD3YtoYi9mWOYGTqiyk3U6dhWzR6Xtpi8UsngoXDMGAN9qhQIhkSy7ZNZGEZ9TsDpSx73hJduuO8picgbaKpJGLknnT2BKRRC1o/59EDuVFkKj49NNPU9lvUzTio48+EnIoaHVN3yOXW8BJG0oipuRZii5Sl9633npLKC03Qy3iqQEfiYy08qaGDBkivHcoUdQMGZSR4KNIRkavgRzXwatFHEB7rdK9XCkKtTvy9fkG6kD5rpzpJeLkbuj+ni+OrCG/ggN7/8G5c+exe88/goC4dv2akL1NBjSJSan372mlVahgIWFlRWY3fr5pJ2dSt9D1G9aLIzaJb1+GYkXSbxrlSlQab6jZjajdqifOXQwTLkgUdqXfzdbngjLSbSss0gP9PGm4nsrxyBOCXudWr9TCmkUZr6ao0/5dXLl+WxwB3l6e+OPHL1CnWnnxjDVt+3yMQydMCZ2070wrZzL8crbE1gyFlOlCTGWCZnEx6ZOh+KBfR9GD47pwTuB/m5jKdKGddOJT4JfBdg22qC/GqVOn0+2PYIbyICjR0ky3KmqUySu/ZkpMAeYfToZW3P2j98qJEydMAxvIQp1eb7pRM7z04BYdDq99W+C2+ziUpw5AcckcoQqFsX8vpLzWDkn1SiPx+QQGcxT0WTN7XNCNSmDNUF4GJYLS38IelE9EkRESK1KoaopM0WyTQTnZB49c2GH8+HF2hQXh32yQy4RFDDygC7Bf925uC36Brap+W/2b4EVx6PAhoT26nLAgKOnxxs0bQofTn5f/jH0H9qWp5m3LOm/fk3fOy06MeosXQ5d2LYR7mujN7pO2WyNmP4eMQsZAUihqYXYQbPmKxW8iI9hGL+ITEjHxmyVI0so7KUqjF2TyRWKS9vrT26ejQ4cOGDly5DNhkTcoEKPeoS0RIwIDbF4vyevtEjwDgGb/Ewepod9p7Ngx4ij9SKtEiFIO8i3CHhueCQvCVlhQmJ3C7iTE6EbH6RMWWvjsmI3AGnXg8c4kqFZtkQgLIhyKn2bA/Y1X4Nd3EvIcCQf9dPeIs/A/eBy+96OR2g4ud0P5K2SsRv2CKKLx7bffCsKAIOFIkSJyyiUjMTno80oJopSLIW0JQD+Ltkl4sufzg4sLGagPACVr2cOz3CvwquyaVtJJUCPOyC4x3o57kPTs9RbGffqpw6QnR9DE8vMvPzusNqCJWTpxSe2nnxcGXbJwI97t1wPFQ0173CQuqILDVlxktgMnRSmkSCtPKHKRGTq2aQR3m7wWMtf67Osl4sgaanZGia0ERZUojEzJb+RW6Cw0QVICHBlrmZk1ZTQM1BOE4e3pIdw/Q+dicUGUZivPqvY9Caik0V6PlLSQbokU9jdZetuDxIUc1Fl23LhxwoREk5SjlbJddNHwXfM5vPvOgCLeCYmwdwHcOtaB/+Rl8P12FDy6todX7VHwuaqF442d3Av9HcggjhrMUZKs2ceCfFuoqstc5SQHvc/JYI5yPMzQAou2SL78coZ4hpOdcHEhw/jxn4pHqVF6+gkunK7AwC4jsUbx4q52fEE6bid8mx4ocrFj1w7s2LkDySnyq+WgPBb1f+lauHj0fNGnmKIzQYH+TGB0F47JdZIEBokLc2kqQaH/zCC1gKYSZHO+BQmLEkUzF6mqWqEUhvbtLI4skMHWr+vlSzOXfD0GBUNMLoe0709+AyQuqPwxLSjsT+V+0sny7d5d0al1fRiNpolWo7EpR5VU6LiUpkOBQPv+IJ9+Ol48ch7qqSH1/XBUJfI00YgrMuKia9euQi7KO++8kynnUI/TK+H5/jLALy/0RQPFs34w9h+DlKVrkbBrJ5KWTof+NesIpWL+WKh/OmsaVK8MXT4NTPvUWviuGoXggaOQd84yBO44AN8bEdDY9JrLrdD7myp1KHpBkTdKqiaBQX8newsk+uxS8jMlaEv57LPPmLieJY442QUXFzZQPfXBg5bsc1v8mvSD0itj+8O2xEGDFIgZzw+yrmeILZevXBZWB+YW3FKk/Sj2Hnv+/QsIQ4oWBjFcP7hvd1QoayoHJXFBERmq8jBDtfDBwcHiKP2Qq6IZaW6D1HsiMwzr2wlFCqZ+fhS9OH1B3lb++FZLvxfKkqfqJUqMc2QA1qNHD+GxJC7IfIuoX7sqvpsyiukHy1aah21fFjFK5HKUaofVIzR5TJkyWRw5R3pKUMMiDebCIyuoNJeMyujfp1JG82uVHhTacHisWcaWCsHQhxaAMZHyS4rAsGAXns4YgSdtGyG2UmVEtx2AJwu3IGmSaNqlCYShZEn2PaKgr1gaOnGtodA+hPrfzVBsXQnVtLFw79sNXvWrIKBwfgT3fXkEBxmQUQUJRd5ou4Sa0tF7m6IU9qCeQrZVJ5988gkWLJDPaeNkDaoJEyZ8Lh6/9FDnzO7du1mthKV4lqkPv4aWBlKZgURFtJES58Qg6F/TgMT0X9gyCiVSUfldqVKlrLZCqPriSpjJB4FKYIcP7GbXqjo7oVdJ6aZ59ly27TkgVIvQ1ggl3VFSJ+2ZU4Ig5cqY8wvSA9kUU8UAbQ/Rapb2eokm9aoJHVFdAVXCKNh/uw9YR6ISk7S4EX4fb7zeIpV/B/3OZUqEYiObTAiq9yevCkrupP1q6lxJRl8kqsjYiJ43RXAowkEZ+ES50iVwaMty6JJin5X3Elv//hfnLkkSOiu1TXOLLsMEslU7JXZGmAzJbCGrctpjd7YfBS0EzH9nd6bRW5ex/z7dd90gRC+k0L9DCbtUIULt90lsU0IhiVWqsHE2t8Xt0XF4f8nEhTofdHndoHzwEMrSb0E7siMSbHzojGpvJFdrBEXoE7htOca+JxB6Xz1UkfEwdn8fibVDQBt9avYzvb77Dcq4IBgKB8GoUUGRYFoMKK6dhXL/bqj++B1uSxbA49u58L5wG5637kETrYcbE3IKX2/oc9HSsVKlSs8M7yhaRRFFyteQ9t2RUrZsWeFGYsQM2fzT9UFaYcLJOnjkQsLkyZOEcLssShX8XjE10XIF8XCH0Sws9swFIlM7Q6YFlRN+MLg3vpnyMX7+/gtsXbUA29csxpql3+KT4YOsjKfkePT4EXbt3iWOTFAXTinmaoXnjT4l6VnuxeB+3dGmuSmSQC6Ko0aNshKEFOrOSLkgGSGZex9IoxZD+ri2h8HQvp3QtL7FCMjM3n9PYaKd/IsurzXGvvXz4OfjJYxpi4RK+6hMlUqIqZcKRTMotL948WKhQsScBDdySF+c/Pt36LRxMBqsc1TUtt4ZxtTeIS7llXcAL/mSaoI+g84i9bdwFLV4GGcULL9tIdM0SpSlMLt0JUx5TXTOnEidFsroh1DcZAdM/OpVTJCQJolOolI88yfcCqPaH/EdhiKlux/7EF6HWzglDFeAoZRJWBBu4UxAUCArOQbKW3egjIii/Fs7sH/nWYSjvRjhKGvaUpm/DIF7jsP3RnSuiHBQWTAl2zZq1EjwxnDUjp22U2wjGMOGDcWvv1qaM3KyDh65ECE1TFa/9iBh4VGipjjKHFp29YkRohaMW8fZTJG+0sIu7VtizvSx+HrSR2jZpD5qV6+EiuVKCcmORYsURJmSxdC0YW3079kRjevXwtmLV/AwQr4UkMpaacUbGGDaJ6bVP01KZrvo4Lx50LxhzlD6ZKqlVLuzlb1SCPHv+PswIqOeCk6ANMFS2JSeP61YaPVpbnDmDLR9QNsIFDWgSZpWxUTXtk3x4eDULo6ZpWypUGzYvh9am0qRo6cuIn++ICGZ05aQvIHo07UN1m7Zi9h4U7ksRTAoN4T2pmm/mUSHOVpBK++ZE0dhzAcDoUuMeSbOpGz754j1dky1TmzyN+cMZAGUW0S9dK7L90ihKAKtLNNKzKWka+k+ev2iKoT4yE3lwOl7BtyKMs3MtO1nttOn6ARFeShiQYm75K9grg6hCB4tNOhGryM91h7qB8fhsXw3FH7B0AX5MAGXCPXNQ1AFNoKxdihSZHSP0d0HSu1tuG85C9Ck7/sKdP/riMRAUiZaeG5fAPc95DhJoqg0jMPeh75TUxgqlYAiSA1FmDnZ2gOGClWQVDQPlClxUCaYFQQTHGFMoOzdDdW6lXBb8j08vv0B3pfvwSPGA4qy7Hk5F5jJcdACgLZGEhMTBTdVij61aGGqJLNFLoJBkT86l5kW+5y04ZELEaqVtodb/lLwqeW61Wu8UbLPfdRi75wWJYsVwbbfF2HFwi/RqK5zE37j+jWx54+laNHYvovo3n3WWdihoRa30ANHnXe8zGqMBh10SaaJoWjhgpg7Y5wgKghzYyWzqRZFM6hVujPQ6odWsCQsqLOm9PuGujhqYaY6Ew+fj5TPmfh46nz8feikOLImb54AXPj7F0z6aBCCAh17l+QJ8BO2v86eOSMrLIgUnc1yVp0N5guVXmN/QPuVN9R7JC2kUQvCYb6FJJFTakJGkxNBESvqBUK9KmwhIUJGW1Qyaw9DUCiM1J5EmwiVQYnkvAWhzwMoZg6Ez8/H4SkbMdBAV4KJBnGEymXY95iSOYV8i1Pi7+fXBSm7NiPys6GIHMRu46YjYulmRNw6iuRBFdgV3BsGD3foFTooEuTL0gUEY7poKDYtg/pIRK648JPhFokG2sL8+GP7vZ/kIhi0kHRUOcfJPFxcMMigaOdO+42U/Bq4buWaCDcksZtAbARwx7ncgAFvdsK5AxvQpEH6yyG9PD2weeV8VK8ib9ZEqzPzapcoUtiS0X7qfJjDJlvZjUGnNeUNMEg4zZtpqTKgHATqCUEreVppUtiUxIJtwyMzZMZFooR6i5ANOK38qemUmUUzPkKtqlnXgGrAG23Rt9ur4sgCTfgkMCgHQ46ExCTs+/cUIqMcO6hGPH6Cz76cj7rtBmHQRzPwNCZ1YzLbyElaVUsuo0F/8SA1lLD644+ObaClyZx5vRXwsil6MXMvxijczEjFhTmhmUQl5dpQ/oat46sZcm4lkSHnFaPLVxkpbdjPjXwKdWwKW434IrFURejzxUAxvhd87QkMjSQaUqY0dGJ+hvpJGNTHxH+nd1cklfN/tl1iRhUfDtXxC/ThhoH9yZTJiVCQe3vvb6FduQQpk0bA0EFyrXALhK4sE0Hs3zAWCYbeCSd59+gIeN8Ih/f9CHjGU7w150E5F//++6/weae8GXvYCgyKdkydmnFDPE7acIdORt26dZ5ZSttCnhaBbR03LksPj9mnO9n8MT26Eji41HTsgFlTP8GQ/j3EUcY5c/4y6raRT0gtV7YcWrW0lDcuWLRASBIkyJUysx4Prkbq3PnFt4sx/TtTWSpB0QzKDqescdpXp60DugBR3xFK2qWETfKzaNq0qZAoRlsJP//88zObbeLbz/6HgT1NfSeyErJY7zRoHM5cvCaesdCSvea/L5wMpU2C528bdsHd3Q0VShdF8SIF2YU1tSBISkrGtVt3EX7vIa7dpPsIoYHaO70sbpZEr/9NxtY9ki2KIevYm9411VBp8vf3TL3Kd7Cl6FlYmHz1DOVElC5d6pmTat1QFVqUkp8tD9zQYx+7EeT3QSZkU6aYJhWlUmkVLqf3CeXu0HvCHjSJkSU4OblK8Ti9DH5txkLhk59N4sWQ4KWEUhsNz2vnoYpkE/qw+Uj8oAvi2EtrvuBqLi2Df1P2PezYOGMnovtXBkkK9/sH4PPLFqhPhMMwaBaiWwfD1n3k2feGlEFSqTzAozB4XImDce5+PO0eyq4xJkio+CwcC80cS6THOJs9pmfpZ48xo7nNRNCOXXDbewDKHXL9lEwOo7rGjaBtWAsJkt8lJ0Cfb1og0LamPag3jDRK/csvvwpbLBzX89LnXCxdukQw8bFHng4fCy3VXQElcSYInnwi+5mSjpN3njMz8eOhGDHENYmkIcF5ER0di6MnUydpxsXHoWYNS04JVWGYw8aF8ueVTUB8npBzp1GfzFadKjRpWAfNXqmD+w8fsYn0trD6pMoDMmai1Sj9HjSxUNJj586dhYoKqi6hBlTUyIu2QaTicvJHgzCkTydxlLVQc7jQQiH4fVPq/JDr4ffwOCoabZpYR14qlyvBhEUx5AsKgFotP6nS+eC8gYKgqFO9Alo1ro2alS39Wcys+GMHbtyWREjqsfeayk4YwNXkZ8/nNJvcDamX9VQS6unpgQYNUpcAU36JtFts0xIqu83K/r6uR6wYBKAOnJQ/Qe8NgvIrpC33yeGROqDmyWO/WoYEN+Uj0WNJnJjR5a8AZf5wuG0+BmUSEy5+vkj28ITezw+qpCgo922C28l4qGvWR0oetTApKw16uPlqoNQUgv7VHkgM9RAyLPS+oUhs2BLx3bsioaS3cM4WzdHfodl4CsaQwkj2VcLt0T2oYmtB/z/2cwp6PJv0DZ5BSKlSHu4XfoFSaBpaGYYBvZBYzPxztfA++Dv8p4+C16jZUO/5F4pr9raAoqE4dQCqjSvhvvEiNAVKQFEsJMfkblAkkpKcyXDO1m3YDOXzUC6W2XX32rWrQkm3tAkaxzW89NsiX39tvzGZT+1OLrP4JhKkuRa0B37fsY9E25avYMwHb4uj1Oz+5yBadx0k3Ab8bwwWLiFb8COIjYlms6/8mmL0+wNlu51SiFjqFyG1Ff/3v5zhd2GLQZeClISnQh5GvRqVsPGXufjys1EoUsjk1UHCgrZFaKuDDKVoYqGyTYpskNigUk2pA2fjulXx/dSRQvltdtKiUU1M+KCfOLJmyW+bMXfZOnHkelJZj7uyr0haUISk7lviIDXkkivt82LG1t+iaKD8ZexBrBF3oy2fg5aSyBwh7UljplgxSp5wDH1OKInYGg3iun8O7ehGQNQduF2+Ce94HQwafySUqQxdYTbZHVwATfdhCDgYIWyMpgTXwpNR0xGxcgkiG/oLeZ3OEQ31VSrn9YXRyx1GQzKU9DoVLQ19wdRbKHrvEOjLmbeDQmEIMT1GFR+GwMld4dN1FFR/nIUxOD8M+aRRq3wwNmkHY/PK4ljC7S1Qv9MKvv9bAP/b2hw1kTjqVEuffWp6ZoaiHeZIFse1vNTiYsGCBYJylUOp8YJPna7iKPNQ1OKZYRZhp9bfjI+3FxZ/Kx9UonLCLn3+h/a9h2P/kVPCbdWGnRg5cTZasItXjRY9seCHn4XcBNtEvnx586DvG6+LI2tiYk17+GHswiW9qF8Iozq7nIs+OQEp8VHC7/u/Ad3w94alaNmkXqrVCG2b0KrTvN1jhlag1SuVwVtdWqN7+2bi2eyFKlI6tJQ36prw1Y/PPC5cjVZrG3DPZmr3BPxN5b+20L74rFnfiiML0n4iJfLYv4Rdi7Ss+ak6gLbBpMiJC2e9LSg6RuZbUoyaYEQPX4LEGV3Yh+kB1Beuw/tpChRqT8QXLYvkEkFsQcEm5a5vIeCPsAyXhiq0TFyEHWNvXHcmXth7PCURCvqYVykDveMcX6AUExd5NFBFn4X/xLfgPv84kKcgdExsp/jqoHzEFiZlu0C3fD+i75xFxOolTPzsRMSdy4jfsgS6wTZVGZsmwaPLSAScZs9JPCXFa+9s0WV0pakk9n60OePsuUHRS6oMMjNnzneCyOC4lpdaXDhqauNTu4sgMFyFVdSCeJR6j13Kh8P6ISiPjB+A0Yhy9Tvgr7/lS/mIO/cjMGryXHQbNBr7Dxxkq/sowZXRbPncpb28dTQlQv6x4Q9s275NPGMiJjYeDx5ZuhXmROh3o99x5ZoNqN+mF3bt/fdZDka+oECUL10MlcqWELYgKpUtjmoVSpnGBUPgoXHHyXNXMPiTr1CqUU/MWbqW/bzs302mRmVlSsg3sBs69hv8fSjj3V7tkSQ1jHN33fs9XZDAsAMl21JbdTPnz5+zMkgrGSS/HUJcl4gLCpfbIicu0gMld966Ze1PQx4Wsb2nI3FSO/biPobq7Fl436OGZG5ILFgS2nL5YcRZKIcOg98mJjDE70sPquhwKC9oaQUCA5upldoEIZnTWLo0dHI/kD0nfa1e0PdsB2O90jAowuA7fRjcfg0HCpSBtkxh6OPvwf3aY+C1iUhaMwtPWpdGkkQt0O8VV7MdIietQMyW6TCKetCYNxC4vR5uYxfA576tr4cWqkvHRA+OUXDv1R5e1csiT8lWCB4zA0GrtsD/dDi82HO3/1fMGqTRC9o2pe1Rjmt5acUFGQ2R3a8cKp88wpaIq0gVtSCi5SsBiMAAP3wwWD7P4r3RkxF+17lupdv3HsWrvT/CiVPnhVV9StwT4f6VutWEzpi2XL12FXfu3hFH1ty645yh0PNk0qxlmDz7J7zdqwMO/jEfkWe34OmFvxC2fyUOb1yAA3/Mw5mdP7H7+fhn7VzTeNdPuHfiD9w4/LvQ/vzDd3sKjpX0s6Ki7RiqZRFkCz59jLxFNlWIkMCwyo9wAVaVQNlRhipHZTYR5y0uDqyh3Iu5c+eII+dLUB/GGnHbwZYIkVlxoUl8iOLLFsN38e/wu2FZudNEHDNoPuKXj4HRLwmKa+fhef0xPPRqJOYrhqTKxWD0IIExFj57I9JdhaGKCIOSGjZ7ewpVH6qkRDY5+zFxEQr2T8igQWzboXg8ewkiZrDXev3ncP8pDAhmYqdYXuhSnsL9Drum1B4B7bShiAk29zeRJ7HmAMTNHiE8RqH3hj6UXUv+mw3Nd7vgZVtMU7A2DE0spe0C8Weh+Gk21CMGwaNNHfiWzI/gN0Yh76L1CDgdBq9oJkrEh2YVVEEmbQC4ceMGHDt2VBxxXMFLKy7mzTOZJMnhXfN1qk8TR5knVdSCeHpXPEhNhzZNZfMiTp65iKW//SmOnGfkpO+FScS8uk+Oi0SrxvLlmfbI6ZGL42cuCzbdJB4+GdYLFcsWh0rl/Ns70N8XzRrUwIi3u2PxzNH4fNRA4Vx2Q/kX0lbrUuhv8MbQieLINTyU/l2fl7ggapoa0snx/ffznpWISrdEfDQK5PGS/5xekzhyFi5cJEsiF14x1+C3dgm8PhsOj7VnrSdE9lrGtR6B6K1LoKcO4vevQHPtITx1SmgDCiKhYhkY/A5APWMpW/Gnb+WuvsEmZ3Zv9KYEUD2UgkCsAkOJ1PkWtmiuboHHzN2AX0GkFAuBVpkC9/v3oUioBP3IgYgvwH6u+FhHJNbrheT+RYCoOMC3IPT53ICfZsCTiSXLtgcTNR1G4NHqo4g6sxMpPUlkqGAsWRHa6hWhKyTxRt+7EqqJw6Bp8wp8yxZF3r6TELTjbGqx4kIoekE5WGao3xLHdbyU4oIyzS9dkm8UJkQtalqX62UG2agFkWBywJSjU1t5t7klK9YLE97XE97D1QOrcHL7UgzuLZ8/IYW8KsZMXyiOTLRsmLOqPzJLrSplhYoW274cLyLD+nZG/x6viSNrrly/jRY9XVMaHRuXYJ3QmZXOnGlRoTWQt4Q4sObRowjMnz9fyJWRJnOWcnJLpFWrlrJCIrPiwufxbbg9Nh0bH9+FPsEmOZahLdUOMd+thY46gUdcg+bGY3gyBZDilQfJhULYimE23LefZVcJJ9FRvgX1/vGB0UNM5kxMYC9GZeiDHYsLhS4CnuuXQRHvBkOBECQzLalKfAL1o1ig80Ak1U1d8moPoyYUya3bs6On7N9XIqVgISZKwqD6cSU8ZdYhycFlkFyPEkM17Hs1SPH2Yo93MP3sWAB131bwHTADAVezJpJBfUakLdp37LDvdcRJPy+luKAKAnt416APjOuQjVoQOvuSvFkj+ajCoWOn8NOscXj7zfbIm8cfxYsUwM79cvXoqaGW3qs2shWLyCt1q4hHadOjfTN0bN1IHHGyg2mfDEaDmvJ+CyfOXEbv4ZnPcH/4OEo8EvGxtNt/LtQQu4XKsGjRQuzdu9eq34e9LZGIOCPCnzreEiEyJy6S4XP7quUCmhiP6PvyJZzJRRohegGt3IOBB1fgHhHPVvdK6HwCYPBkk/6OA3B3smehQhsBVRj7zGs8YPBgU25KIpvc2RfKl4YujWROt/vH4Lb+LPs754M+wBM6ow5uUY+hSCkCQ4dG0No0WUsLXfHKMDI9qiBRxcSSrpAXsG8FNP9KoxciuiSo7tF2rhJG6r+ipwoX2nZsBP2kb5HyxRgYGpojZz4wFC0GQ14PYM9saN4cCX87CaOZRSouKEH32LFj4oiTWV46cUFWsf/+K58MqfTwgXd1SxZxZklgHzHZqAVhx445OF8eIcFQjoVfjhNC/2YOHDuD67csF7RypYoK4oPyDGZ/PjxVWH/z7kPiEft3ggJRtLClvbot9Bzq1agobBHQjZO9eHlqhO2RoEB5Q6vNuw5hxrxfxVHGiLAVF97PWVxUfBUIkC8jJIOrxYsXiSMT9ipFpFEL8qyQbokkJ1vW5uY+IhlBqY+H5+3b4oiNHz6EISISkZHyPXx0/pUR+8l86Nm6QXH/ATSJBhjc2OqdcmjDwqGKYedND3UIOXMqL7IDTy/2/WTUlQAkAcbyZaBP49dRnz0AJaVU+ftDx2Z/hT4Rqiimaoq2RErl0HSUwpow+IdCT8GmBCZw2CIqhb3WRtyG8uBZuNn8MIU+2iSKKHLBnvezCpfWLaDt3QtPBo3A49VnEL96IoxF4qCMTIQhtAKSS4WYEkbfmwTfG/KN4DIDiQupX8n69VlX9v2y8dKJiyVLfhSPUuNd7TUoXGgglGgvakHY+ZQULig/4V+8ch01Kls3s9q5zxK1IEOln74di05tXhHGFFbfuHS6Ve4GTUgRkZYJhbwVxrz3Vqrbirmf4cHJjdj269dC1ILzfKDmZV+Nt9iR2zJj3gqMnDRXHKWfh49t4tdZ1Wo9PVSz38uFnFTNFPRTwM2Obr/2xBK1aNWqFQICLFVX0hJrR83I0sIj6Ql8blnEBY4cQ9D9ZDyNiBBPpCalQG1ou7QD4mOhjGcrd3bOSP8XzyZNB5FMKar7V6CkHV0vaqlugCqRkjnzwlg6GDpHS3tdNNzO0fXCA4YAH+jY9UeljYeSdmdrVIYu2LlcCylGFbu2+LADnQ4KgxIGT1/BXhznzkJt40wvVLiQKPIV7crFCheUq/xMFAkVKU2GIu4L9p6PewhVpBb64FAkF2UC++pKuP9ywE6floxDORevvmqx4OdbI67jpRIX1BuA+ojYw6tqG/Eo85ATv0M3frX8hS0kr/wFvnyZEoIrpZSjpyzmVt3bNRMiF1KqlC+JDwZZG0Kdv2ypkOnWrikTE71T3dq1qC8+gvO86dK2CWZNtN+td9nqrYKFd0bIcdsiRNXX2eKWZqzUmDv1Eva2RB7FG3Eryn4JakKCpaw1M5ELz+jb0JD9Sx624i/GXrekQwj86xCCIxMEe3J7GPwpEsUmVr0RSl0SExlsWDAYBm/HFRom2BXleph1MqfQrKwqDMUt7drlUOgjoLpBxl/egjcGvUKqxHjTz6pWGSkZeimYIKLJnv0QI7sZ2DXNSJe1W0xIkGASHmNCqHARRJEXDEwUmipc2PeVZq+fzWUyuVoj6MuxHxsdC5XRDdr8hWGgLZ9V66C57frohVRc0NbI9evXxREnM7xU4kLaO8IWr8otofJ2XUIbNShziJ3MfEf+CgYbcSEtI+zQSt6A6YNB3QWRYeacRFxwXgyowdnno+Q7qBLUG+Td0TPFkfPkuG0RQslmmipp5z2VsiMupFsiFJmwzbdwVeTC63E4VOaXzyev0AUVm75CqR83I+/Zu7Kbocr4cLjv3cWOAsDmTPb9j5g4YMO6tZHiTNCIiRFTMqcfDF5uMBqYOKHfp2wZtsLXyNqEm1EmRUNBQRX6PjW9djootNS4rQiMaQgTe9D3K2gXyI39zdiPNCoUMJJx3YNoKG0CMZYKF0/2b5krXJiIkKlwMXiHwijk9iZDwcSLwc0bugBf4EkYVPeSXJ7cSdEtKX/88Yd4xMkML5W4WL78Z/EoNd6V5ZO+MoKOvawOt0QID/nVWWy85eInxahPHQ+UiouihUPEI2toW6RHB0vS0u179sO2nJzLiLd7OKwM+n3z3xg12X55tRypuq7mhG0RgnwvHEBb9gX85Nev1yKtEzmpIkCKVFxkPHJByZy3TRfPJ+FQn7sMlXmHadsChLz5NgKn/gw/tso2L8rd2MTot+hzuK9in78gHzahRsP9FkU4GkLXpRa0DoKcZpTmZE4fTxjdlVCkaE3JnFUqQyefmvMMhZ4JAUoadXdnAoDds0WMMomm9aIwhDgWJvZQxoRDSUbD7h4wPJtJZGTKswoXyjGRVLgUk7crV1ASiflyR39mhZKJMXqBoqCId31tKm2NNGhA9cImeCt21/DSiIvff//dKtNciia0MtzylxJHmScR7AMkHtuFrXbkuP9AvpGZQaa5U5wQEmUrIJUSBUPkfx7RtW2TZ8mdDx7JJ5xxMo9SyNdxddDWwpfjhjrsTrt01RbxyDnCbtgYpuWEyAVBduBlmoiD1JTMK3/Ziow34qZkS4RKUG1xhbigZE6fW2aH3arQtrO2FWcSHqrvP4Fn7aIIyp8fIeyWp8Ir0JC/hEcgDF4GqK9eFxIajZPGIqFq2v4UhIpN5ira2XBjq38KFiQlQMHmWmFrIY3lvBEe7AeIA8Koh0KXws75C1ss6c23IJSRTCjRE9e4wcDe9goD+5kUXA3xh0Hy0j6rcFF6PrMrF0RR5cqyduWCaCEtQtdR9nDy51GkUPZnIHuuGRWEjqGmZ2YePHCtUd3LyksjLqgVrz28KlpW9pmFfQyQQDHPtPCVjzRcvyXvkEn9RGwxRy58vR3bNhcIDhL27glqxc1xMQoF3H2C4OYdCHffICjdsuYCSJDA8PdNZ82gHa7etHmvecnYzT8vqHLEDvbyLaTGWYRcCWq8JDKYUXFhgDeiWg1F5PuDEPPhIFwZ/DGOLJ2GmFby1u0WmCLQR0F5+x6bcPPBOG4F4vvXQqITUQtCde8KFJTn4e0tRAqUiZSwwX5OKXvOnBbIW8JIlxzqJMwuJSYJzBYsXux8GsJEHi3UN9jzYUeC3waJC/rZFFgoFgqDnyWHRKhwIVEktSunChcSRan+BFpoDuyGkv2eRl9fwYFUSVUtsex3zcfESEEPp4RYepGKC0c5MxzneSnEBfn///XXVnFkjdLLH57lG4ujzEO5FnpnXlZ/eXFBXLiSuu+InLgwl1BRk7O0GNK7I/IE+KGyJP+C4xrUHr5QKE1XaIVCyRaW/lkmMEoULYhGdZz3KLHH3QePrA20fPKJBzmEYrWBPNYJymZK5pGPDl2XbIk0b94CpUqljkZKEzoz7HOhcsfV0rVx5NUuONC8JG6zP31kSFUcGDEH5+dPQ+SwvkhoJGcIxibzFD8Yh30L7YEDeDK8BeKdfpto4Xb2OJvMNTD4aNg1hpI5KUxQBYbQtCMfRk0I9EWY+IlNhDJZZ4mvaTKWd6LQPoT6OFmxB8DgTdc89rIkxkJB2o08NyQ/Vqhwof6QZrvyRHE7N8jfKmKi0EXDd9MseL1PC8Eg6PP5IkVhgPvTR6b8ljaNkFzQmcTX9JM/v6VKz145MSd9vBTi4vffV4tHqfEqbz/8mhGSnIlaEPnsb8McPmZpzGTGKLMtUrmc6QLm65N2m+zSxQtj+XfjUa96BfEMxxWQmFC5pb5Au3n40RfFkWtpXNfidSKlTrXy4lHapNoSCSwsHuQgKqTe1iC7b7L9tuVJghHXJZELuS0RQrotklmHztS441bRqjjS7g38M3YuTv70PRIWz0Hy3PlI/mEFtBt3Iv7MWTz5rBeelkq7xbrnifVic6+z8D2yBZo1W9g/4csmc3cYjclQauOELqf6oLRzJqjMU1eZCTZEQxlLLdJVMLqx9+jjh0LFSnrfqeqIs3A7GEF/EBg0avZ8dFDHMnGBvDDUrSyJSEgqXLyowoU97zhTnapifCv4txuGvEtWIs/8Gcj7RhV4vTObPZb9fqULQ8vWTG5R96C5RNvZtaDr3ALarNHsVpELLi5cw0shLtasWSsepcaVUQsyzHJYfiolT6jdipG/D6RuoCMXuXgmLpyIXBCNaldB3RpcXLgSpYywEGDCQslWuFkBRS/kaN6whniUNqnERZB8lOC5Ui61Db69KhFpe3XCnitn1ooLa+7nK46rdZsgqnsXRHVogads0o0L1qQpKkxEw+3ISrG5Vyt4dRwG1Qk26RYpgGRPJeVjsosCPc4ml8IuGiQ3bAdDIfbWjIyCm04Bgxe9lmegDI9OZwWGFprju6G8wZ6Cd6BgyKVKjoWa2rX7NYauWojFRvxZhYsPExca4TqmlLb5P70eqvGj4DZ5NpQHtaaclFIlkeKRBI+bYfA8Fw6F0R/GLz5HQt20BVlGkYqLWCaSqFMqJ3PkenFx8uRJnD59ShxZ416gDNyC5bsxZgT2MRKPnKSA/Epzz/4j4pEJSmgyXU2sKV3ctMfr7u5ktITh5+Oa/XqOCaXa/gSlkDj/uZKrtsJApHY6IhepfkZOFBe+weyqX1YcmLDXYv26xDirXr16qFJFfutIKi7c3Jz/3GSUqCibcl8nIVMtZZw4eEYyFNfOwuvwafheuwsluWdfXQDNR5OECEfAQfY1y65PKpILNELyGzWBp+Fwe6KFwduX6ZNHUB5J7ajpCPWTs9Csoq2LfDAEeQtbF26RESbPjje7QivZunhW4eLhAYOGfR7MyZwoDWMx4SHWJEVBefUi3M9ehuoORRBqQT93LWL6OZ+bkhGk4oK4b8fKneM8uV5cbNhgv2bZs6y8N0RG0Tq7JWKmiHzzsKinMVbRC7kyVIK2OjjPF6Va/m+uS4oTOtBmBXsOnhCPLNSoXAYtGrKJw0muvAjigvC0rrEsJmP5HZNkxA2rLRH7ZeXZGbkg4uPjkZyc/iRqozoYT0evxeNblxF7YCeSls6HbvRQGFpXBvTxUEQ8FjwgBKjJ14hBTGSshLsjG3G1P5K6D4IhP3vMzTtw13vDQKk267ekw5xKC8+t7N/byw6DfaHzUkMdGwH3m0wIeLVDypuNkCQJyAoVLoJduQ/0bkqoqMKFkjnHzULMgQd4emY/kuaOgaG5xH24SC0YOw+AbvYKJJxch6julZGUhcKCsBUX9+5xcZFZcr242Lhxo3iUGo8yrnOiTIZKuKWLYvbLCtds3C4e2V8BN2tQHa82rSuOONnNvUe0KrW+JFNuTHLcEyYsLJOYK6F+MnLN6sy2785y7DRd8SUEuS6C51ISLa6cxQKVshPgjSgjDJLAnj1xodVqkZRExlEmskNcEHFxqUIQTqPX+COhVGVEt+2CyFET8Wj5Tjy6cwuxh5ngWM4ExzgmONpSt1EG9RfxY+9B00gWbfF2SJwyAEiJhIoEgUcg8IiJkkVb4O0g6mHG4/RKeE6kkmc/6IOD2Ps8Eh5UVqvPB+O0EYgvZ53/oYq4AgUlc3p5wqA0QJlEgpsqXIKFChdtcGlEdx/BnsJ+PHzwwHQ7thkRC6YjsmcLxBag5NXngXNSi2OfXC0uTp06hYsXbS6iIpqiVaFyod1xUlqOnHJQyNfDurmYmVV//CW0xBZQ2P8z2WvNzclaKGdh005LIzhCn5LEhEWUbPKtq1j95x7xyJrGdauKR2lzMeymlQGbUIJq5334XHlyG3goGB4IlMorf8G/KYlaVKtWDXXr1hNH1tyWNBoj8ua17w3jSjIjLuQwqDVIKM4ER2smOIYzwbHUJDhivu6FxDR3PTWIf20kksa1AGIfQHVHfG4/DYPXvN3wsSswtPA6vR6+H46FIl4FY4ki0KmewOPiZWH7xjhqNuI6V2aPkqKF6orZmVO0KxdMsKjCJWOuoFnFw4fUsdWCrfkaJ/3kanGxZYt9UyGPUq5d8ScZMxi3Kym/NZOYpMUva/4UjqkiwR4UuXBkrMTJGqiF/Z879osjI3SJMcLN8box4yxZtQXlmryFX9ZZIlpSihUpIB6lzZGTNoLbTsnnc+fuGfHAhJy/RTKboay3RFqLR6mxFRf58mVP+a2rxYUcJDgS8ziXLEpbLrGDZyHps3ZsYEmuVHz7Frzrd0O++etNFSqXqErlAAI2rUTQiK7wbTMMynN5YSheDHrjY7ifvsbEgh+Mn61A/HstkGCbny4kc5KFpy8MnqJdeSJ7LSpSo7SMuYJmFVxcuJ5cLS7seVsQHiWpLMs1UIWILr1bImbK2K9W+XLOEsSLLpxmHwU5qH8IJ/u49/CxMMkfPHoaZy9cRnJ8lBC1cDUUuZq7bB2K1OmKDyd/jwePbLqYMnp1aokr+1YiwE/eTl6OI5KGdwI5Nd/ijkVceLsrEOSVOnJBwkKwexBxlG8hFRcUtVCrs3gjX4QqD3S6rItmZQSDJhgx736LhAVDreVwxAEoJw8zVag0pSqVbtC8MwrqVceB4BAY2JyruHEN6hsPocjfDrrluxA9rAXiZSImlMypvnqW/fG8YCC78mStKemzQhno07Arz26k4sLX1y9TfWc4JnKtuLhz5w6OHTsmjqxxL1wBKh/X9VFId5WIlGJ1mNKR8cBlRLDJ5KvvlwnHJmtpTk7g7KXrePLUVKu/b/8huwm3GeXWnQeYMe9XFKvXHRO++tGyPSaheqXSWP/DVMyf9iGC86av4d6xU7b5FnJp+zkASeTCXpWIdEukfPnyaNLEvm/N7dvh4pG1aVJ2IE0kdQXu0RHwOX0AAWuWIWjaJOSdzwTmkXBo0vFWJO+L2M4T8fTkZiSPctzPRSDiIZT3HkMR0gL62WsRv3cJnrQOtdkKsaB6cgVK+hN6+sDgpjQ5czIhKO/M+XyRiougoBzSY+cFJ9eKi507d4pHqfEo7nxWvTMkZ3RLxEy1TuJBaih6QZbgCi4ucgxR0VQDaOLQcevQfWY4eS4Mo79YgKqtBzBxsQJ6Q+rAsYfGHZM+HIS/f5+D5umoDjETGRWDqzfviiORnCgu7pwGYi19duxZflMypxlHWyKENHJhWx2Q1aSvYkQLz/sR8IqWuuZo4b13GfKOGYTg6vkRWLYKvNt0g+b9sVDPWQDV5FHQ/HYc6gwkMiQXqIWo0UsQdeEoElbOh254LxhrSkILJarD2G0A9KMnImXpZsQdWoHIno0Qxx4ijXpQiWrgT0zk7D0O33PH4f3HSijvsMf4+UCnpP4gFN3zg7FIcI7KtyCkfaeyKxcnt5NrxcXu3dTaWB5NcfkS0IxAFSJknpUpqnUUD+R5d9TnUKqyJ4TLSZun0ZY99E27DuHKdeu9/PSy++AJvP3xl2jWYzgWrzDl2cjRvX0zQVR8MKibeCb9HLXdEiHyW3tJ5AgkWyJEcZkS1PAog+DMacbRlgghFRfBwcHiUfaQHnHhtXcWfKtXgW/ZrvA/YjG4Utw/BtVPW9i9eCIwP/QlS0AfYtqTMJLtdiYiAsl5QhHbvAsix32LiC2XLdUbh/5CxPfT8XjUUDxpW0vYApHLLFLfPgC3MUzkvNEeXi3bQzNtN+BfGLq8ntAp2PPX03e5sweyY9O35BikkYvsfm/kVnKtuNizRz6rXu0fAre8rttjTs7MlogZquWval9gHDxyEnN+XJ2lDbE4zvM0xhK5SEnRYfWf7CKaTnYfOIFPv/oRjbv+D13f+RRrt/wjfiU1lLS7av7n+GHmaJQvnbn3Lv27VlDFkh2n2OeKZEukgK8CHjIfM2nUonjx4ukSF9m9OnVWXGhubIH3RLLAZoSUERp1meJXGuhLV4axbRd2ExO4fYKQnD8v9B50GS8NQ+nnW4GhjIwWhIMVbklQ3Q6Hz91HUGvpN3kM5Yej4D9/PQJOhAmmXzlBaEjFRYECzidHc+yTK8XF8ePH7frDuxd1vmTPGbSZ3RIxU/ctwEF0Yvy077D3X9eF4DkZp12LBuKRiW8Wr8aC5Rusyztl2LTrIN795CuUbfIWur77Kb5ftg5nLqZuUmfGLCro5io/k827rMtnUaiSeJCDSIgC7lAbTRN2t0Qk+RblypWHIo1eLlJxkSdP9u6rOyMu3G/vhs/4QVBeEk9UrQx9HovbZWLNoYhYOh9PJwyEkSqHtSlQ6FOgTCCxW8apBmZZSULzMXh08xZijokeHKOHwljRC8r796C6fo2JDNGtNMaUNKpp9wp8fj1LsYznCrmoHjpk+VyUL89bJLiCXCku9u3bJx6lRhMqGs64AOp+6nQvkbTwZhe7Kq+Lg9To9Qa8OWQczl6+JZ7JPNQV88IV9vOyqMFWboV6upQrZR1BGDtjEUo26onOb4/DoI9mYPQX84WkzP4jp6He60MQUOE19Bk+Fb9v2oOHMlUfUrJCVBDnLl9PXXFS2LVi2yXcPgVIvELkxEVEnBH3YiyRC43G8RRFiw1pUmVgYPqSYDNLWuKCPCT8B78FNQVczb9KOfltDuWTcID0hLsKRn0SlJRRWbMydBIh8rwwUklsEdGDY9RERKw+ishblxG3ay20c6dDN6gLjM860z//aAuxa5f1FnqfPn3EI05myJXi4uBBagUsj6ZwRfEo87hMWJhpOMAkMuwQF5+A1weMFkyQMsP2vUfR873Pkb96RzToNAT3o5Kh0vCeI+mB3FFt0TKx9vehk1i3dS8Wr9gkJGVu2L4fl646JwizSlSY+etv6541AgVd93lwGZItERW7QhXyTy1+pVELIi27ZmnUgggICBCPsgc5caGJCIPf3vUIGt/N5CHxnz8MZSsjuQiZ+1Fn0FDBxdIaLVThV0zGVJ4egC4RCipcKl8a+hz6EdZp/BFfqRGedh+ASCa6I46R7fdRJGycBW2155/cuX27xTumceMm2f7eyK3kSnEhDXFJoSZlSi/XFVi7bEvEjJsn0Hy4OJCH+o7U7zgUs39cI55JH31HfIE3hk7ENslEs+/wCaiZuJBrHc6Rh7xFShUrJI4yTv2aFTHpw4E4smlRlokKM3/t+Vc8EiF/C5veHTkCJ7ZEbkryLYijR49aWXvbcuPGdfHIRHYZaJkxGo3C7Rm6CHguHAjPN4ZBvYQthlSB0FcqiYS8HlAkkhkEEyM3DsDrRBi8n0iWMWRMdYNKar1h8FBDkcTEBRsZy+e88k5HaINDEVu3FmLZWup5RltoS2Tbtm3iCOjUyX7lHid95Dpxce7cOTx5Ih92di9YTjzKPPSBSHcvEWco1Qio2kEc2Ofzb5filS7v4aitZ4Edbt5+IFQj/LkjdVQnwN9k/cwTRp0nf748mDr6HXHkPCWLFhSqPmaMHYLdq2fjr1++FoRK2ZKh4iOyBtoO+e+cxUpboJDrtghdRsRVINISmZNrsW7bqMzMv//aiCcJly9bfveyZZ9PdYxBUlqs1D6E6iq5V4roo6C69xRuKTooxEWL4ttRpryECkUR1HYsAm5ooaIuoxePC94RRnf2c4Q8n9IwFM9ZdtovCpT4bzY48/Pzw6BBg4RjTuZRaLXJz3ubzqUsXboUQ4cOEUfWBLYdCc9ybPJ2AbSWiDRmYRzyt/fZjOCccKhbvQL6dG2Dlq/UEiY9KeRrsOz3rfh64W9CjoUtQXkCcPnfzfD28hTG2hjyFshVb4kshfIq5PD00MDH2ws+7HX18Tbdypcqmm7DK1fx85pt+GDid+JI5LWxQLkW4iCH8N96YO98cQC818AN/h7W2yKn7xuw5WJqt6gpU6Zi9OjR4siagQMHYMWKFcJx27Zt8d577wnH2Qm1gZe2eScjLM3Vs1Af3AK3aSuhKFIRScEpcD97BUrbj2qFEUhaNQbx+t0I6P4WVJHFkFw6EMrrJ6FO6IKUHbMQVer551y8aDRq1AhXr1JnNXpftMMff9jvos1JH7lOXAwbNgxLlvwojqwJGbQAKn/X1DDHQoNYYxZuIyRGA6uYwHiavta/eQL8UKxwfnh6avAg4gmu3bIxTLJh1Q9foeNrzcURkBwXCaOBr4FyGx0GjMH+I6fFkcjbKwHfHFbTv+lz4KopuhboqcDQ+qnN4zae1+H8w9SRi44dO+H3338XR9Y0atTwmWMvCQsSGNlNpUqVoNHYRge18P11GLw+2gJj2erQuj+C5uwdKNoOha4SoDx1AModZ4Hu8xH/dRfoLi2AX5tJUBQsj6RCTKBcugglEx7azxpByUSK+t/jUOxhj2/SBfrmLZHSogXiS/k71XPkZYOExNChQ8UR0KVLF/z22ypxxMksuW5b5L//bOr4Rcju21XCgkgxZsGWiBTaC+8yE/BJXz0+2VJT+PvgsbNpCotPhg+yEhaEox4mLxP0OijVGqjcPYVkV7WHL9y8/OHmHQid0gtRiUD440RcuBWJI+fCceTsDRw+fQ2HToXh0H+XcOiEjFnVc+LO/YjUwoJERU4TFlQhIjHPcqZRmRR7n33i8uXL4hFQpMizcoVsxSrnQkShi4bqIuWY+JlyKBIph8IXxg4DECtpsR4zqR2SNFqoroeZciy8PWBMYY+lqpEjs6Fp1w1u05aZhAWxdz1UE4fBo1FXBK45Cw+uLlKxYcMG8cjE4cOH00wM5jhPrhIXtHdGbdblcAspKR65hhRXV4rI4Z8f6DGbTQKuTz777KOh+Hz0MHFkwVEH1twMiQlKaFV7+sLdJ0i4RUQnYdPuo8KW0tsffoFGHQYiX7mmyFuuCYrXfA1VGndBg9d6o02PwWjzxjC89ub/0LbXcLTtPZIJPMtkNm3eSoyauhhzlm/Bhj0ncPVOFNyYeFRrfJiAobrD1NUQruT3TX+LRxJKWnt15Ahu/QckmXq2EHL9RGwblUmhihCpjbMZOhcTY/m5z8skSZpzYUYZHw7VpXD2WfeCwU0PZQIlc1aFvoTFs+JZx1NK5hSEiHUyZyp8g6AvVxnayiVg8DoH5fuT4H06OjuuWC8M//33n1WVCHH//n38+qv8Nicn/eSqmeTMmTOyqwPCLbiEeJR5yO5bn8UTwjNIYLw5z6Ulg8Pf7Y2xI94WRza8ZJELhUotRCVITKg9/fDP4TMYP/171GvTC6Vqt0WvwaMx6asFWPXHXzh59hISEp3rfurnY8nH2XPgBJau/AOfzfge/f/3KWq17oWyDTvjg89m4e+jF+DOJoOsrNT5baOMFX6J+uJBDsKmxXqxwNSXJ2mjMjnoGmDLlSsWoefl5fXcekfIiQvVEyYuSC+ombhQkCEWe3+VqAx9cGpDLEuXUTGZM0Hayr00jJ17wdihERAbyQTLPSYmApBcnFqHH4B6zQFo7HUYgxbeR7Yg6NuxCH7jFYTkL4qQjm8h3+QFCNx7Nse4aLoSaW6FdKtq5cqVLm8y97KSq8QFVYrYg8pQXUWme4mkF/K+eOM7oG5v8UTGqV+7Kr78bKQ4Ss3LErl4JirYa3vj7iPM+O5H1GzRA+17DcOsBctx+rxlQsoIfr4WcSG1Czdz595DLFmxHh17v48WXd7GhRsPhOdiimS4DmqGFnbjjjgScfcCirq2eZ9LkGyJFGXCgjwubJFafsshdw3ICZUihFKZ+hdSk2dFDGD08oRRnwAl6YWKpaGXaZSsirkC5Xl24O4JgyoZqniKclSGYdIKJFzYj0cLvkXED2sRu24MjGACI4L9MK9A6KkY7NhxqKPpp1jjeY6JiqEt4dNxENQzl0GxlypYmAo5shvK+ZPg/kYr+JbshqA/cs/Wyt27d63ERePGjcUj4OLFC5g2bZo44mSGXDWTXLhAnzx5XNtP5Dmt7hv0BwYsz9Sq8/U2zcQjeV6GnAvKo6CJfOf+Exj0wWeCqKDoxIXL9q2400uAn494xBaSMi3TpRw+dhp1W7+JERO+gk5pyvFwFavkohbFaosHOYiYh8B9S56K3JaIbaMyOeSuAVeuWMRFiRKui2CmF7XadmNCC9UNCluwlbM3E5XJiVCwCdxeS3LVvTAoyI+NCRGDIUloX47mXZDUs4WVX0Ry+VowkKt7cjK7wKuFKAceR1P2viQCoYX3ntnwbclExR+SklhZDkA19C34rTpLz/SFZ+7cuXj8+LFwXLNmTYwYMUJItjUzd+4cu9vrHOfJVeLi4kWzKb81CrZSc2UyZ6ZbrGeGgIJAxylA/5/YoqUdwFbf6cHDw/HlIbeLC4pW3I6IwXufTEXnfh9g5bot7BpsZxM/ExQKsZQEy5UAy7F4+Vq80q4Pbt6LFLZo2F/D9IVMsHqTTAO/kg3FgxzE7ZPigYkSMl1QraIWdraRLl5MXb4t3RYpWtR1i4z0Ii1DJRTaaKgukbhgYkFM5gQlc5IhVqpLjBbq66IzpzmZk9JISpdJ5cwpiAgKlimUTHAYoKDdGF/2uVdbSlU9jyyFd68Z1u+w7iOQsnQtEresRfIosUTZIwj64gXZ90VA8dEM+Jx4sXM3du/ejZ9+YtdOEbNpltQ8i8zYpk/n0YvMkqvEhfQiIsUtqLB4lHko10KXE162QPY7tRwJDP3DlPRZ500guJT4Rfs8fCTf0M2MIC5yaa8RjV+w0NK8RedBWLoi6+rZyeMitGCIOErfy3n+8jUhirHrwAm4eZMNccb/FsvXbsPTGOm+vEjxrHMBzTCSLRFPNgcH+6T+va2qRCgXSQZplMLMP/9YOs4WLEg5CNmPSqVi7wPr30lI5rwYwRYMXjCo9VDF09+qqrwhlo5N6kIypy8MGjWUSQkmoSEjRJQRTIRQhMPDDUZjsinCERICg5fwZagjDsBr6iSrd5Zx9ArEfj0GT9o2QkzNRng6aj4SP2MCIykSSnU+JFeg12031D9tgQftxrygfP/99+IR8Oqrr6JGjRrCcf369a22R6iS5JdflosjTkbINeKCvPuvX7e2+DWjzpN5m2YzLmmx7mqos2XDQcBbC4Eh6xxGMy6F3RCP7KNUvshrE3koYXPc1O8wasJM3H9IRmFZR4nQglaNtPwl+RfOQEmj3QeMwra//4WbEMHIGF8t/E08klCiHlNZrtt2cRl3aeI0IefKaduoDCHlxQNrqCpEWk544MD+Z7bglLhXvrz892U1tlELQv3kClRUPav2hEGhhSKeqYDSlMypEdusW1CRo+elMMCbCRENVZXQ71QL+uK2vTkowiGWq3p6wKhnP5c0S/HS0AvBHi0896yEmiw/fC3W74pT6+D95WwE/bEbfpfCodH7Q9u4pRDpUMQnw+AfAh3lwa7ZDffb0u2VF4f58+cL5aaEr68vOnfuLByb6dixo3hk4vPPP8etW65rFPmykWvEhT1hQagDXFd6lu3JnOmF/DEc+Becv2Ryo3MEJTvmJty8AvDemOmYtdDxSqR4kQJCb4/hA7thwoj++GL0O/h6wnuYO2UEfpg5Gstnj8fqBZOwYck0bP75S7u3L8dbO8SOeLs7Xm1WV/j5SqVzl+UUnQ493/4Iuw6eyFAOxqqNu3H7HlsV21LW2tckR3DvPBB9XxzI+1vcjJJMt4WqAAXsW/lfv27JndmxY4d4BNSt+/wiNnLiQnU33JRjQdsc1N2UtjIqlYZOpt0LVZUoKSWFkjmVTFxQlKNwGegLelgLESpXDaPojRcTFyootEkmoSHmcaiir8B9/Xr2IQ+EPp83nu3w7lgP5fwZUA99C55N68C/aH4EjJhlERFKDfT+5C57Gqrw6Jx+FUzFyZMn8e2334ojCMKicGHriHa5cuUwYMAAcQTcuXMHEyZ8Ko446SXXiIsbN+yvyFUB8iHUjKAzvgAvmQNfjLDrt9Isp1TkosiFUuWGoZ9Mx7KVlm2QkHx50KnNKxg9tBeWfD0G+9fPQ8TpTTi5fanQPGzyR4Pw4btv4L3+XfD2m+0Fa3XqB/J660Zo06QOmtavjka1qzi8SRnQoy1Wzftc+Pl3jq3H7wsnY0jvjihWxPH7kgRGn6Fj8PBJXLpzYb5eJBO1IHKiv8Uda4OvYoGpBdiNJ5KoRWh1U+6RHaTXAqmXQbVq1cSj7EcumVMZQQ3IGB7uMKaY8n6MxUOhZ39qlTYaXpKGZUIyJ1l4eHvCSMmcVLlRoTL0Nm3WqVxVFXacHTAR4q4SfTMsvUfUt49DtY8dBOcxRUscVYCcE8WpkYmZFPbdQvnOIyjiTYLlRYIqQOLiTFuEJUuWTBW1MNOtWzc0adJEHAGrV6/GsmXLxBEnPeQaceEofKX2t+x/Z5YckW+RFgGOt4GOn7JfVUO4Mqlz8y75DrXZxYYdB7F89Z+oWaU8Rr7bU4gsXN67Aj/NGodx7/dB17ZNULlcCbi7ZY+g8vL0QOvGtTFj3BCc2r4MW5d/hR5MuNj792Ni49Hvf+PZwtFSfZIW1Ob96k0Zd9YKrdkSOgst6zOKZEskxEcBL3frqStWa7SOXJC48LcfjTRfCyj/Qpr1X6FCBfEo+5GLXFDipRBhoGiWeFlRREdDxQSA//j28KWGZVUGIehEBNzCzpoiEF6SZM5SpaG3yc9WxVAeBzvw8YZBza5WCRQOKQODYMqlhdvFY6af48f+XT0pC/YzVh5F7Mn9SFy9BMlfjIG+p02/mftXoDl6DJorlK+VzxRpMX3lhYCExf79+4Vjd3d3vP3228K9PSh6IY1qTJkyGZcvyxcLcOyTa8QFufPZQ+XnOodL/YsQEMznOLFz117TvqM9XOm18MPKTTh+JnOeERklPiERf2z9G+sWT8XuVd9i4oh+qaIKGYE6jJ46H4Zt/xzBT7//JTQvW7Z6K7buOYwT7He9fT8CySmOloQWGtSqhMUzR+PqgVWYPmawsHViy8EjJzFr0UqnjLbIRG7G93ZcBmt0FQ9yEFq2spZafudNfUm6+cQIvVlb5AkFClYCfO0vGMzXgr//tjiTlilTRsb2OxnFwy6h8q0oFHSuoCfDpJ7MNNAH0/ZlApQxTCy4+8NAuw5LBsG7fnu4/SqWhzZvgeTS7DN5jl4jXxg8HSdzqiiZk3Y+vT1hMCYxccGO61aGLh9FONj4EUUjvGHUsG8UNBx7T6k8kFygNGKatEPUoBF4PHsFHj54gKdnjiJh3Qokz2CCo3c7GIUCqGIwhKTOCcmp/PXXX5gzZ444AgYPHiw0kHMEteOXbo+QL0afPn3EEcdZco24uHvXxihIRMEmSqWXzCZmBtCzl+uFUOxpVI1s33NQPLKPqwQGhf77jpgqrMCzm/iEJCz75hO0aJRxw6i9/57C2BmL0LT7cJRr8hYCKrwm3NO457DPMeLzOUxcrMDISXPR63+T0aLnCFRu0Q/BVTsIjx085mv8+NtmPH4i42AkgUy3hvbthGNbf8CcyR+gYIi1i+TkrxfgwjXKSxBmBLus27oXl66J4XYp5PCaz7UW+C4h/ASgs1hHlpQtQZVGLUzZ/UIJjp3cIpoMCKm4qF69unhkQZP4EPnXfogiw3qjWufOeHXqAjTdsAO1z1xDmahkOB8rShtv79R5M8m1ukJHEfi7F+ERHgtjSAkYqEDITNU3oO/VGPp7B+B2gAkmbyYu2MdSIWxr1oI+1NbFU9J7hCIc7HUVkjnLl4aO/nmmdxVx9L3sOqZWCzfgFhRPmOhgR7Zog0MR27AFovozwfH1EkRcYILjwhLEVWRCSHxMToZs36WGWNSYjCpEnKFevXp46623xBFw+vRptGiRwzoI53ByjbggX3g5qGGZq3ghtkSIvMUdVoycuXAFDyJMJjL2cJW4qFyuJO49eIz3Pp0lnsk+MtLenAQJbeWMmvw9qrcZiI4Dx2LB8g1CpIIiFull9Z+78dGUeWj+xgdClCMt1CoV+nZ7Ff9tW4JJHw5EgL/p76jT6dHv/fEwqhz/XT77Zol4ZEP1LuJBDkOyJUK7A0UCrMWTjs1iFLl4RhGJSLDT1I+uBY8ePcLu3RYDMbkqEa/4B/C6KQ6QDOXhzfD64TvkGzscpXp3RuN3xqHVD6tRf++xTEc3PD09xSMLujy1EDdpvsnw6uFNqC9dh/Kp6WvGvp/AELIaqtdrwbfpMCivsnP5AqFz00ORzF4UVQiMQTLJnEK5qpjMmRRvEhrlykAvRjieJXAyVaJnYsWIGCiPnIWbXWtwE16nD8DvthYpefyhtYmW5FS++OILhIWZIkCUzDto0CDh2Fl69eqFrl0t0T6qPHr77fT9jJcZ1YQJEz4Xj19ovvnm62eua1LUQUXgVck1GfKUXqVF6r3THMmja0DksytnKsqWKo7qle1n3BOGFMeJn87goXHHklVbcOX6bWE1XrVC2l4czwPKU5j14xqMmbYQv6zfLthmy3pESChZtCDq1aiAdi3qo1mD6mhUp4rVzcfbC/mDg6BSKnHrzgNhG2Xvv6eFnAtvr9STjRS1WsV+dkX07/EaDAajIG7Io8TH1xd1q5YRH2UNlZ5u3S2z5UURi2b/Ewc5jANMDCVECYel8ipRMcRawF+PNODkPXEKpUooNtFCJX4GbxwBnqSO0lAPj3z5grFxo6nrZZ48eYQwt+3WRJJXIWjr1ANC/eB16TwUWl8YypSELq8fe+OyyfnpDajOnobnwX/gv2U7goKLIWTXDyh/+BoKR8UgSKeCBxMNye4qOLJhI2EREiK/jaPPWx4p7Tuy2a82jE1awNCuB1I+mYrEpgq4LV4P5TM9y35n9j9VkhbKmMdMOIRBdSgMHtp4aGLY+WAmNrRh8Pr9ayjD/aEvwBZVsQ+heloGhncGILEYEyJMvblf2wu3Heeg8A9Bir8GqoSHTFQ9gbJZG6QUthErIu73d8Png55w38yugHXrM4GhzvER3KVLlwpOnARth3300Ufw8Ul/LIoiXhQBMScJU++axMQEtGjRUhhz7KPQapNfpNwcuxQsWACRkakNojzL1Edg+4/EUeaIhgfijS+IAe5FtmrbNkMcpKZdq8ZYu8xxNCE59jGMRrnLTfqo12Hws1D9sS0/oHRx15maZQbaqiBR8ev6HcLkLQcZYpUpUcT6Vtx0r5JrfmEHysX4ffMe7Nx/HNdv3cOFv39JtfXhiAcRkZgxf6Ww7XFi+1IEB1r7X9DXq706EElJMsvrXvOBEHlB8lwhYfDzQHEAvFpWjRqFrF/TnWF6HLstBv/LNgXaSkoDd3/HrvabxIE1jRs3xr59VBZhqgCQ7qGnJhlldn6HUrP/gbFMdcSHeEKR8Bie569A+UxfV0XcZ+2h/PULeNlWvRetDW2t8kgoWQJxxUIRWSAED5iOMX9ygoKCUKxYMXHkPJqIcLiHnYXbubNQHT8A5abj4lccYyxSHklFfKC+fQFut6tDt30JoqqatjI0p5fBv81YKIJKQFs2GIbocHicvwdFjaHQzhuDmOLW+RSq+DD4TXwL7r/S59cPxrm78LR7KHvFci5Udtq9e3ehOoT6uUyaNOmZWVZGoVwNKk01069fPyxYsFAwR+PIkyvEBSWx2bO19q7aBv4t3hVHmeOJ0RtJL4r5Le1jL+5hSpiTgSIK9y/sFe7tkZIYDUNKGvFSJ6Ckzo+nsgmOUb50MRzeuEA4fp5QEiZtU9huddSsXBY1Kpd5dk8iwtWQoCGR8Mt36a+hD7/7EDduP0CTelXFMyaGjP1a8LZIRcVXgdauEdcu59RG4G/T6pIYUs8Nebyst0V+OJKCR/HiJarlKKByW9Mxcfhn4N9fxIF9Zs6ciYoVHXcVLnh+NaqMXg5l4fJslR8IReQ1eFx8iJQhc3C2LXsPxMfDLfkhCm/ZBP/f/7FskAb6A0+j2UVIHJup1RoJdZriTquqSCpR2G7kIj0odWx5czMM7hevQHX2OFR7V0JhXcVrIm9+GHw9YIx7ANUjpo56jkFKk8rQ1WqExDzh8B3TEm5r3KGvVA6JAYD73atwvxEFFGgB/YcDkVyvMpLzAW4ndkEzbxRU5hStckyA/DYR0QVS/7o5CRIW5uqQoUOHon379sJxZiGL8BSxZJho2rQppk2bLvQn4aQmV4gLilhQ5EIO37rd4NvwTXGUOSKMvi9O3gWxZw5w+k9xkJpVP3yFjq/Z3zLSJydCl5S6o2d6oWTOUPZ3MPPxkDcxfnhfcZS9UILmVwt+w4FjpgqFOtXKo3Hdqmhcr5pwn13s2HdMaG5G/35moWhI98ETxJEENRPcA9nkS111cyJbpgBX9gqH/h4KvNfAesvxTrQRy09INhzod5GWoJ78A/hnnjiQp2rVqk51uQx6eAjVRn8BjVFc0T+9Cc8LD5Dy/kKcerUIpJ6ufjHXUOWHifDbo4WBiZaEPG5QsM+J5s51qO9LxHzzj3Hl/aZQVCwNPz8/uN8/AJ8/zgJFykBXvDS7hSLJ2xLhyAju0RHs5z6E8l441JeY4DiwC8o9clE4Kjldh6fNg+G+dwZ83pgNhU9+6MoWQ4KnAR4Pw+EW9sBBurA/jLM3I7pnaWR+uZF1jB49GsuXm8zyXn/9dSHi4Eoob4O2SaSQZ8Ybb/S0653xsvICzZT2iY62n4mv8HCd1fELJSyImt3FA3lWb7AYDMnhqqROqoQY0sfSGIhyA/YdkVtyZS2zf1yD0VPnC9GIpd+MweV9K7Fj5bf49IN+2SosCMq7qFS2uDjKHJQwKkvDgTlXWBCSEtRSMl1QrbwtKJHT1tvCI+099EaNGolHjkn0yYMU8uUip0w9W5m7uwurc9XjJ/CwLsnAfVV+XGr+GhMFCVA+jYOKPdBo0EL1iAmLEq0RN2wo4jo1hbZcEegDvARhQaiv7Ibb5Elwe+cteLasA9+S+ZGvUTcEj5+BoF/XI+DgWfjcj0Z6PnXJ/sGIK1cZMc3b4cmwiXi0cj8e37qMuF2boZ07HbpBXWCkt5m6DAxidUkie18kj6oFxD2AOuwmvGJ1SAkpgYQ61ZFckQmfEoVhKBACo/TS2X86EjvkbGExa9asZ8KCqj1cLSyIJUuWWHVQJah9e8+eb6BBg/pC2WtEhIwz7ktIrohckFFO3bp1xJE1Aa2HwatS5kuIqAz1oTF9HUhzBJLVoRwPL+4TJn97pCQ8hUGX+R3WJ09jUK3NwGclqSF5A3FwwwLkzeOaMmFHUGLmbxt2oWHtyqhSPgeWY2aCaXN/wcwFK8WRBEri7L1IHORAwv8D1o0WB0CPKmohoVPKr/+lIPypeHkioVSnl+nYzLVDwJ+fiYPUeHh4CP0knNmSUCY/RO357yNopwd0NdgkqnwCr9NXoHjlY1x9vymuSGZ8MueqlS8aNcZ8Dq/4YkguVxApSffgdfImFD2m4WzvqrgtbsUXKlQI+fOTE6sWPn98Du+habk9toBu11JEVXKtl4SGFmDelkoPVXw4fBeNhWamuJXm5gtjkD8MXuwX1TGBFXXP1FkVwTCOm4WEQS0Q57p1mstZtWqV0DqdqFy5Mj799NMMJXA6CyWLbtu2TRxZQz1syISrcOEiKFKkMEJDQ1GsWHEUL14Mjx49FiqZHj9+hP/++0+4UXXThAkT2HOWiT6+wOSKyIXZ1lUOhYscCUlcvJDYXpBt+HObxQtADiWF1l1AngA/jH2vtzhiouZxFAZ8OF0cZR2JSVph+4E8JHKbsCAXTllhQTRwlMCYA7Cx/A4NtP58RSYYLcKCMPtbSHF3XHHTrFkzp3MdDO4+SChIlUzJTGjoYVS7QcjdvvsQGknR1M6dOwVDLq1HHujICDeFrLiZDFCIzz+Rfb/pSOiCGhhoLofWIK7zdEReO4OE5RNhpGBGnsLQlaF25hLYz5ZrXGbG68gCBDd6BcEjFsAvHZXRWn/rElK9dyiejlqK2C3zoetZi/0esVA8uAPV9etQhZOw0MA4eDq0B/bjyfCcLSz27t0rbIcQxYsXF0RGVgoL4v3338d3330n65uh1Wpx7do19rz+wa+//ipsy7377jto1aoVevV6Ex98MBxTpkzBli1bnlko/PDDD3jyJP2l7jmZXCEuEhLIhk4ehZtrJkdqtf5CQivYim3EQWp+WmUq17OHK906aYKnEk0z+4+cxnvjs9b/gqo9civvjp4pHtlAf3PqfpqTkWyJkLeFu03S/U1pe/W8JYD8MmXTaSwcateuLR45gxsSBSHCJlmtjmkFdxjoxz98AK84k2A4evQoSpRgz4WR4p4H2mD2+LhEKMk+VKmGkbROTBQ0YqCPhAWtYqXovIORXJD9YLLvfnIH6itsIkcojKPnQ7t8CZI/7wKtnZ0st/u74TV5EhRXw6BYtRtutzPbQEyDhJpdEDl7M55cPooEsv+euwTajfsRe/kKHk8agKel/Ml7K8dCUSQSFtQVm5w1SViYIkVZT6lSpZ6JDEr2LF26tPiV9EO5QVQynZvIFeJCq7Xvx0AOna7ghY1cEI2HmDwCZCBr6XMOOqVSnxFXCgxqFBYkKaNc8ccOfL9snTjiOMt3S9bgv3PU/VKGWj3EgxxKPFuhScyz5LugSqMWqd01BVT2hSNd+NPXBdUdCVRlwY4USUxMKJhY8GBq4Wk4NDEpUOt0OHDggND0ijCo2OPF7Q5FEpt+1WRCwYYPHkAj5qAGBEjtNk0otOHw/G2pZKlSBIa5KxA9qguetm6HqOaVkShTkEbf571whqlFu8AxqK64rjtpin8oYsn+u3s7PK1bGgn+Od/iOzY2VhAW1EuGvERGjhwp/N2zG/o333nnHcyePRs//vijIHAaNmz4zHKeSpG9vLyEx5KAML+HzLzyyiuYO/d7cZR7yCXiwn5OgMJsuJNJXmhxQW6dJDDssOin38UjeVy1NUJQrsWiLz8WRyY+/epHbPv7iDjipEXYjTuY+M1ScSRDyYbiQQ6FLL8lFLex/E5gk/MNaeTCrriw/9mmi3t60QaGQE+6NykJCqMKBg8KXTyA2+M4DGMT16hRo4THET4xtxEkJCWzx2r17EPiDgNFLu49FCIdvt7eki0RCx7ntsB9iaSao//nSHg9rURJLbz/nA3NIibIQoohpUJhGEnUXAxnokd8iBN4XjoOv3Ph8GL/2Asah7Xik08+wb///isck7Cg1f/zpkCBAsL2x7hx44QE04ULFwpJpmvWrBG2QSiaRlsmZho3boJdu3ajaNGi4pncQ64QFzq2qrCLizp86o0v+MexQiv2zpfvCrli7WZEx9gvOXVl5IJo2agWhvWzLtui/Itzl23diTi2JDEh3Wf4FHEkQ2CRNLcLnjuSLREPtkov4Gv92aItkWRzhQZVuxSxY4Bk57NNK8XmzdPvypvokx9aqhjRaaFk2sagIbXwFJ9tXYnh/fsLjzERj6J718FH/DUUlGehcIORKtNiHwiRjoIyuR6q6LPwmjfJMrF7tUNK/5ZITEO7a86tg9fElezxeaErFAwtEy5GWghfOguVky17FLoIaH4baapSKZofwW8MQ945yxC45zh870e/KL7Dz6CchfXr1wvHw4cPz5CYzApoe8Ye9Hy3b7dU6JE/BuXw5FZyhbggu197KMyJVpnEkBteKjsW0JT0uHj5WnGUGtoaUaWRPJdepn3yrmBUZYaeQ+dB43HztnUNOceaCV/9KN+YzIw2874kWU6aWyLSqAUTFvbErZ3Pdrt27ZA3r/Pup2ZSPAKZuGDTbHQilCkkLtxxlJ3//txetKhmMUrKd+sgCq4+JI4YWhIjSjHScRuaRKVM1EILr00LoN4qDhnGT4YioZTj7Qf1k+Pw+XYUFJTrl/AYqtgUKNTUO4SNz4dBHaN1KgqhjH8IldhnQ2DveqimjYV7r/bwql4WeUq2R/CYGQhatQX+58LhmYOjG7T1MG+eqfx64MCBaNPGfk5ZdkFN8s6dO2e3lfuePXuEMlYzvr5+OHTIcXfqF51cUYq6cuUKu/a+MxfWQOlymS8h9Q2MhUptU/D+AjJm6A0c2UfZZNbky5sH4afsq2ijXodk2it3IWS/TQ29yHXSTInQgoL3RHaUqL5oUEt36ryaFp/ODEWLdulv2pYdXLmQiMHdLbkir1dQo1J+i0igi9H8QymITjJdlj75oghe7SSf6PbgbjLebH1RHJnw9/cXwtEZcsTUx6Pab5+h4G/3oK9cDg/dolDlZBge1xmKWx+3x3k2oZNLZ40fxyJoi+U9i4CCSCkbCl08m5TP3YNxzFrEjGgEaSaY5up6+L05DEpTN3ig8RgkLRyBaAc5fBRt8JszDB4zD4hnGAXLI7G4L1S3L8I9vCj069bhaUPnki41EWHQnDoLtz0rof7J9DONQSTCmGCJtPUKCoaxey/omzdCcrUySC4SnCMaltHWgrkBWY8ePQQb7ufJwYMHhY6pFDmxty1DouOzzz4TqkjMUMSCtkRyM7lCXPz222/o31/+TbZhbV5Ur5r5sH6BkAi4ueXkvGnnWLcB6GbHsHTRNxPR943XxVFqyK2TXDtdCeUPtHpzpFWTMGpu9tcvX8HLM4eH97ORG7fvo3HX/yE2zn5llBlfpqWP7APKO+5L91z46ltg9HhxwHi/oRt8NZY1MuVa/HbK9DmjjuDXmXYoYqcVzfUbQEmbnT5qk03dLDOGpMdI2RoIuHoaF7z1KOTbBQ++HIT/mF4rfnwJyk80heMtBEJXoyy0iIDXf9eh6L8EsVPbIUGcjCkZ03/yW9A8y7WoCf3qZXjaJNiBKNDCa88s+PSabR1ByBOK5DIFYYi+IdiTG2fsR3T/9Jlb0fMJGN8e7r+mCM87wTMZXmGnoI5wFEOpBcOkoUjq3hJxeTTPxf6bPCF69+4tlGy2bdsW7733nviV7Ofy5cvCvEMlr9QUzR5RUVGCsLh+3bLl++2337LnnkMbCbqQXBDrp4uQ/bwKtuB2CQrFC6/BBFo2Ew9k+Op7xwY/KjfXbo0Q1MRs7eKp4sjE6QtX8db7DvIKXjKoGdmb701ySlgQsbFA207AnbviiRzEPskiPJ+PwkpYENIqkRbsvWpPWBC2qVaUkd+kSWZWg+5iOSow9n44lpQphhBPN+DubWhikhEYdRpF1tkKC0IneGOQ3bqQCxEebpUL4XlwmURYMAaPQkI9R8KCPZMbu+A92UZYEE/jhS0bvae3MMErLl2BKj3Kwgz1HlKyyz/7B5SUYxLvQFj4UeT3OJQTB8Gr3UgEnojO9g5L5AdBkzgJi8aNGz9XYUHRCkrYbNCggUNhQSxatMhKWHz88ccvhbAgcoW4cHOzH5lI0blGFOQWceHvYLfh6o1wbNgq0/xKRKFSuzz3gqhVpSzWLLIWE38fYqsUR4mLLxHvjvkKl67eEkfOcZM9/JUWwG1LI8fnDkWFpeKilEy+hbRKhMSFI05Z8kIFOnToIDhiZoakPPlBbfU0eiPaBwaJeRSPoXn0EIX3/vEsiZPQDfkGtz5szY5M3hjswwEjPfwaExeiDlRHHIDXd5JGfSUGQNu/kcMkTupE6v3dJCgviScYxmHzkTy6EWBIhjKJCRkm9AV77jNhUDuZ1GlGmRQB5e1oJhqYGGIqQZGSCAX9DIq43HmAhw8eIPrYZiQPF52Nde7QlysLfQj77N9YD7fRs+Fz27lcD1dBk/iFCxeE7qZUJfK82Lhxo2CKRQ3RWremv719yEDL3ECNoIZqU6d+IY5yP7lCXNga1UiRbHNlCkV2fpKykLQmmxnfWZKO5MiK6AXR6pVaWDzTYgdNbN51CK/2/vCZZfjLyOgvFuDPHZIZOR2QwGjc0nSfE9ixi5rYiQNG8TzWH6qHsUY8YDczLZqKB3ZYtUY8YFAiXeaiFiYO3IrFBi9gktpbTNKka8sNeOxdj0I/HDM9iKg5CPeblEBUQak3hjsMGqYubjFxEakVuph6rZoN1bMq67wwjhyIxOIOthXoe9bMgvsqSdJu4zHQDmkHbbXKbMCETEISE/oaGHzcgP/OMgGTvole9YQ9P0pVUXnAoGJ3ifHC9xvLlYFeDEkkFamFqHFLEf/DUBgTIqF6qIW+aHmkFGWrk/MLoJm5Dj7Z9LGk1f7u3btRtmxZoUrkefH1119j8eLFgo9Fy5bsg+UASvCkbRMz5Lkyb56pM/TLQq4QF2SgYo/ERB65kLLM1NfHLqfPX34u0QuiR/tmmPrx2+LIxL//XcCrfT4S7MJfJuITEtHt3QlYvMJ+V1tnMAuMGzfFE8+Rf/aJByJFA6wvP7eeWqIWVasANezYWxAnTgJ/bBQHDOqAmVmvAHJ7/GbpZkykXBVtAhMHbMJ19xCEgHLPDsnFshziujXDLT93aP1CYKCkTPLGYP8ZhGvRTSgiouFxeiU8pkmEYadxSGztOD/Ck32P5xjp1ksL6D4ZgPhgDXShlYVtF0U8Ey5QQ+9NFtenobqevm0K9b0rpuoTL0/oFQYoBYfjCjCUDoZ1yroG8a0HILl/KBD1BKpkNbQFS0CXjymSNcugOR6R5dsjlJz7yy+/CBEpylV4XvTs2VMQDOPHjxd8LBxBWzg///yzOAIKFiyI+fMXCMnGLxO5Qlx4e9s3vk9IcJSk5Dy5QVx8NQuY6ITw/3TaXPFIHopeuKrE15b/DeiKDwZZd3O9cOUmmvUYLiR/vgxQOW6zHh9g14Hj4pnMQdGqBk2B4/+JJ54T0i0RKkG1jQbekuRbNHlFPLDDbMlblHp40D58Zrh9+7ZgxDRi5BCUKF6EiYVkoWeIQaZ9gKFHT9yuGCg4eKcEFIKRNI3gjaGEUUNbtNegPLULngtnSCIKTCS80w4JDuYXN9pCmSbxwYAfjF+PQVxNUzWIPl8o9CS4UuKg0ithYOIAuAPF1fB0OHVqobpEpcBqJlQ0MBhToIyPBQLKQV/Qw0ZcMHGlCYGuZi12FANlInsWak+k5MvHxmehPB+epeKCmpF9+eWXwqRMEYPsghJHpS0lKEmY3EBpO4TyLNKCtkOoOZkZap5n20n1ZSBXiAtfSo+3Q2yca0SBgV04XlQePWaLph7A6HHiiTS4dvM2fvzVviW3EL3QZF0no0kfDsSAHm3FkYl7Dx6jZc8R2PZP7nby/GXddjTsPAxXrptrFu1To0Nf5C9NofK0efAQqN0Q+P05Oa1fv2ktbmxbrJMr5y2Jv0UTB53SN25iF3BLxBldu3ZNZamcHmgiGDJkCD7//HNUqFQdiSFMXJDzJtl6u3lYtx4PbY/IV6viljibB5eqAGMpJkDik0RvDE9TouXMUVBvssQojONGIqGqqeW5HAptBLwXToL6oHiC6D0DCZ0rP4t0GLyZuKhUGohKgDKZCR8PHxiZllFcvAK1k9u/Cl206Hfhw8QJkwbUAZXm0SqVoXOyCoTyUITf8WG0EN3JCshqnXIrVCoVVq6005zPxZABFm19kJ232a6btkCePn0q9BBxxgF069at+Oeff8QRMHbsOLz2mvW17GUhV4gLR+GmmBjXRC5eRHFB3mLzFwHlqpguyOlh/Bff4f5Di/q2hbZGsmp7hPh24v8wqGc7cWQiOjYePYd9jg8mfieYbuUmqCV9z/c+x/sTZgtbImlR9bU3EcKERfUOfRBatb54Nm169gG+ni0OspGdu8QDkaI2XVBJWJhdOamhpaPIxbdzxANGcHCwUJaYUWhF2r9/f6FHhanRmTsSQqhnSDITFymWBmYCIdD27ILrIewcG1HfCP98RWEowgQem+wp0mF0YxO07cei+ggk96yFJLvLfC28d8yCZr7FXAwVB0D7QTvES4SNUe0PXXkSk3FMEJDw8WSCgw3PnIXaSQsaZXw4ExfhQIAHDG5KJogSoSBxUboM9DLrBRIj6nP0vALZ76YyiQpq1MYwejsnRtJLeHi4ICzIF2LduuxRw4cPHxb8Myhx1M/P1PuIIhVhTIjRlptc91NbqMcJRS3MNGzYSBCsLyu5QlzIefibeRr9coqLbTuAyrWA90awiSsD6QqURDnkQ8eGTRS9oChGVkCh7m8++58QxbDl5zXb0KDjUJw4e1k882Lzw8pNqPna2073V6nUsisKljdbYitQsUUXlGvSXhw7xshmg4/HAu9b2mRkC9ItET+NAnm9rSMXVlELJiyCgsSBDXPnW/+sN954I2OGWQxqG0B76X369LFKBk3IF4IUdq9I1FoamBHNe+JenRBEskPqIUHCBmoP6END2ZknUFKkgypGrHZSSkE/ciDi2UPtTcSaS+vg9ZlNGfj5ZdDULorg/PkRkr8VgkdMQtCSdXAXRITOlHdBCaS0NXItDKoI55qYqR4xcXGKHai9YWAfXWVCnLANYywf+iyZU4r71V1w/zWMXWQ9ofdyY6LKAFUCJYD6wFha/nsyCwkL6r9BTpxubllvTE6Rkb/++kvI7TBDLdCp5JSiFYMHDxbPOoaERXS0yYyMIi5Tp77c1W65Qlx4eHjAW0huSs0TaQOkTGAwWF8McypX2HWgNZtnXusIXLA2L0w3O/45hDmLLUrcFsq7UGvodc+614byL776dJg4skCmUi3eGIEZ81aIZ148qNy2bvt38fHU+YiKTtu22ycoBK/0+whFqqRup168ZhNUa+u8edT3C4D6bD69n01u61b5FnlTv1+cybeg5/rNd+KAUb16dadWlHIkJiaiY8eOwh46CQwplKSZQv4a2iSoYiOhfkiRpAaI6dwQt9hcTsKCkvRMaGAoQuKCIUQ63Ji4kMy4/ccisUmwIFbkUEefhc83Y6G4L56Q5SwUqxZAPX4U3CaLyZ7x8VAaVdAL+WYHnO6Qqr57RSg7NXp7icmc9LtVgL64dTInRSx89iyA/9uj2OO9YAgOQTITTaqkaLg9YPKqeHek1DKJMFcyZswYIXFyxowZwuuc1ZCNOEVIJk+2LKR27dqFDRs2CF1tnRUW9PhDhyyW8J9+OoG9t3J4A8EsJleICyJfPvleApGRL0fkgtwK3+oPlK0C7LRf7JFuPpk8C1t3WWq1baGmZmoPeWHnKt7p1UHYJpFjxrxfUalFP/y2wSbunoOhvJHX+nyMzm+Px2UnciuIkJIV0eCtDwSBYY8C5aqjWrve4iht/j0K1KwPnDsvnsgiDrBrrtTQq4RNF9Q70UZEJqQtLmg75JakQrNzZ+vmd85y7949dOvWDZUrVxay/23ReuSBjuwynobD7eJ1NtGyz/87XXG9qDf8rYSFCX1QqGm7IMlUxWEwRzpCuiD5bfuNyWgC91oxwyo3A21HQDdjInSDu8DoqHt4bBxUlOPh5WX6t53qkKqF6iptcbDvoSiEMUWIQrBlCNRd2yPP+5MQtGgZgmaORb52ZeHdaxIUV5kQKVYc2rzsd0qMglfYRShj88IwaiASi7h2W2TBggX46aefhK0J+ttkNd98842QbyNtHfHw4cNnOR503pkKJNo6kUY9mjZtJphsvezkGnFhLzRKyYyuICeLiy+/Mdkgr1wtnnAxfYaOwdmLEodBG0z5F6YEqKxi4Bvt8Nu8ibKW4HfuR2DouG9Qp/27Qv+NnMrvm/9GrbZvC3kjh0+cE8+mTfFaTVCjY3+o1GmHiAuUrZougUHRgAbNsraSZPff4oFIqG0JqmRLpFxZoA4VJ9hw9BgTF5KoBTUno66S6eX8+fN45513hMmLVsdypLjngZat1AVowq7SFw+al4N7yWKphAWhzxMKAxUDaJOg1OksOQkfO2pMpoXnvgXwmCxZCZQdAO2EkXjSfygiJ81HxIEHiLpwFAlbViD564nQ928Ho3kxrzNAkWKAwd35DqkK7UOoLpK4oLwQd/bEk9mFzfQ1NkVCsWYB1BPHQv3tMiiomzzYzy5aEnqPJLjfugLv40xYPGW/1+iFiE+zTXz6oJ4hkyZNEvJfmjVLwz3NBVBEgkSmbU4ECQsSGPQc0vKyMEPbIUlJpk4y5LfyPL04chK5Rlzkzy8fQnvw0EWRC2POe6mOnWDXvdrAmE/FE+nEN29+yd69fRISk9C66zv4c5vNLCGBoheubs1uy2vN6mHHym9QtDAl3KWGKiyosVfrXqOw74hwdXzuUO7KnKVrUb5Zb7w7eiau3pQs4Z0gtEo95ClSEkmx7KruJCQwqrfvI47ShuzCm7UxmVxlBdItkcL+CpCjthRntkQoamFufky+NhlJ4qQKBErcdCQsCIPKGwmFxK0OlEBC19Yw1CojtHKXw+AdAkNxdqCNh+rxPbjdYbN8q4lI7GCp9LBFc2kLvD+R2ntXgn78UMTbGGwlM+ESW7MFonoPxeMZSxBx8hbi59L21xMoE6hDqgcMJC5Oh0H9xLGZljI+AqqwCCCvJwzsb6Bkz1dpm4+VvySSq5aFQchpjIfi1jWoL12D6g6t0irDMGMz4t5rhAQ70ZiMcPbsWWE7hBxWycUyq6F/g3I5bKMLtB1CN8rhe/NNOw2YbPj9999x/LilZJz6iNSpU0ccvdzkGnFRqFDqFQURFZXiEiOtnJRzQTlDwz9kK7xG7IPp/AL4GcElKqA2EwuN+n4oVB1Ua/eW+BX7PI2JxRtvf4T/ffIFkrRsxSOD2tNPaM+elVQqWwKHNsxHv+7299qPnrqI1weMQaPO7wmlnfaeb1ZC/VE++WIByjTphc++XoL7DykNMH345iuAuKhHOLdzLfYunYF/fpyG87vXI9EJoZG/TJV0RTDi4oA2HYB5C8UTLuIpe6q2/hZSYpKMVuZZcuJi7Xpg9VpxwKDGZMWKFRNHzkHCYvr06WkKCxPueFC/Dx58OBSxI4YgsVs9uDkodzdo/GEoWBpIjITqOiWxNITuf72QaKeIzePSevh9IOmQyjAOH4uEJqFO5DBooCtT2rQVEpfALuBuTNyw5xZ5Cqp7SQ7zLtRPrkDFFiRQ+kDPHqhMFJM5v96J+C3fwlCWDeKYoHD3R3IBcyS4FozDxiDlh7VIOLMZT/rXcqmwoARISuAsXbq0UA6c1Xz66afsWm4QepNIxaJ0O4SEhTM28hQFk1aHtGjREh9/bO0y/DKTa8RF4cJUmy7P3Xv2qsudJ6dsiyz5CShdyZQ1nx6UarVQsth4wGjU7DQAeYuWEb9CK91qTq90l6xYj8qvdMLy1amdIynB080rQBxlHd5envhu0gfY/NOXKFfSvMJMzbnL14XSzjKNe+HTr37E3Qf2S2tdQWRUDOYuW4cGnYaiSbf3sWjFn0LTsYwS++g+nty+Bm1cDAx6PRJjohB++jD2L5uJx7csbcvtQREMEo/p4X8jgSHviwMXsH0XVWWIA0axVCWoRqGChaDCADlxIS09LVOmDF577TVx5ByUIOi8sDARmbckLrbrjsfDu0EXlEZOkdof+uKW96Fx1EgkisZXZtxv70bQmFEI7vUK/JsyYUGBNb9AGGl2D+yClDcd9xuRoitQBgZyEU2Ih4pdl0xJnRegvOTYTEsVHibkj1AJqUGhhyqekjlrQl8+lD3fdkjq1YKJiwdCBMTgn5fd2JfzMMHTayiiOjRCbLDGrk9HRpkwYQLi4+MxbFjqpG1XQ0Lg5MmTQslp+fLlxbMmKAJBAoMSfGnLzRno5+nZ55IgX4ypU60bML7s5BpxESqUg8lz+06amU5p8rzFxZ5/TMl3bw9NXx4J7dOXqN0Mzd75VChZ9A4kd73U0Eq3Yssu4sgxd+49xOAPJ6Fu6zexbY/U9YcJDKUKbt72S4MzAvk+/PvfeSz8ZYOQwPnVwt+wZNUWPI6KxtcT3sOUj99GlfL2TZRoa+J7NulXbN5X2DbZsH2/sNWTWcibYtPOgxgzbaHQDr1kwzcwgYkYchTNSvS6FBxb9wOe3pdkN9qBtr2qvGpdDZEWi34Emr8qFCRkGqnltzub+Qr5W0cAb9pELQra7G5OmQ4cllTokmGWI7t/W2gCIGOkKlWqOC0sCFrVkpAxmyk5hk265RvB0KQ00GAokt+sjUSbEk31xQNQ/7QSij1i7lJgQeiK5DMZdEUxUXDwAHyZOPBir3laMVK9dygMNDey97Bg3OUhSeq0mwihhSqMBKkfjJ4eMBiToaRkztAq0Bf0hwH+0LbtBUMx9nMiHsGNPbGUYLayf7IeblvPwiPzl9BUrF69WpjUKXHSkZ2AKzh27JjQ64O202y31K5evYpt27YJx1Ta7AzUwOzMGUsXu3HjxgtN1TgWFFptcub3DHIA9OZp1Ei+9GfSZ/7o30fGISYdeGi0CM6X/tB2ZjnJVjgffsJWX3vFE06ictOgaLUGTFg0hRu7+DjLlYPbcO1I+spNCoTkQ7fXW6Nn51dRo0oF4ZzRoEdyXMZfLxIEFAWgyfvStbQnUX9fb2iTU9K1BdK8YQ3UqFQGtaqUQ2ihEOQPzoM8ASYDHSKOrexi4uKF50IGXrfuPsT5yzeYeLiBc+yWka0OV+LJVr5NB41ln+K0t+weXDmDk5stGe3OULc2sGMzm44sL0m6qciut+aS6PLBSnSuZJl1KWIx73CKsDVCTJkIfDpGOBQ49C8THK0skY+mTZsKTaycgVwVqd31vn37hD3wiRPZD3cC8lcpXLiwycPChXgdWQnPP3ZDtX2Lw7JT4+jNiBnuyHCLoYtGwMxu0My5D321Ekj0TITnxbNQFRwK7aqJeCrz1BXacASMbw/3X/XQ1SjNfn4UvM5ehrLRdCQsHIBYujyyn+s3fxA8px2AsXR1JAYkwePSRSiDekG7ZjqiXVgdQnbrnTp1Ev6mtM2VlVBkhHI6qMElRRfIukDK3LlzBXFBXU4/+OAD8ax9qO07WcU/fmxa5bVs2UpISOVYk2vERWRkJAraLntEBvT1wecTMnGFZLi7pSB/SNaG1aXQqvHTz4HZ34snnESt8UDxmo1RrPorwnFGOL11Je5dOimO0kfeoEBUr1QO1auUZ0KjPMoVC0axQum7UFMPka7vfopwNplzHFO0ekOUrt+GCci0V/OR4WE4sfEn6FOcF2AkMHb/Rf17xBPp4PwFoJKkoKN9eTWqFLBEAG9GGbDypGVJvG8X8IpkfUBeLWQGR1C0giIPZM2cFrQXTsKCjJicFSQ0OTRs2FDoXulDFqFZiOZJONzDwqAmQXDuLJSrmOAQXoZ8MPywBU87yOdeaO6fheYeEyBsoeP260i4/RTDxEVRxLOn6xF+Ee7hZaDbuBJP66a2GVc/OQ7/Pu2hDi+M5JKh0CXdgeepcCiGrUXsuEZIEMWM5up6+HceBkUye1zZgjBGhkFzLQrGSTsRM7gyMh/vM0F22tQojlwwsxrqS0KRBvKysK0woqiFWVBQaWq5crTf5Jhly5Zh7VpLEtDOnbsy3dsmN5JrtkUojJk3r7zXxfUbjpYBzpGd1SJbtwHlqqZfWBSt3khYyZaq1yrDwoKo2rYXgopkrFfD48go7Nx7GDPnLkXPdz5GtVb9UKBmJ7za+yOMmb4IC5ZvEFqpnzofhsdPTG52Uiha0L7faC4snOTexZOIuncDidFp+z8HhZZG3R5D0xXJOnIMeL2bOEgnO2wCYKEB1hEWaZVI8WLWwuKb2RZhQfTr188pYbFjxw4hY5+EBflgpCUsLl++LJQ/kqig8sOsFhaElipA6rZAVP8RePz1EkTceYCnZ44iYeMCJNUNscrVsKCF++7Z8GzXCl4t2zNhEQYU8ITeQw2DQg1dniAYcQLqNbvhKbOdpYoQkzlV3jCoDFAmJpiSOcszoSG5PCYXawTtm5WB6Ai4RadAnycYBl+2Cl25Hh732b34uMxA2yFr1qxxuiIjM5CtNwmLFi1ayJYukzMnQV93RljQ+4oMs8wMHDiICws75JrIBdGsWVMrlzQzhQp649DezLW7VSqNKFzQoY1epnkYAQwflf7mUpS4V6bRa/Dyt+OZnAFSkhJx+Le5iI/K+mhNgJ8P/Hy94evjBb1O79Q2yIsEpQj4+6nx4KFzG9fB7m6o6euLgu7u8FIpcSYuHqfZ7ak0M1ICbX0FFioODx9/ocIkrY619DelnA1KEHWWdwayFeA8ceAknd8ANoh5v2T3/W5d6xrU5SdSBAMton8ftiIUG1+eOm3aDokRTUvr1asnJP45gqy8yYDpjz/+EMa0j09GWfag0DbZfhMkMHJ6O2yFLgL+U7pCs8jWb8YbxhB/oQmZMiJccN8kI66Uvm2gq1EdsX5MQDBh4rNmLLzfXwljmepICHaDm4NIh+bSSvi3GAVFQCiSS+UHIi7D/UY0jF/vR3TvzPlbxMTECAm59Dd1tB0SERGR6a0p83YI9Sqhdu22ze2kUYuZM2eiYsWKwrEjKLqxZ88e4ThPnjxsvjmM4sWpDpljS66JXBBly8orz7v34jPdwCyrS1GpCoSiFekRFoEFi6FBr+FCyaErhQVBYXYqV9V42S/BM0OJUkuWLEGFCqZ8i/TyNCZOiFRQPsOLLizyBAKvtfbAZ58UxdqfWuLsPx9i4VfdERuXtrCo4+eLJeXK4HLd2lhZoRy+LlUCk9mSfkPlirhRvw765pc3inty+7pwnxQXjSd3bjBhaGkXLQcl9TbsPcKqYigtfljKxEA6ndYdlaCSI6dZWBDSKhFK4jQLC6VSiS5dHCcaX7x4UXDaJGFBJkajRo2yKyxIVNCWCQkL8lW4f/9+jhcWhFEdjLjRmxH3z2Zof/gWutFDYWxOLpbxUDy8B9UNUVgQW2fDrWcXeJbJj+C+wxA8dKAgLOCfH3o/qvgwQpGcBKjywxjkkcrkK7lUSyQPLs3+SBFQx+igyxMiNGNT/LIOnmwBlBm+//57ITpkT1hQmeiJEydckvOyYsUKXL9+XbB5l+uau3+/yXmY+so4Iywor88sLIgPPhjBhYUDclXkYs6cOfj444/EkTVrfsuLOrUyZ/JUqMBDqFSuLcaiXiDvDLO+EKcFJWuWa9wWoVUbiGeyjthH93B41TyH+/R0wTZne5OfALUdpvDhnf+3dx7gUVRdGD7pPQFSCC303jsoXbqggIggTUURrPxWwF4QFUFRsKA0AcUuIghSpPcWWgIppJLee//n3L3LzszObMumn9dnn713EkOS3cx8c8p3YmLYpMDYWPOMo5SY5OMN7XnlfmZJMZwVBMk5dH+yEk0aOUBsnPmTEvr0dIT+vX2hZ9e20KdLX2jZZCCUlerqH15b+QKsXW94yMsAT09Y3LwZDK1n/CJ314VLEJSjLx5wOqqtaIgc2oSbIjixeBeLeE3Bz1e427sGYMDy4Q6YEhkjmqU2vbs9tBIJjAuxpbDnhk5whQu/IkyN4BRfHLanBVMWhoyVMOS9efNmNh8CvS/QK0HJOhrfo1i0hxcc7BZYvXq18HOY8INUc2yLC8A5+ibYC+LCPgRrOM6B7S94MsHXXlxw7AhlLVtDobc7lAinQYfIq+AQ6wuln3wJOQ/qe1c4B24EzzFLwKZ+Cyho7ysImBBwvJUOZcv2QcY8dXMwQ2AtDLZ5oium0muEg8IwYmGprbuY4OBgePHFF9l8EHyt5SnzoqIiWLhwIROXWPdhyjh19MjAVlYEu49OnjwF9vblT7nXVmqVuDhw4IBw4lDugX/3TS+YW86OkYZ+yeDkaLlvgZy33wd4ZxnfmAjebXYd/SA4e1S8n0RhXg4U5GZBgnDSCjkhSoDLwOmF2DtuCBQaKDLwGR/4R43hSjyGzxERyu2bvg4O8EPnDtBH5UJwIUsjMv5NTYMDaaa7WMr5Y8tg6NBsNuw8tAF2H7gC14LyIClZc0/n52sLAU2dwb+hOzTxrw8tmvpDn26doF+3URIhISYpNQkeeelZOH5Kv65ES2MnR/iwVUuYKAgnU9mdkgozrwfznY62d48BT1+pkZyTuyd4+jQyamyGnhkXsNCz2Li4ev9tQTC9yjcGePV1gI9X8o3AK8McwV4UvPjjajEEJWp+v1hrgcWcKLQxHRLPy2169OjBrJQxeiEHK/UxDYIeFgj6E6CwkLtoikUFfg5eIGp7y6ANZILH6ZNgfyMcbC8fA7utxrq/AqBs1sNQ+PijkNVBkyLB7hKvt6aC06ZkKBX+/vJc88DlRhDY2k+Bop+XQ0YX/aJRY+DFHFt7laIWOFcEO3WsZaSlTV9g1GL+/Pn8qI5Dhw7BihUrYNCgQbBkyRJ+VJ29e/eym1ctmzd/rzfwjpBSq8QFDqFp2lTZWW3aVC9Ysbx84sLHOw1cXdB4pnzsPwjw5DOaYWOm4uDkAh2GTYSmnfvyIxVHQU6m8MhiYXYtqTHhzMBJKYKBucedf+2Avn37gYOjZdEhrL5WukP9t3tX6Otp2h1mYmER/JSYBL8K7wOsUzCXJS80gaVPLYGSQsuKWbVcDNoHM59ZDbfj1E+/i4T36SvNm4GLwoXTGF3OnIdY4U5dDNbdKFm529k7sjoMRxfD7/2MhBg4v2MjM+wyRE/hBu/CKb4xAE5cxcFoCA4qm95Dd4dXKPxavjxRCLlcy2D7KbahznoMYNuPmmMICgslIYBFeigsUKQimAIRD59CtKICC/Zw+BR2J1hiGV4bsIECcIqLAsegK2B/9QrYndsPtv/KazcGQfHe9ZDWHT0vNLic/gw87v8QbHxaQUFbPyjLiALn67cBxr8FeZ8shKwGWM9hGmirjRd8JaMpvGhjOmTRIlHIqhwEBgbesfbGWov27dF6VMqyZctYfZ7ae0wMTtDF7037fhs3brykqJNQxvwzWzXG19dXdYrdlavlr5koQc/ccoAWyygqRt1rnrDwbdURBj/yUoUKC60DJBoz4YVGLCyQBk1bQZeRD7A6Dzl4Ih8zdhx8vvoziImMhLTUFCiUXfyMgX/Acu71bmCysECwEPLZpo3hsHAFPNm7BzzdpDH4oO2jiSxfFQt9xy+CA6c38yPms+mPFTD8gVWqwqK3hzsc79UD3mrZ3GRhUSqcwovKyqCwrBSKhefJChOAc1W6RUqKC4XXNBJy0g07r3k1bAp3z1wETm6GW7bRd8UYt+N0wgJp7S3vEim9IywQrLfYtEUqLLCTQH7Sj4+PZ54EeIHCEz3WVzz33HMSYYHvRbRxxkK969evswmbKDDqqrBAysAJ8hu1hcwRUyD1ubcg6fujkBx5Q1O/8dVyzQTW8X2gxE8nLJD8HlOgaLovQHIqOGSVQHGDJlDYoh7A7nfAZdoL0EAQKC4m/pljXdaYMWP4TgdGkjB1isPkrMXff//NnrEDSElY4L+HwmLgwIEmRbEw9aYVFgjOpyGMU6vEBdKzZ0++khIUnA65orHOllBcbLm4wJqKrn0A1q3nB0wAoxXorthn0mNGT/qWUlJUwC486XERkJUcB4V5ggJSAdtbW/UbDq37j9Brdc0WlNNLr7wKDwkXhVPCnWV0ZARERdyCtJQUVslvDG1xlRi1AkZT6IB2vK1aQMiAvrCpY3sYaaIDYPDNYnjg0e0w+MHJsHbbexAZqymWNEauII6efO0JWPSaruBLztuCoNjfoxt0clNuBcV3Z55wB5dWUgyJgiiIEx4xwutzu6gQEoR1YnERxAvPfgquVsY6P3JSEwXRGC2ISPXXwsnNQ3i/GXcozDVcL6o3AC1AwfJbC1rTCPcE8JrI46pDhw7MiVPMzp072Uld66TYqlUr5lugvWChKZNWVGBkAyMVKCoee+wx9nFCSomTF+R06APpkx/VTGDdsBjSZTZBZU4BkP/gTOF9mQ62V8+C+7Gz4BjBU49XfwD7OYPB896nwPtgFBiKV2KdAgq9wYOl3u5oyY4fw7oaN0uMVBTAIWLajkEs1FQCazsQJbEjByen/vabrsoeUyyYXiOMU6vSIgi2FL3xhvKY0B82e8Pdd1k+dcfVJR98vI37CYhJTAJ4aTHAFs1MHJPBaEXXUVMrTFRgRwGmPvCiVCbcEZsLpkeiL5+GlOhQfkTK5EmT4Nmnn7pjy+7o5AQuwgXf1dWNOeTZ2kmFGkacsPZCTOxd/cFV9nnlIVQQAG+ER8Ie4e7WHDp3dIVunRpA21YNoWXTAPD3lVay5+YXwtLlP8KNEGWLoZ7u7vBV+zZ3ClKVyBAu+jmlJXqV+0pkFZfAXecu8Z2OnhPn6P1e5eCMGQ+fxuDkqu7ncHnPTxB7XTfpUU6Zkczg3Md1nSXuTjbw3N3S6NH6s0WQkKU57cyYpono7dzNtgxsO8VWRQQnZqInAnYQaMEuj1mzZrGuA7yQoDDFB0YuZ86cyeZU1IZizeqATXEGuJ0/Bw6YTrl0DOxYsagYDyj76oAgUgJArRoNBR4WfItrLTZs2MAu2vh6WdOh88svv2SGaDh4DM2zlMAaC0zDfPTRR/yIOtqvh+D7C4s4mzVTn2NF6Kh14gILvMaOVVakLy7ygeeetrxjxNGxEPz9TB/ssXI1wLsfYG83P2ACGBHoOPQ+aNqlYlIgKCiwSNOcEd6GwOFaMdfOQm66shV23z59YNL998FD04SriAg7O3tBcDiyauvIyCjoxy8mWrq5u7H0RkVwJD0DloTfgusKXRfWxE240L8S0BSeU6kD0pIuCItsQViYw9DA65AqSyVh2gqLOE0B21HV5szkpifD4Q3KJ17vBgDJRpp/WnYAiIjUrHs0toXxHXT1FonZZfDdGV1OZMJ4gL9FwgJbRLFQDtMbmNcW3zWiLTeKCjTT0goKbDXE/TTh/YUfw/ofQ+BFJTc3lz0wFWfpGqNxWJyId9xqz9o1dixgJ4ux760mYIPdKXFR4BByBeyDb4Kd8F4ofvR/kNHGSVEYYwoCiybFNQp4scaLtjmD5EyhsLCQRRaw9g47Th5/XFC5MvBjGCnBz8NiT0OIfTCQ999fZrL9PFELxQX+4devr9xJMWSwP2zZYHkmCNtQsR3VGDj4afkK4Q/LTMsGdFDEsDSaIVkTnPPBohSCoDDmgWAp6bcjITbogqpo8RNU/yThj3n4sKFsIqHYCfHAwYPw5ELpVMQpvj7M80EO1h7klRm/EDvihFawATsDczfW3Y6DV8PMKH4xA2wrxXRMPRNa1TDlgT+XOTwaGgnn+GwDLWik5uHjz3fGcXR1Fz6/ERtuJ+fIxo8VDdQG9gc4cYhvFDh3XhCUg/hGYFJne+jUUPc3J29BFYM58meeeeZOISYKDC1jx45lXgQYRkdRga2E6LiId70oRnA6JU611D6wPkO81x5LSzPdOMzaoJ8Gigz0RsBn8bphQ8tTgNUZrJ3Bn1tbU4HpEe0FGoWFUkuqpWjH6iP4jO2icvDmc+3ataw7BSMRhtDOHEHwvXfhgmUjEeoqtU5cIIMHD4IzZ0QVZRwXFwcIvmz4DWWMgKa3+Uqf7zZqcseYCjGXTsMnsTkR1gRTFygqcjNSDObarQmOCMe5JPjvGqJ3r14wetQoQWh0gEOHj8CGjcIvTwQWZqKBlBisRcDUgTnYC+LCgT9cbOzYs5jI/Hx4MTS8XG2sSrR0doYLfY0Xi2GxJtZUmMs7MQnwq6jIDNE6dZoDplFYmsRNmkY48cPnkBEfzXc6nl4AsOZTvlFg2UeamThanh/kAG6Out/5jmvFcC1Bc4+L86OEXz8Dh0qNHDmS1UuIRQWG0zEygeJAmzbDizGGvR0cHKqFaLAGODsFhUaXLl1YoSEOW1Myfqpp+Pv7Mx8Src8EdmecOnXK6ukQBDtD0I4Af2/itlExOCEXW5vRaM0Q8qjFypWrmPAlTKdWiovFi1+FTz9VPgP+8oMP9OtreWpEyUgrNAzgEUGYHz/JD5iBl38z6D7uYXCrrzwXxRKKCvKgIDtDtYOgMkiOuMkmcWIKxhKw+PF5UTohs7QYMoW70/LibGMLzsLJxV3m/fB1bBysjI6BZOGO2BhthAvBmAb12cXxjG0qnI0sgHyFP6MdXTvDECPGWNgBgoWa5rIuOR2+wDeeCBSn5rhuinGt5wPuDXS1JGqRiy0bAGYZGAkxZqKuoLOxpw080kcaFVlzQjcFVQymENCuWYydIHwwIlEZoMeCLq2BKQ1NfRA+i1Md2mMobLCIOTs7R/i+xc/Z7OfQfEyzxnC9JeCFGYVG3759mecHFqvj91lTQOdUrI/BWSIIzn3RmpdhVMBY5MAc8PeMXjtZWVksWoIpMiWw3R3NtbQ1PWqIoxYobs+fv6A3TZUwTK0UF9iK9MADypbB/3vOBxY9a7m4kBtp/fQrwOMLNUVp5tJmwEhoe5fximVTKczNhrzMVOGCbsE3U0EkR9yAuBuBzJDLHD5t2xoe4d0i+AbFLokSM1MHhnAUTtJ+9tL3AXZqfB+fAD8mJLJZHkqsbdcGHm6ouQjj9xNXWgj5fjmw9GYk7LsurYF4rJE/rGzTiu+UwdZS/NnMZVdmDiyWmWk169of/FpbZsGOoBcGS5M4OMI/q5Rzy1Ehwr/TlG9k5OUDNGiki0YMbmnHHlqi08tgywXzhZS5oBBo1KiR8GjMJiVr1/iMe41AEAsGFBKmD3MzF4zEhIWFCnfDYfxZtxZHaYyBNRsoNFBkoNjAia/VmVGjRrEoAqZEcKYIpkOwpRM7gazdxYOR6nfeeYetMTqBqVc5WBz89ddfs7SIIeRRC/TEeOklqrUwl1opLlC9+qi4Hvbt4wO//mi5uBAbaeHEyAEWDMTDkzhOHrX0LlNMmXBBRNMrTH0UF5ZnpFDFknQrmEUyTBUZX7VvC9PRb1qAXcQtuAAbw18QF5g2UQMLPu++oOvKkEdTEGwVRWycSmHyjSsQEq9LP3UVLlzzGvtDXIHme8d/qoVw9zPIyxOaOOm6lrRfwxwu5hbAnMtX+U4DFgE3bNOF7yzDxtaWGW+d/vkrfkQHZqnQpluNHTsBJonqdmf1cpBMQj0ZWQL/hVkeiUBbEOHtrsjGjZvYRbdx48Y1YlaIFrnwwO4XnGGBF2NjYBplxIgRbKInPlc3MPKi7bTQjilHbxJMWVi740LbfYLpNWxJVooy4L+PNvGYkjGEOGqB3yd2Knl5Vbwjcm2j1vlcIBh2wwplJc6eS4a0dPNbL7WIjbQenssXZoAmVINmv1BuYYFWzRi2RjOczKTb1VpYIL4tO0DXMdOgeY+79PL7SojfmBUVGMcBToZo4iQVoa4y06t8UQtvWYEtPNFK2qJ6JScHFoWEwUdR0ezxYWQ0LLgRwhw25wvPUfmWv2bNHPT/dK0RMkexmnRLWUGMH8sXKuzXOHEz8NuTj1jHyIUp4K+5W1fh7+shgA/eBfjrV42owemySqAvBubv8W61JgkLRBON6MdC+a+//gbs3v0PJCUlw+nTZ+Czzz4Tfq6ZinfhyK1bt9jAQPzZMcyPw9vEg7WqC+gVgRd2BKMZFdHKqW1VxnoctfQF/r4wzWQIjFpohQUyd+4jJCwsRP8MVUsYMeIevtLn8BHLT+paI60Tp8xz2URa9hkGA6Y/bXK7oBLFBfmQmRgLKVEhTFyUWTFVUBn4tGgPXUZNFX4XQ1meXw1xCqTMiAiwFDtQvxjjDI+Jl6/xnQa5JM2X3Ub3cFR+XXEuypft2kDogL6QNvgu9ljXvi0EODtBgQUeI4iy82j5xQWSk6bcbj3eSAZPMgXVR3pqKRFewugM5Z+1SWOAB6cAbN0AcO2i8Lk5AIFnALZtAljyMsDEewFuhmJenf8PMvDOvbaBaY+FC59id/yXLgWyyMaPP25nRmIjR47in6UDZ/NohQbeWOHdtzUGBlrK6dOn76Qf0NhKS0VEWHBOkXY2EYoLNTCqgeZrhsAuJS04mVVpLglhGrVWXIwaNZKv9PnvsOmW0HK0kYtduvegURycXaHP5HnQYYhwlrQQ7L5Iu30LUmPD9ay5ayJoJ95x2ERod/dYZj0tp6LL+Fxt7e6kRFKLitngs+WR0TD16nVocfIMGw6GkQcx8Ty9gWDrqLxzpXGhft4e60b29egKMxr6gbeCILBUXCCusq+HtRLWQKmQEwMChiIXYeEAl6/wjUDLBtJTS2RqKRSIGpbmzwM4/p8glrMBYsIAft4GMHMGQKcO/BNk/KO7mdRD6WJb28C7fRw9/95777NUw2Xhl40mUEOH6tdd4N031gkMGTIEFi9ezC70lQ26YGov9FrHTOz8wSiTtRGLF0Mj0NUiQFrkUYs5c+bU2hbhyqDWiot+/fqz/KsSB/6z/OJczMWFqZ2LeBEdPOdFlhYwF4xKYC0FTq1E6+aifCPWiDUQHKrVZuAocPGSGgwVqSXXrYSnTwkcTc9gIqL1qTPw0LUg+DgqmrWkZqjYlaPDpxZsi5XHU9JK9f+/u7yUoxkoKlJLisrVAeMgS9PYWTg0Tg6aaMmZfB9fqLBXZvndXJYSiRSlRNCIa9VHwu9mAHaE8ING+FtFzGMOf/To0XxXd8CZGYsW/Y91YJw5c5YVM6JPiBjsoMABb2gWhRdW8XyMikZbqJqSksIKKRGlOR/W4MaNG3yl6exQAk3PjNl2i6MWmF6bP/9JviMsodaKC2TsWOXx61lZBXDwkLJVszGKijSmSLJ0vCKt+4+E/tMWmp0GKS0ugqzkeJb7zk5JqDSPiqpEXoeRX1oxqRAtiYk20MfTA7YJt8qYpjjfpxds6NAOFjZpBE1FxZZiLmXnMEGRKrwe2EIq5yroi1YXfvXE+gx04sSZIbFFBZAkvMa55RRQdjJxYe9Q/lY5jFrgEDs5xsTFocN8IdDA1YY9xMSIUiKDhHO8mxmjJLBwGiMjSowbN465vNZlunfvDosXL4EjR47CwYP/wYIFC/XqDtAHBGdtYB2Hpa2x5qC1/cd6Cy2dOlneyWSIsDBNSza2Lrdrp1zLhm3B2BmkhjxqMWvWbNUhmIRp1GpxYWgS4t59xosKlSgrs2HRC2N1Y93HzYB2d5vXZorumenxUZAcFcJaSusSTq7S1yNV5P1gqDbCUtC8KqWkiF3w8bLXysWZTRv9oFVLuNKvN+zt3hUm4C22iJiCAgguyhFEgXK04ZtwfffWQkFA4NfHSAdafBeWWa+CpLBEKk6c3NTnhZiKko07npPvm8A3KojrLdp4S08r+YI2Fhdzorgwhz//4gsFxo+3PNVYG7n77ruZl8SMGfoGVRjJQFdMrFGp6CgGmpwhOFBOC4oga4MRCbG5GgoMJdCC3RDiqAUKsyefpKhFeanV4mLChAmqanXPvxbYaHIwetGrB9+okJFoejEVml7hALC02xHMq6IuIk+L3BbVN9haoQtCDbzgJxUXssFhYgvufp4esKFje/i0ozSHGwjK+bCVKRFwKVE/GpZVUsKKU63p0aElW9QhhE6bWNtTXpRSIiON1OChsEhI5BuB5vWlr1dEqlQEDTLTiPb3HXyhAP6NE1Lmz38CNm7cwHcaxLUIISEhLJV09aq0ldlaYDoX21CR9HTd34tayqI8aKMWiKVfXz9qMavCUjh1iVotLrA17777lIfTpKfnwr/7LDvhFxU5wABpelOP2KtnWbuoKeBodbTqrsu4N5C69SWIQrcV/SZFUZEliAyc8YGeE9oH7ktdpSmp7WkJcNQ+EW475kK8XR5sKoiC8dcuw6YQ5cFtKCrQctza0Zd4WWjbxdM6Q7GyU/VF971GWlD1RqzXk75iEWk6cdFKuMYN6Mc3JnDsBMDNEL6RgRdIra00oQG9HtBuWwu25WO0Ys2aNWyehrZFH2sisBZDXAxpLXDAm5bLly/zVcWAg+u0tG3blq/M48iRI3wlnGtsbSlqYSVqtbhAJk2axFf67PxHpXHeCEXF9oD+TrLRFxIwGnE76ALfGcfesW5by+JoeXtHXa1DdIG0Xdi2AlIjplAkq/04fCMfnjoWDWOOBMGo49dh5cUkiM5SF5EuvC5C+2wtDmVLoyTWsI9HrxSlwXP3Kpcu3UGcEmlR3xacZCUQMRmWp0R+1tgjKDJp0mS+IhCsKxCPEcfUxAcffHBnOBjWQeC48ddffx08PT1ZmgTtsK3dTVJZlu2IuKbDUBuqGvn5+WzgmZapU6dCt24VM425rlEnxIVavm3n37cgK0sasjWFYl7UaewOLOLCUb4yDrp21nXcG+javm7mSjtj7KpGW0ARGjSUg5duhcODQddhW2ICRNRLBwe/QrCxK3+K5Fi61MHR3bv8LXNKLaiY/mvciG8USE0DOHqcbwRaeUtfqKyCMjZmXYu54mL7L3yhwJQpJC7EfPzxRxAYqHOUxfC+kq8DGkmtW7eOdZdglAENvC5cMP1GqDohHlhnyUh7FBY4/E6LUq0KYRm1XlwgqEaVwNzgHzvNjxgUFWv8BYzlorHTA+soTIHEhaYtVYzYZ6IiijpNIatUuXPEVHKLSmF/cjq8HhoJE/eEwd2Hr8Ki7GuwFkLhz7JYuOSUCslO5rUYRxSVwHHZuHVPP6ktuSVkJ8fzlQ40sDLEv/v4gqOfEpEKKXPExc+/ASQp+3nB5MmToX5966SCagNYRyGOWqAnBvpcqIHpkjfffJN5OeTm5sJDDz0E165JTeOsgdLYc2sins2CPhrmIo5aoHGZoSYAwjzqhLh48EHRwAMZf+wwv9ahtNSGmWkZq6BHIi9pDGSM4UDiQk9cHE7TtXZWZFGnGttLhbvBqyo9kCL69ukDaz7/HI789x+E3giG7T9sgwn3Kl+VUzLKYH9gAXx9KgPeOB0Psw/fguGHr0PXU+dhXOhFeDThCjyTeAOejYyDd+OSYWVCCnwpiJONqVmwPT0H/s7MhfcjoqFY1LHi7u1vFQMtbH+WY0xciC2/cbQ6TkIVIy7m7NkdoKMZdi9bf+ALBQz9TddFdu36m680ZlHTppn2+0FRgSKjtLQUpk+fztwuKwpT5qWYizZy4e7uzjxPzOHmzZtsjouWBx5QvgklLKNOiAucHqjmDHfhwm24GGi+wMC6C5yNNthI5Xtc8EWTxo5j8amdQ/nukms6Lp71JbUnB0QhTxO9lqxCnk0JvJocA8vOaOYVaPHz9b3jH+Di4gL333cf/PXHH/Djtq0wdsxoNnET6dO7N3y2aiWs/3Yd+JpRcBiTXArnbhXC4fBsOBR3G36JjIRNtyLgq9AwWCWcCJcFB8OS60FwOkVaPNqgqboroamgt4o8LYLDX3v35BsVJJbfspQIIjbPMidqESpoup27+UYGjurGyZqEjl27dL8sNIvCyISpYHoE7cKxmBFrMsqLeCSBtt4DOXnyJF9ZD624sDQlogXFibGBZoR51AlxgRjKpf3ym/mzPrRmWpOMmAsh0ZdNK5hydKm4sc81BU8/navqofSMO26ZdpUUuUhwyoVZEVdhd6jUswLrdn775We4GniJCYorly7CyhUfQ6dO6pbCQ4cMgT3/7Ia7jAxLKi/WSKllp4h6STn3T+QLFa5cAwgJ5RsBLOYUk5JbBpn5lomLTd/zhQKUF5eCRY1HjuhczCxpo0Sb6+XLl7MBYDt37uRHLUNc0IniQlvzJo4SWAOMtuAEbMTclIi8kPM+4UZB681BWIc6Iy4MqdKff400u7AT21ERY86FSFSgaYrdGj4FNR0vf+nExH+wYlCgMrpFAssyYOr5YLgZp++I+u3XX0OjRprIhCFBIcfL0xO+37QR3n3nbeheQfnnuBu6Ij5LyUrWD4dPNJJ+1m9Blb5GkaJ6CzTRNMffYoOum1IPusOUsmOHzggEfX06d+7Md+aBAgO7S959912IjIzkR81H3i2ibRHFttSiItPa801B3PJqbuSCCjkrnjojLjSDf5RDqUVFJfDDz+a18mFaBMF21P592VKVgpxMSAg1blhDRZ3CxVg2xOz3bM0JoKK7RXaWxsGs06GQLups0PLySy9Cz55GXNOM8PD06Szysf/fvbDiow/h+eee5R/R4OjkAB36D4ZJzy2FBas2wCvf/w1v/HwQnvzkO5j64tswaMpMqN9QeVYOTjE15f1lCJy0K+ee4Xyhwn+H+EKgkYcNeDpLXySxvwVGLQx1nYjZtEUQTPrlHwxMcWLhHaEjKkonBCwVFlpwHtOrr74K//vf//gR85GLC+3sF2x9taavBkYftFgiLrT07t27Ts6nqWjqjLhAHnlkLl/p88N28xw7tWkR5JHZfGGAuGDjd5e2dvZWm2xZU8GfHwsUteyLzWRTSysqcmHjWAqf5YfB0jO6fnk5e/f+y1fq2Nragb9wYm7drj17+Pn7g73CFNQWzZvD5EmT4Nmnn+ZHNIyc8zTMWLIceo4YD41atQM3z3pg7+gIjdt0gK6DR8KoOQth0Tc/w5RFb4Cnt9RwDIm5ehYy4nVWy+aAtvO5GVK7eSzkdDFgA4NpdXG9RSuZ5TciLuY0JyXyzXd8ocDcuep/w3WVjAxd4bO43sFS0M0TDbb++OMPfsQ85OICa0C0tRfWbHkVRy7MSYvICznVugmJ8lGnxMWYMWMlBUZiIiIS4I+duouaMUpLbaFEeCDTTSjMTgi/ZpJjJ6VGAOr5S6MXW3JjK6TmItszD+ZFX4f1lwyPuL185Qq8v+wDvtPHQRABjZo2ATd3XRGdh6cXNG/ZCvwaKosM8V0XYmq9TfdhY1hko2l7/TvU8LOHIC9TVwRrKhnx+nMmJhgxzsKUSJbIqV6eEknILmMzRbSYKi727gM4dYZvZDRu3AQefphSInIyMnRdGNYQF0iXLl3YRdiSNEayrE0aGTVKMxb/wIEDEuOr8mBpWkQctcB6kJkzZ/EdYU3qlLhA5s17nK/02bLVvFHs2rqLel6CwHiQLVUpLS6GxLDrfKcOWoHXdeR1F9tTE6DMxjonTS03XdPhgQvBcPqW1AlUjU3ffw975aYOnPrCic3ZWfe6BQcHw3PPPQfXr18HDy8vCGjRErx9fSUiA0PEYpxE/78x3LzqwyPvfQ5te0sLRXF6bviZg3xnOjjOX84EI/UW4hHrdsJZpLmsmDNKlBLBxgVjdvla1n7DFwo8/vg8viLEZGbqzlvYdWYtcMCZuR0eKCyUBAl+rTFjxkBBQQEcPGj+e1QJS9Ii8kLOiRMnsloTwvrUOXHxxBNPqL4Rz18IgwOHlPPaShQW6i4Wj5kQrY27GchX6pC4AHD2qCeZkhocUwznywxHF0wl3ycXVhSEwAMHw+B2srSIt0F9gNeW9YdH5ikXB7z86qt6PgAurq4sSqHl+PHjzGcAW/sw/3348GF2wq9XvwE0DQiAesJ7D/d64sLVvHobB0cnmPXGCmjdQ2oTm5+dKYhY88yQMhOld5J9ehmvjzhylC8EWnvbgq3smiZuQUUnWy8TGrIwYrFzF98o8PjjT/AVIUZse33jxg2+Kj/4PsXWa/HwMUNgOsTQ56JjaNOmTVn0Qv7+twTxqH1Tx+5TIWflUefEBb4JDQ2m2bDZ9Dd9IY9cIKPu0fgCGCIh5Aqb32AIe6e6PWNEi5csNfJzYSzYl+OuzM6rGHbbxsHYI8Hw/UV9M59JU+rBO5s/BsfOK2HY3KXQsYO+swY6GS5bvpzvNNST5XrffvttvtIg3tvZ2YO3jy+LZNjYSr++oxmRCzHTF38ADRpJf1fimhVj4Ih/jHiIMdZeHRsrCPGLfCPQUjYFFRFHLgaaGLVYvYYvFJg/fz7dYaogHs6IRlXiSaHlBUeY49h0YwID/12M2InrP+TgTd3s2bMhMTGRCYzyYqm40IL+HhhRISqGOicukAULFvKVPseOBcGRY6aVtRcWSosvZ5hQe2HKXSVFL/RTI79czQJPJ/PFhWOTAtjrdBsmXb4Gr564DSmZ0vQKTuRf+uFI6Dnnb0gt1RQGRKb2hOffn8HWcvbs/RdOnjrFd/q1EzgQSoySmRGmR5xk1ZLObvqfZwoFudmQGqermWjbZxC41vPmO+Okx+q3HBprQRWnRJAAWUpEXm9hyhRUFCuG5ogsXKj+N1vXwXoGjAhowYu8NSksLGSCBb9urKAsUWigvwQ+MA2CI8vRflz+t6AETmVFT4l9+/axQWvlQSwoHBTqmuSQI2flUifFhb+/Pzz1lLRaX8y6Dbl8ZZjiYjtW2KlllgkRtribxkcQ25O4YLMybO11J4zMnDI4lZHFxpebQlmTXNjhEAPjTwTBS4fjFL0rOnV2h9fWfQROHaTRBiTBfgG8/Lqyn8Xb77zLV8LFXXZCXbFixZ12QHSFxb0S8rCws5s7X5nH/q26IgUsCq0X0I7vTCM9TiouWjQH6KZc83yH/aKUeX0XG/B1k74m4qiFm6txF1tk5Wd8oQDaUnfqVL4Wy9rOvSK7+Yoac47v2fj4eCY08EKND/TDMBStUAIjx2hYtWXLFn7EMsSCwpTIhThqgaP6MYpCVBx1Ulwgzz4r9RkQc/RoEBw4pN/up4S47gKtktu24RsVMHJhLDXiQKkRRv1GwpVOxMHMNHCXpRPE2HmUQJBnKnxQdAMG7g6G148mQFictC1Oy1MvdIGHlu2BIjf1K1+Loa9D//76rcFh4eGwYeNGts4VTrhigYFTKK9evcpOnEFBQapuieJKd8QScXE77AZcOvgP3wnvvb5DBbFreuFrZkKsXgfTJCOunIjU8lv/FCKpt+iP1sp8o8LJ0wA//sw3CjzzjPrfKqFh/HiduMCL6J9//sl31ZPFixezSMeRI0f4EfMxJy2C/9bRo7pCISzkNNcbgzCPOisu8CKAeVw1vlpnWshOXHeBzDYhemHM8IgiFxrqy2Zm/ByXAiBctzB6YedZDI6NCyDBNwN+LouB/6UGQd9jgTDt31vw4/lsyMlTvsh27wawcccMaDjka35EneSc5jD7ZeX6nC+//obVYCDZ3IJYDBavGUIeubBEUP7z3Wq+AqjXsDE4NzC91gJJu32Lr3QYq7c4cw4gVlT/KW9BRcSRC1NSIh+t5AsF0IOgb18jLnUEjB07Fh577DG+A/j222/h0qXyO7dWJGjUhQXSSq2rpmBOWgQFF9Z6aKFCzoqnzooLZNEidRe6s2fD4I+d0ry/EvK6i1nKqXoJxrpG7B2drNpSVlNBt04nUS1CUm4xdLlwFl7NuQ7v5t6ECaeDYOTOUHjvdALsv5mrKii0PDDZDp78eA1ElamnxOSk2D8Ez7zUhe90YN75+y1b2To7OwvKSqWdJ8YQiws0zDKX6ycPQVSQLvzdqEMvvjKdtNvSlAiOgBg6mG9UkHfjyltQ5fUWdxkZq7LnX4AdBkZZGPobJaS8/PLLkqLXbdu23RHA1RWcymrptFRzIhfilAiaeg0dOpTviIqiTouL1q1bw9Myp0Qxa77Ut0SWUyBKiyBoB27sbi0pPMiooVZNiF5gvj701H4oKjBeyGUpDdtIL+zp+aWw43IubD+WByGxyikPJV5+1Q+6zT0MSfnmW0cHDMcBZfrpkW+/+46JhOKiIsXohSEk4qKeeUOXkH83reUrQVi06QSu9U1L42nB166kSDoN2FghJ3JQNx+LCQsX2Q2jOGqBA2SHD+EbFd7/iC8UmDFjBkUtzKBVq9aCwHiF7wQBev06rF2re59UVzCKbAmmigt5IeeUKVP4iqhI6rS4QF566WXWbqVEaGgMfPWd4SKKkhK7O06dWkzpGkmL1Q9Ji6nudRdoFx12+iCznI6/canCIi2+LTuAs4fOR8ISlr7ZBNwH/s535pNX5AlT5+vnCzKEO65NmzXjO7OyzLv7kooLM+ci/LEN0hI0fht29g7g01o/smKM1OhwvtJhbAoq3gSL6y1aKLSgyv0tDFmIr98McPwE3yiAf5uEeWAt2YgRI/gO4NChQ/Dxxx9LvB1qC+JUiKG0iDhqgZGd2bPn8B1RkdR5cYGDel555VW+0+fzL85CUrJhAwt5asQUO/DkyJt8pUx1j1ykiL7/7NQk1t1RUbToaSRWb4DFrzUGp14/8Z3l2LVYJNxF61t0r9+4kYWe84QHFneailhcuHuZHrnIzcyAwz9t4jsA/3bdzB54h1GztNsRfKdjrMahWRVsQRWPjZCnRBBT6y3QxPGd9/lGgSefXMAsqAnz+eKLNZKIDxq5YSvvp59+yu7gLU1DVDdMiVzIi0ax8FU7Ap6oWGwKCgoNJ6rrAPgGbNeuraq6nzF9IHz4nvoIYi/PLPYQM/EBgL93840Cnr6N4e7Z6vlkDFmnRIfyXfXj2oE/ID9LY6xj7+gMo555j03nzEnTFU1Zk9ToMLh1XrmyHAe+uQp3/9kp0n/7wQc9oMtMXTdFebFPXAevzddEKsS8tnQJPDp3Lnh4eoKfv2keKWgPji6eyMCJ02DsvOfY2hh/ffkxnP/3L7Z28awHnUZMZmtzSIkKhYgLR/lOw7gxALuNNBgsFL7Fr7/VrDEd8r/BUlGN9Rbrz+jSfXt2AowZyTcylrwB8OEnfCMD70Jv3gxhwp+wDCySnDfvMdizZw8/IgWHk+EodPTH8PLyYg904xRTWlrKuprw/Ch+4HFD4Ovn6OgITk5O7CFe42vq7W26D4sxJk+ezHw4fv31V3BRCJNh5EbcDv7PP3skkR2i4iBxwfn666/h+efVT/DbtgyGQQOUne9cnPPB10c6VRKFBQoMQ9yz8G2Dd51Jt4KhrMy8QsHKoFS48734t6aYUcu4FzR/wDi6Oz/bvL53U8lNT4GYa2eZqCkVbqHdvRuyok/vgDZwO/gSc0DV0rmzHcz+4CcoKDOvg8IY/30+Hg4dlN75Yaj1+BFNMUKz5i3AUTiJIklJSaymJzw8HL788kvo1093Kz9nzpw7ff448RRHqhvjdmgwfPOSbjZO27tGWxQxCjnxr96I9XVrAZ7QNRso0qknQBD3Z+rqbwsTO0nvFs9Gl8C+EE1oA6PU2ckgXFjYVsKlQICeA/hGAXQ1XbJkKd8RllJcXMwurJs3b4JbtwynYSsTFBsoMrSPgQMHMk8YS8C/r4iICNYdoyRGP/nkE/jvv//YGgs5//vvEFsTFU+dT4toWbBggcHisU9WxvOVPoVF+mdQHPxkbD6D0dSIo+YiVd0ozJOG/zHvrwUvdhXlMIrOk+3uHgvdxk6HHvfOhDYDRrKaDOzUSI6QzlR4bOmzVhcWyJiZD/GVDox4/fa7Zjy1uPbiwQcfhF9++QXOnz/PrIbFc0nEdsoe3j58ZZidX+tu9es3bmGRsCguyNcTFshUIzVuIaE6YYHIXTkReb2FkrBAlr7FFwq0bt2GhIWVwFTBkiVL4Ny58/DZZ6thwAADiq4SwUgDCoITJ06wiMOLL77IjLV++OEHs2ejaAVFWpr+NGCMuogLOUeMIKvvyoTEhYg333yTr/S5eCkEvvxW6rugpaTElhV2ynlSfQArIyUyhK+Uqa7iQo6dg/Qq4unXWG92RkUSfeW0pPPhoVlNINutYqx9C73nwuCh+gWm6777jj1nZ2ayqMr+/ftZrluMNg2CiMWFZ33j4uL8vp0scoFgGqhpVyMtSSqkKhQSjx4piBUjaWgcsS7GmL/FkEF8IePbDQD/7OUbBQz9DRKW4e7uzmouDh8+Ardvx8GuXbvgjTfegCFDhjI3WXQsViqIxEJ3tLPHj2NnXbdu3ViUAf8/Q48+ffoyR9UWLVqCn19D4d/3AFsj54OYmBjWOvvCCy/AsmXL4MoVXRTSEIbEBQoLscX4hAkT+IqoDCgtImPevHmwdau6Le2+fzpBuzb6Q3x8GqSBq6vUdRHNhpq25hsFnN29YPj81/lOH+zIyE5Rj5hUFXmZaXD9oC5B7+LVAIbNW8J3Ggpys1gnSUWTGnMLbp3ThTrRDXLZ1o8hHTRzQioC28Qt8MZ8/dng3637BoYNHQo+fn7gVa8+9OrVCy5e1E34wggGHkO6desqnEA1ZmrPrv0BfJoEsLUS+TnZsHrBQ5CbpUk3NencB/zbGvHoViH4yC7ISZXWpnz7JcDjj/KNCpOm6fwoGrrbwLx+0ouRvN5i326AkcP5hhMvvJUxtZKmMgMLLax/5xEgovaBAiIkBG3DQ9gzziPB8esYyVACR7TjHBLx1Fc5e/fuhc8//5xFPvBzxaxaterOgDSMHB4Rj/IlKhyKXMh49913BZGg3xWgZdmHyjUQBbKOEaSJIKrHj+UbBbA2ISctie/0qSmRC0dn/d8XjkyXRzSsTUFOJkRelJ4wxt/XpEKFBVLqNxsG3q0fvdi4aTN7xugF8vPPP8P48eOhTZs2wkXz9zvCAklM1KVIPL0NdyMd2PrNHWGBbbmWCouCnCw9YYFMmcQXBhC3oLZsYLhLBDu7lfwtXhL0p5qwQN4RzWwhah9YPDp8+AgmBD75ZCXs2PEXZGVlww8//AiPPPKInohA4YAunhs3boSUlBR+VIo2cqE03wTFvJZ77lGpLCYqDBIXMnCgznvvqffIHTocDOs36zt3KokL5LG5fKGCobqL6iouxDUWiIOCuKgMbp07wlIQYroMqBzTpVHT9dMux0+cgOAbN1hFfU52FhMVGILGOzSsaheTkKA5Wbq4ewriTN3TJC78Jpz5R3c3H9DdcuGk9F4bOxqggZFO2MOCfhNHnZsb8bdAV065dcz32wC2becbBV5//Q3o2tUy0UTUbB544AH45pt1cOPGTfjoo49ZGkaLthME0zhRUVH8qA6tuMC/OTHobSFOPeIsEaJyIXGhwDPPPAPDhsliuiLeff80BN+UFgviALOyMv2T7gPCXaG3AY+kZAN1F5hbt1Ux+KpK7GSix8FMnwVrgA6T8qgPjk+3a/E831Usds0ehe7d9UXBxk0aD4pMA5MixTMO6vtrTo5q/P2NbvBGg6atwMPH8iJVbEGVM81IRxOyV2T5bSu8xQPqGY5cyKMWsbEA/zPgh9W9ew928SCIRYsWsQFjcudknL760Ucf6QkMbGvF7hP5IEBx1KJPnz6SqCFROZC4UOHDD5fzlTJvvadvea0WvTA0zMyYU6edY/Vz6pRHLsTzPyoLpQulnb0t3DxpYFCFlZk4W7/6HLtGMISLhloYvVBCLC68GzXlK33QzyLmxjW2xvHzTbtYVsSJ4ATUonz9OROT7+cLA4gtv3EKqoNM78rniQyTjW147kWAVP16uzsY+1sj6hYBAc1h1apPYf/+AzBhgi7igB0mSgIDoxdycXHu3Dm+Ahg50og7HFEhkLhQoWfPXvDOO+/wnT6nTl2HT1a35TsNcqdOLbMNWBjgCd9g3YVD9UyNiP05sL6iskHDLjmZGaWwefkq+OWtiZAcfoofrTi8Oj4FbdroR5a2/6SZH54hCsuKiY7WFbo2aKTcTpqdlgp7N67hO4AmHXuBg7PlLb7JUfopEawHqmfEWT05BeD0Gb4RUEqJxKRL65DEkYtPPwf4fQffKIB3qtQiSCgxePBg+O2331jaRAsKDLQzFwsMFBfitAgKi9RUne/QffdRSqQqIHFhgMWLl7A3uBpfrDkMBw7rzF8KCpTFRa8eAE0NWBKkx+nnErVU17oLcZ2Fk5s7X1UehszFrgamwRcvvASHv54BuSn6MzSsRW6RF0ye1ZvvdPywXVNcgJbg2uJOMREiT476/spvjD/XLIeCPE2kwcWzAfi17sTWllBUkAdpsfp236akRPRbUPVPGTGZunqLwXfzhcBJQd+9oO6sz2osMMdOEIbAgk+xwEBDMLQy10Yr5JGLkydP8hVAjx49oXfvPnxHVCYkLoywcuUqvlLmtTeuCXd3mry5WloEmaQ/9+oOWD+gRnUVF+LIhaNz5ddcuHgan8dxcE80fDRvDgT+sgAKc6UOqtYioN888JBpKzTV2rP3X7bOyNCPXoSH6UK2vk2a85WOq8cPQsh53QkyoIeRueVGSI5QLhqeYkJKRCwuvJxtwN9DP3IRm6ETF1p/C5wdsuBZzVqNlSt19SQEYQi5wMBJp9iBhXTq1Im54GqRpkQoKlZVkLgwQvfu3Q2eBOPiEmDx65q76NJSGygqVh6gM8lAZK6mRy4cXSs/ctGkk+l3I79vuwpfPj0JYo+9AbY2po9pN4XUws4w+SF9gbB12zb2nC/cUWVlSos7b93SWV36NZeOm87LzoLd6z7lOwDvgLbg3sBwq6ox5O6lyMR7ATxMyGYdEo1zaeWtLyxyCssgPU8/cvHEUwCXNTYeimB3yNChw/iOIIyDAkPsZYGOnlevXmXiAgcBFgmK9to14WYvWZcypS6RqoPEhQk888yzEtUsZ9/+C7DiM41bllpq5J7hAJ6efCMD7ZhxUqUS6HSJxXzVDXvRSPiqmODqVt8H2g0ayzpqTCEtrRTWffIfrJ43AiL2vwh2RTH8I+Wn19gZfKXj1OnTEBQUxNby2ouwMI2YrN+wMTjK6ij++e4zyMnQVD+iT0jTzuUL6abHR+nZtSOGioy1XL4CECnSvc2VUiKiqAUyeBDAqtUAm6WjZyTcc8891B1CWASKUnQN1YLRCw9BJXfs2JGlS8Tj1XGq7oAB5Yv6EZZD4sJEPv/8C2jWTN/fQsuatUfhz79bCuJCPdIwQlZFLyYzQf1iVx2jF+LiQkeXqvG58PBpBB2H38dmjphKcnIJbFxzGpY/MgOCdjwBToWX+UcsJ8NhAgwboV8Z+e369ey5ID9fEr24FKgp4G3YQmrfGnbpDAQe0nljoxOnWMRZQkqEfqszuphOHM83BsAR62KULL/FKZE+vTSeGC8u5gcUwAsB/i0RhCVgJPnNN3XDaU4LIv6vv/5i0Qss9jx1SlfITYXCVQuJCxPx8fGBtWvX8p0yL71yBk6fU6/cHCQqdpNT01Ij4uFkVWWihaCFesdh90FA94EGJ8zKyckpg+0bg2DxtKcgcPsscM4t37TEYZP0T2R/7fwbYm/fZut03ot56dIl9oz4t2jDVwCF+XmwY82HfKeJzPi2aM93loFDyjByIWfGNOH3ZoJm2adxTmY0E4SFu5NOXKTklkFYSikEJeoKaxMSAe43MtJlzZq1zFyMICzl2WeflaRHcLpwvXr1IDAwUNLmTV0iVQuJCzMYM2asQYtizPk9/2KGcJL15Uek3G0gQmeoqNOuGrajir0uSotFJgdVBE5H7TpmGrToPQRcPIxM4ZLx+/YIePXh1+HUd1PAIe0XftQ8nFstgGbN9FM0GzZuZM+FhQUsenHhvK6IoWk7XQfIP9+thoxk3YkRxVJ5wZH9SpiSEikVNIPY8ruRhy2ciymB7YHF8MHBQvjmVBH8JKwz8nWRi+gYTSGnGjhmfvr06XxHEJaD6REcyIbkYldWdjZcv36d7ZG2bdvC4MEKHvREpUHiwkwWL17MRmmrERoaDbMeU45e4BhqF5XyhLTbBjpGKnhGhyXYiGodlHL6VYV3s9bQ6Z7JbBy7u3dDftQ0/vk7EZY+uhr+en805F5fDk72uomKxigodoXxU3vynY6ffv7lzsTGtJQUuHhRFyFp2r4Le75x9jhc2P83WyMolFzrmTaG3RBJEfriokVzabuoGujKWVDANwJnokvg35slEJ6i3gJsjO+//x7mzp0DCQnVbxgfUbPA9Mijjz7Gd8AGBGaK2r5HjSLjrKqGxIUFrFv3LXTpoj4HYf+BSzDvKeWZ0331bREYOIQLB5kpUdEDwCxBXEhZWlr1kQs5Xv7NoP3g8dBu0Dhwq68cSVLj/Llc+GjpLvhs3niI2v80uJToJpsaovXgeXylA819tOPYMbJ1+LDma/k2bQEu7h6QnZ4Kf37xATuGYI1Fk04qbxIzwIm0RflS10LEWNTixk2AV5YCPGhCdMMStm/fznwHbtzQ72AhCHMQj1DH1lSxkRZ1iVQ9JC4sAKemrl+/HpwNJK43bDwGr72jP5/krgF8oUBmoiY/Lwcv5Da21eulksw8KZN2DFQncBZHh6EToPWAe8DVy8CQFwXiE0ph/ZpAeOWBZ+H0+qlgk2hg8pZAnm0XGD9Jv+h3y9ZtzBI8PSMDrlzVmFkFdNSIU6yzyBUVe2KLrTXEZGK4plNFzhwFt1j0H9q0BWDAEIAO3QFWfAqQo+8UbjWSkhJZxwjOiyAISxk2bBgbNCmnefPmVMxZDSBxYSE9evSADRs0+XQ1PvjwP1j5xQi+09DbwPyc7JQEvtLHzr56RS9KS8V+EfpdBNWNev4B0HH4/dCyz1CLfDl274yHN+evge1LR0LS2bfBoVS5u2fARP2aAryj+nrdt5JhSi269mKzQ26eO8GPCKK1ng/4NJdayltCXkYqa2+W078vQBtRg0qsoGWffwnALwDg0fkAp8/yD1QCKDAeemga3xGEZYgLO7WMGTOGr4iqhMRFOUDvi+XLdRX+Srz0ykFY/73OLKi3flr+DjmpuoI+OdUuNYIVf5zqFlUxBE4W7Tr6QWjWbQDYWzAULuh6PqxZth+WTpkOx9ZNg6ybG/hHNJR53w/de+obmuC01F27d/MdgE/jZvDP+tV8p6F5OZ04tURdPs1XUubO0jzHxQM8+wJAU0FofL5WELWml5YogpG88ePHw8svvwxvvfUWjBw5kn/EMJgnX7p0Kd8RhPl069adr3RQSqR6YFNQUFh9Y9o1hBdffAHWrNENmVLihy13w4ypx9m6QSOANIWZVvUaBcDAGcqeySg8ctL1h3VVFTg4LPiwZgLp8Pmvs5ZQOSnRoVBSVMh31Q80LsOOisSw64oTQ02lfj0bGDG+LTTvNxO8WtwDaZdXwWdvaqyJlWjcuj0Ti9HBV/gRQWy0aCeICxMqLY2QGnMLbp1TbqsNPAOwTtBCa7/mB8pJ06ZN4b333oNHHnmEH9GBOfDPPvsMvvrqK35EnStXrkK7du34jiBM58iRw5LiTZwzcuuW/hwdovKhyIUVwPkjU6eqd5AgD88+Dr/v1BTq9VKJXmSn1JzIRanIUdTGpma+jbCd1r9tV+g29iFo0XuwSfNKlEhLL4PffrgJqxa9Bd+/MARSY8P4R5RJiYuRCAt8bc2xM1cjWxCgUZc0AlYOdil172cdYVG/fn344IMPICQkRFFYICgWvvzyS+aa2LOngXCdwNKlS/iKIMyjdWupZwraBRDVAxIXVmLbtm0wfLh+AaeYB6adhx27ukFP/Ugeo7gwHwqy9adoIpUlLnLTk1WtyMWIO1vKRCmSmop3szbQacQk6DB0IjQUBIc5hlxiwsJL4ftvAvlOmYJcaesudoeUxygNoy4YfQk5vkf1tRMNjbSY/v37w6ZNm9g46yVLlhgsaNbSokULOHjwIHTu3Jkf0Wfnzp2SwVMEYSpY0Dl79hy+I+Os6gSlRawI+hmMGzeW5ZIN8czTHWHNWuVq/n5T57NhVXJKS4ohOVJ5uqU1CTtzkBWWNmrfA/xadeRH9Ym5egYSQq+x9dB5i8HVS9+Cu7qnRYyRlRzP0iZpsbf4EeuDvze0MFeiMDebtZPmZ6eDo6t0ylhhbhbkZqRCTmoS5KRp7MQrAoxSzJ49G+bPn29QIBgjKSmJiW8cLKXE008/A6tWGZ5ATBBKYNfR7t27oXHjRnD//ZP4UaKqIXFhZaKiomD8+HEsZGwJnYZPguY9lXPvSRE3oEzSpWF9Qk78e6fTAJ0uA3rcpWhGFXJS+LwEzefdNfN58GrYlK3F1FRxgd8zirnSkhLWFYMeJAk3r7C0g7XpMGQCa+vNEH7nWFdTkIOCIgeKC0UOVpWMt7e3cJK+nz2UqvEtBf822rdvL/Ej0IL2zRERkeCi5jJHEESNgsRFBRAcHAwTJtwL0dHR/IjpBHQbCJ1HTuE7KXgHXVRghfi2AeJvXobY67qWSaRh687QtGs/vsMoSgkE7t7GnpEe985kkQ45lSkuMB1QIlyQi4sKhOdCdnHWrIVn4VEirDXPIuHAHsVMsGmPVSbOgnhzdHaFzCRlf5PKBK2UH374YZg7dy7cdddd/Kj1ef3112HZsmV8J2X9+g0waxZvaSEIokZD4qKCuHw5kN31xcXF8SOmga2S/act5DspGFFQc/G0FniRDj60U+/fwfA91gZ4NmzC3B9DT+lGZrbqOwzaD76X73RYQ1wU5GZBUV4uFAoPvKNnz3k5TGRhjQoTEQX6d8KEaWAdxYIFC+Chhx6qlKgBpg6xol8pejFw4EA4dOgw3xEEUZMhcVGBYO3FpEn3Q3y86bMU0ODpngW6kcJiMLdekfl1LXjBDvpvh+LMECc3D1Z8iK2oWtRaaA2JC4wSYN0A1hQU5mVz8YAiQhAOKCYwNUCiocLACMVzzz0HvXoZcHWrIObNmwcbNkj9QbQEBl6GDh068B1BEDUVEhcVTGDgJZgyZQrExCg7Oiox8ul3JSPNtWA0Qcl5sSJIiQqBiAuisZhGENddYFQhPyuDDc7Kz0rnkQeMOqBwEJ4FEVFZ6RJCCtpuf/HFF9Cxo3qxbkVz8uRJ1dTLokX/g48++ojvCIKoqZC4qARwFPDUqQ9AWJhh/wMtd89aBJ5++p75eGefdrtyDGKwCyH4iG5SpzGc3D3B3sGJCSASDtWTlZ+sYF0f7h76DqKmUFBQAEeOHIHjx4/D7du3WQeInZ0dm/EwYMAAZolvb68/dl4JbCHEryGHTJAIonZAPheVQKdOnWDXrt3QrVs3fsQweZmaEd1yxJNIKxpz2y/RnwNTNiQsqh/YifH7r7/A/RMnQlGhcQ8TMdjmh+6zaO/t5eUFo0ePhnfeeQfOnTsnCOap8MMPP8AzzzwDffr0MVlYIBjNUwIFx7FjpkfMCIKonlDkohJJTk6G6dMfgqNHj/Ijyqi1o2JXA7ajVhQYGclNT4H0uKhK8dQoL+jB4Obmdufh4eEBDRo0AD8/P2jYsCH4+Piwta+vL9iaMf+krKyMvVZ4Z47PCQkJbJ2YmAgRERFVOs0Tix7RFTMgIEBiYlVYWMh6/Vevls4rQYYPGwbffqOx5vTw9AQ//0ZsrQb+/Pi1Pv30Uzhw4AA/qgEnTqI754wZM8DGxvKBdf/++6/qgKlnnnkWVq5cyXcEQdRESFxUMiUlJfDwwzPgzz//5Ef0adl7KBsTrkTirSA8+/OddUCjKHyoRUyqApxbgQIBw+etW7dmTo/4jBc3fK5qPwR0lERra3wODg6Cs2fOwo2bN5kAMUb9xi1YG6qLZz1wcvO805Kq5fyOjayoVgns6ti+XX30e9euXeHq1at8pwGFV+AFTXuxs/B7a9IsgK2VQCGFEQl59ACFBEYoPv74Y5OcOU0BB57lKViHtmrVCoKCgvmOIIiaCImLKmLhwoWwYcN6vpPi364b9Jwwm++kYEQBPRmsRfCRXQansVYEGFFAgYCPNm3asIsJPrQRBwzj1ySyMjMgkXcEZWZmwrXr1+HkqVPw5VfSQR7dx82Axh2Nd2ec+2M9E3tK9OvXD06fVp56ivzxxx+KKYfffvkZunfrBnb29tCilWjuugi06Z42bRqkpKTwIxrwNVq3bp1Re3tzGTt2LOzdu5fvpFy9eg3ati3/+HmCIKoGqrmoInBapJOT8jwJ7LBQw5p1F2hvXdHCAtsKp0+fzu549+3bxy5cmGI4JVx8cR4L5u+xLXLw4MHMvbGmCQukrFSnzz09PWHggAEw//HH+REdrvX0LdKV8G6mfPFHMC1jiMmTJ7MaHzlnzpxlzyXFxVBUpF938d1337HpkmJhgU6dmGYJCgqyurBAsHNFjd27d/EVQRA1EYpcVCFdu3Zho6nloJfEiCff5Dsp6XGRrKXTUnA0uoOzK9jY2rIZIrfOHWZFmDgYzd7JRfiYCwvRs7WTs/CMDxewE0QNWmFnJcdBVlI8pMaE6aVRsL0RJ2D27t2b3WGjhwKGvms7GWlpkJykL9K69ewFubm6Ue4Dpj/NUiLGyEiIgRPb9GsntODXNJQWwlbOxYsX852GsWPGwJrPNV+zUZOm4OqmG8y2efNmyXRTFHnogfHoo49WaPrpzJkzzMRLiUGDBsGBAwf5jiCImgaJiypk5Mh7VIs7x72wgq+kZCbGQL7K5FRTQSHh4e3PDLvKw/WDf0IkH/HdrWsTCLxsupdHbSI9NRVSkvXNzcaMGw9hommfAx56Cuo3acl3hvln1ct8pQ+2NhvyqcCCU6xREYNDnY789x9b+/j6gVd9zXh5NHh74oknWEoK01QTJ05kdRuVARaOovhUcutE4uLiWYEuQRA1D0qLVCH+/v58pQ+OPlfCxrb8aRGMVKTHR5V7EJeHj+77j4yS5unrEqVlyiPn8YJtKR6+jflKH2OpESx6xa4SMbdvx7FR6Qh2lmjB9yCOPF+/fj0sXbq00oQFguKiT2/1GhRMoxEEUTMhcVGFNGyoLi7yspRniOAETWuBAgZNuXBGhyWgcZaWjIx8yMrK4jsCweJUMXgxNRX3BurCxJi4QO69V3/WS2ioxsStSCQu1MCuJizwRNHx7rvvsvkjOCUVizCxRmbJkiWsXXTr1q3s80zpkpFTWlpq0H78v/8oLUIQNRUSF1WIn58vX+mTX0lGWuhtkRoTDnkZqWxtzmRQJ1cPvtKAI7UJHXqRKTPEhYeP/ph7Ldj+agwskJUTfktjjFZkxOgMIxmdO3dmBZePP/44vPXWW/DNN9/AX3/9xbo7vv/+e/jwww/hpZdegtmzZ7PPQyGF7prYKott1ujmaQx8r/Xt04fv9EEvDIIgaiYkLqoQHx8D4iJHua7CmpELMVkp8SyKkRx5g7W74jorKQ5yM1KgIDdb0XkTPRrEWDJivjbj31AafTBVWhQKv29D4Eh/Y2BBrRxt/UdxcbFqFAVFA07zvXFD36wNu5tQRGAHEKZdxo0bx8y0nnrqKTZK/e2332b24mgD7uDgwP8vdTBy0VP4XDViY2NNitIQBFH9IHFRhaDfgxo44EuJyrAARx8NjGLkZaWxjpKM+Cg24TTpVhCLcmA3A5vOKjNopMiFFL2aCyORC/x9o+061sPYOSq3KSOmiAs0upLXXURG6i7USu2oCHaZoPjAfwNniFy7do1ZcmPRJT6wABRbU0+cOMFcPNH+e+3atfDee+8xYYFRDCwmNcURFaMb+H127qzfOqsFZ5kQBFHzIHFRhaCPgBpq7aY2thUTuTAFvNvF+oyCHM0cEZzQau+oc2skcSFFLh7LZIWfJcVFrPMHxVpi+HUWKcKJsog85SQmNDSUrwyD8z7EREbpIkvFKuICwWFk2I6Kk0vRM6NRo0aqnizlIT9P06bb20Ddxfnz5/iKIIiaBImLKsRQ5EItNF6Zw8tMAb0wtFTlzI3qiNzjA6MSOBsG0074jGPtsbUYxZocbBc29FrLLb6VwPSEGEwxaNMhxuouKgNtXYYhcXHzZghfEQRRkyBxUYUYjFzk68yXxFRUzYWlOLjoLqBUcyHFXWRUhaAJGQ6fw7QTPhvDyYAPiVJNhBy5uMAOEHRHRdTSIpUFpl60XStK9SFakhTMyQiCqP6QuKhCcFqnGkU8ZFzdcXDSiYuYmLppoqUGDgwTU1aq7IehhiGTM1PEhVKbZ0xsLHsuNnP0urXJFw0s8/XxYVNelTCl64QgiOoHiYsqBseEK1GYZ7hjoLqAduFawsI0PgqEBnlaxNyBc2i9rgYWVZqC3KkTizORqk6LFBRIvVVaNG/OV1LM8QYhCKL6QOKiilEb1KU2cru64eAivTun1IgOeRFkmRkeIoiDk/pcD1MiF4g8InA7Lo49Y1oEW0GVwONojoVtpi1btmRdLzhyHR84mA2/JhZ7PvbYY8xIC500k5OVHWXVKMyXvr/VIhd1YTYNQdRGSFxUMYZmJ+RnK7t0ViccZeLC1E6GugJejLVgzYU52IuiQnKUBt4p0axZM77SgDbgCOv8Uai7+PTTT1m3CJpjbd++nRWBaus0EHRhRQF58uRJ2LhxIzPSGj16NEvxofjAdlRsTzXk2In247m50m6opk2a8JUU8e+PIIiaAw0uq2LGjBkDhw5pBkrJGTT7f4ozJrBtsbqAJltB//3FdwDffvstc3WsS6SmJEOaaFS5mMHDhkMcjxY07tgLGrXvztamgJ4iOLVWDfSckFuMy0GbbjTG0jJq5Ej4au0atvZv3ATc3KV1HSgKMjMzmYjIzs5mj5ycHMjLy2PTWLV+FygQtA8szsQHFoxi1APX2khHt27dmMmWmPS0VEgRCRZk46ZNsGy57vvUguP6N2/+nu8IgqgpkLioYmbOfBh+/fVXvpPSb+p88A5oy3c6qpO4wPRN4O4f+E5jwrR8+XK+qxsYEhdjxt97pxYFhQUKDFNBH5GQE+oW2IcPH4YhQ4bwnTKrV6+GRYsW8R1Or+0Kv//6C1v7+PmBVz3NdNTK5HZ0tCBWpAXLX371Naz67DO+0/Hqq4vZbBOCIGoWlBapYixpR61O2Ds6SfwYKC0ixU1UM2DO3BYEf7eGCAkx7gEhf38liiIGVdGOWpCfrycskLx8XfeImHbt2vEVQRA1CRIXVYy3t7qRVrGsoh6pjtXzjq66ugsSF1KcXXQdH+Z2i9g5GBYXphR1ysUFplK0YM0FtoQWFhSwNaY1Kvr9lZOj3AWlrQWR07FjR74iCKImQeKiivH2Vi/oVBoWJreQrg6IizpN7WKoKziL2kmVXk9DGItcmPK7VioYTuKdHTnZ2RAbHQXRkREQeSscIsJC4VZoCHvGPR6PjYqC2zExEH87FhLj4yA5MQFSkpMgLTUFMtLTISszk32dvNxc1l6K0RBDIgU/X4mr167xlQ6cO9K9u+k1KgRBVB9IXFQxhiajlhQptKOaacRUGTi66IoCsfDPUKdAXcPVVdfxgbNEzAEtwA1hqGMEUw8pSYmQpxApSExQf31QFKA4wEgGRjTy8/ME4ZDDBAQKAxQU6ampkCoIFBQaKDhQeNyOiYaYyEiI4iIlPOQme6BYiQznQkUQMkodKnl5+YoeKQMGDAR7++pld08QhGmQuKhiPD2VTbSQYm6PLKa6p0UQMtPS4SxqJy01U1wghoy05NNR0U4bL/ws2hAdDelpaWCnMOguISGBryoWfK9quke4UBG5coo5c/YMX0kZPnwYXxEEUdMgcVHFyC2ixShFLqpnWkTazkjiQoeLqOaiROGu3RjGohfouIkpicT4eIiKuMVSFhht0OLsrJ9aiU+sHHFhKtt/+pmvpIwaNZqvCIKoaZC4qGLsDEy+VIxcVMe0iGwGBtVd6HARDXYzNy2CGKu7uHDuHEtJZGUqG65h3YKcyopcmAJ2r+zbv5/vdOCY9969e/MdQRA1DRIXVQwaDalRrBC5MLfjoDKQT++8fr36+HBUBoZeQycnXeShpNj8eR7GIhe3boXzlTIODg58pUNr6lUd+OjjFXwlZcaMh/mKIIiaCImLaoxSd0F1nDkij1zIawFqOzbCf2q4iepRLKq5cFSvuUDEraVKKImLBAMFnWpEREbCmTNn4fSZM3qPwMuX73SgmANGLHb8pXN3FfPoo4/yFUEQNRFy6Kxijh8/DiNGDOc7KfUbt4AB05/mOw0ZCdFQkJPFd9WHq/t+lXxf1bHwtKLISEuD5CTlC/a2H36At97ROUz2nmTeRTPm6hlICNVv09TyyJw58PprS/lOmTbtO/CVBh8fb3h4+gzWBo1TU9OxAyQjAzIzMoXndPackalZx8bEQiyfpGoMrB/q368vDBs2DO6fONFgPRGO55805QH278oZOXIU7Nq1i+8IgqiJkLioYk6dOgVDhypbOHv4NoJBs1/gOw0p0aFm+yVUBiEn9kJmou4ihCPBO3SQXtRqK9ieiW2ZSvyzZw88+7zOfrv7+BlGoxFi4m9ehtjr5/lOnzGjR8HaL77gOx04D+S/Q4cE8XoCfvntN3604nF3d4cB/fvD8GFD4aFp0/hRKTi3ZPIDU1k0RIm9e/cKAkVZcBMEUTOgtEgVYyhfXyIr6GQeBNVQWCBOrtKWWhQXdQUDLyHUry+d3WFuWstQKyoidrZEjxEUFG+89RYMuPtuWPTCixUqLLATpkeP7jBn9ix495234Y/ffoVL58/B11+uVRUWqampMH/hU6rCYuzYcSQsCKIWQJGLKiYwMBD69evLd/r4tuoIbfqPhHqNAqCoIA/SYm/xj1QvEkKuQMy1c3wHsGzZMli61HC4vraQlZEBiQnKtQ83Q0Jg/ISJfAfQfsi94N7Aj++MkxEfDaGn9LsptHh4eMDUKVPg/IULcPnKFX60Yrhr4EDo2qULdO7ciUWlWrVsyT9iGn/v2gVvv/seS8MogT/L+fMXoHnz5vwIQRA1FRIXVQzO4sCTtTF8WrSHpl36gp29foFedSAtNgLCz+pGx8+cORO2bt3Kd7UbdK5Ep0olsNBx4N2D+A6g9YB7oJ5/AN8ZJzc9BYIOKRc9VgZdOneG+yZOgCmCgKnn5cWPmg6Oad/x107YIrwXUGgZYuvWbfDggw/yHUEQNRkSF1VMhnDX6+enbgEux93bH5p06iU8N+RHqgfyiyB6FJw7p4tk1Gays7IgIU696FFcUNmi1yDFMfpqFBfmQ+DuH/mu/Hi72oCvuw0424PwsAEHbuCZXwxwNlp/aiuOaB8zZjS0bd0GmjcPgNatW/OP6CgoKGCW7yik0EMjMTEJYmJj4cKFC6yTxBSeffY5+OSTT/iOIIiaDomLakD9+vXYHZ45YJqkSZG22REAABL3SURBVOe+4OzuyY9ULVgLcmnXNr7DfLyL2T9TTSUnOwviDXRU9OrbDzL5wC6MPjVs04WtTeXizu/NGtfepk0bVrswevQo5uC5YMEC/hGA+f0dwMdNuUjk76BiuBxX+SZtM2bMgE2bNvMdQRC1ASrorAb06NGDr0wnPS4Kru3/DSIvHoOi/Kq/iKPZk9jwCYsLw8MNGzzVHgxUdAo0EBV1WuJTIrdXV2PSpEmsO+TateuwcuVKGDNmLBw+fJh/FKChu42qsEBGtrUHN0fDP4u1WbJkKQkLgqiFkLioBsyePYevzCc5MoR5TGC7YlV3kji5STtGLpsYEq/pGOr4QcRjz00VF/h56bcjIfrKaVbIa4hOnTpBcPAN+Omnn6FPnz78qIZ9+/bxFUBAfcN/7pgqmd3L/k6qpCIZMGAAHDlyFN5++21+hCCI2gSJi2rAY489BkOGKHtdmAKGzNEP4cq/v0BimLrhUkXj5CZN0WAnTF3AmLjw8fHhK00NhRgUhNkpiZAccZMZZqFfyOU9P0Hg7h8g7MxB4fW8blQ0Yh1ES4XOjUuXLkKyyDkzoJ7xqEQDVxto7a07LdjZWUdpoFkXRlY+//wLQXRegcOHj0D//v35RwmCqG1QzUU1IS0tDe69dzycP69umGQqji5u0LhjL/AOaMOPVA63gy5A3A2doJg8eTL8/vvvfFd7wVHisdFRfKcP+k78uP0ntsbojoePP+RnZwqPDCgukIoNS3jqqafh008/5TsdK1Z8DK+//jpb2wl64fm7HcHZhGajnwKLISxFU3sxf/6TsGTJErhxI5jNjImPT2AGXXl5uewZH7m5eWysuhZsKe3cuQu0b98eOnbsyCIrWINDEETdgcRFNWP58g+Ei8IKdtIuL87uXuDfrluliYyUqFCIuHCU7wBatWpVJ8avFxYUQHRkBN/ps1q4W/9i7Vq+sz579uyB4cNH8J0OLOjU1ly0amAL03uoT+AV89XJIkjL05wW8L343HPPszVBEISpUFqkmoEFbiEhofDSSy8zK+XygHfGeLG/svdnSAwPMqvjwBLkaREs6ESr59qOra3hPyO5S6c1mTNnjqKwKCwslBRzBtQ3vVBTKywQ7DwhCIIwFxIX1RBvb2/mcBkefgu+/PIrGDVqNP+IZRTm5UD05VNw5d+fWW2GNULxSii1xV6pYNfI6oAxceHrq6u5sBaenp7w6quL4dtvv+NHpOzfryvkRJrXM+1PXSwskDZtTPfkIAiC0ELiohrj5eUF8+bNg7///huuXw9id6nlAUUFdpUE/vMj3Dp3GLJTDI/rNhecg2FrJw29X7p0ia9qL8bEhbhbpLxMnDgRNm7cBElJyfDuu7ppq3LEXSJezjbQxMu0yEVqrlxcUOSCIAjzIXFRQ8COALxLxWjG/Pnz+VHLSY0JhxtH/4FrB/6ApFvBVmtjxToPMXWiHdXGBmwMCAwPd2mLrhpNGjeBgQMHGkyH/frrb/Dwww/znTpicdHcwpQI1swYE04EQRBK0JmjhtGkSRP44os1TGRgC2t5yc9Kh6jAk8xdM+Tkv5AaHQYlosp/c3GSXUjrSjuqoYuwu7sbX+nA4VwTJ0yAD5cvh7/++AOuBl6Cw/8dgC2bNsKgQbpZJGJMjSJERERAiGiOR4CJKREkVeTHRikRgiAshcRFDQVFxldffc2KP+fOncuPlo/MhFi4df4IXPp7K4SdPsCGkZkb0ZBHLupCWgQxJC7c3KTi4pMVK+DAv3vh05WfwNQpk6FTp47g7Kwbrd5CZSpo69amiQt5vQUVcxIEUdmQuKjhBAQEwLp130JoaBirz7AWaC+OU04xonH94J8suoHj3ovyDbtFyjtG8vPz2QCr2o454sLe3nBLKA4IU8LNzZWvDCNOiWCtRT1n08VFZr5OXLRoQaPPCYKwDBIXtYRmzZqxzhJMlyxYsJAftQ55mWmsLiP87CG4vGc7XN3/G4Se2s8EB3afpESHQlZyHDOGQgMvOadOneKr2oshcSGOSiAODoadrNq2VU5HZGeb5n0isfw2IyWCZBXoxEXjxo35iiAIwjxIXNQyMF2yevVqiI6OZmOsXV1Nu9s1hwJBRGTERzPBgd0nEeePws1je9ggtZvH9/DP0lHXxQXi5SmK6EgbMvTo0K4dX0nJzjbuGXLixAmJAVtzEyy/tZQK3xeOXtfSuHETviIIgjAPEhe1FD+/hvDJJ59AWFg4LF36mlXbIc2lbogLwzM4nEX21yWlhs3MMNKB1tly0tPT+Uodcb0FDiIzNqxMjDglglDkgiAISyFxUctBUfHWW2+xmgy0csbIRmWDnQuZmZl8VzsxFrkQp0KKiox343Tp3JmvdJhipS5OiTStZwvxWWUQklzKHrEZZZBr4J/OlA1sJXFBEISlkLioI2BRIc6IwJqMLVu2woQJE/hHKodjx47xVe3EmLgQ110UFYtyDyp069aNr3QUFBSwNlM1MjIy4MyZM3wHECoIiu/PF8Evl4vZY7Ow/uxoIXx7pggOhZdAYrY0UiGOXOAkVycnJ74jCIIwDxIXdZBp06bBb7/9DikpqcztcfToMfwjFUdtT43YGekAcXJy5CuNSDBG506d+EpKcHAQX+kjjloYIkkQFSciSuA7QWT8ea0YknI0oiKTijkJgrASJC7qMOgEiW6PO3fuhMTEJOYAOmbMWP5R61LbxYWx9lInR10UoCDfuLhor1LUaWhWy2ef6Y9dx1HrWHvhqFIScj2hFL49XQRno0sgS/RtkbggCKI8kLggGDjHBGeX/PXXX2xuBUY23n//fZg1axb07du33BNa67q4EKdFCguNiwsXF2fo0aMH3+k4efIkX+kjtlp3dwTo5m8Dg1vYwIAAG7iruWbdVTjW2FP4fmV/+ftCSiA8pZTvqFOEIIjyQeKC0AMnbmJNxssvvwLr12+AY8eOsxRKenoGxMTEQFBQMJw5cxYOHvyPheLxERh4GW7cuMm/gj44er02u3XaOxgWF+KCzmxRq6ghevfuzVc6sNVUifj4eEm6pa2PDTSQdSFjFMNbONZO+NjdgtBoUZ+NRbmD2J2zSROKXBAEYTkkLgiTcXFxAV9fPzbQqnv37nD33XfDkCFD2aNDhw7QokUL6NWrF/9sfY4ePcpXtQ87O3vhQq3uKeHoqKu5yMnO5ivDdO/ala90pKWlCeJOv+5CbtRlzN0CP96ivg30aWID7gp1m5QWIQiiPJC4IKzKuHHj+Uqfw4cP81XtxFBRpzhtYmrkoq3KbA+l6EW9evWgZ8+efAcQkyHtBFHDTdA83f1twEVmGkppEYIgygOJC8KqjBs3jq/0OXToEF/VTgzVXTiK0iKmRi5atmyh2OJ6+rRy/coTTzzBVwCJgn4JTTFNYDjY6Tt5UuSCIIjyQOKCsCpY/NmwoT/fSUlJSYGbN9XrMmo6BsWFKC2SZaK4wK+H6SY5asWx8+Y9DmPG6NqKYzIALseVQbYJg20xgiGmImzjCYKoO5C4IKzOuHHq7axHjhzhq9qHvb36QDKJuMgyPiNES8uWLflKx40bN1jthRLffbee1cNoSc0DOBdTBtcTyyA1lx9UQJxGwdoRGrdOEER5IHFBWJ2xY9VTI7W5qNNg5ELkdmmOuGjRXHnseWCgcueNn58f7Nq1W3gNpAIvMRvgcnwZHIsog8C4MghOKoObyWVwLaEMTkSWQYIomKLkDkoQBGEOJC4IqzNy5Ei+0qdWRy4MtKM6O+vEBc5ZMdRZIqZZs6Z8JcVQW6+vry/s2PEXfPTRR3pdJMWl2HIKEC/om9uZAEk5AIWiOWqdOnWCQ4dqd+EtQRAVD4kLwup4eHjAiBH38J0UnI1x+/ZtvqtdGOoWcXbSXeRxBoixWSRavBt485WUixcv8pU6ixb9D27dioD33ntPccqqnKeffgZOnTpN9RYEQZQbEhdEhXDvveotqQcOHOCr2oWhmgt03NRSWloK+SbMF0F8vJXFRXh4OF8ZBqfivvLKq3D58hW4cOECfPPNOnjxxZfgkUcegblzH2FGaZs3fw+xsbGwatUqGlZGEIRVsCkoKDStX40gzADHg3fq1JHvpMycORO2bt3Kd7WLsJs3+ErKth9/hLfefofvAC6cOwueHh58p05UdDSMGDmK73QEBARASEgo3xEEQVQvKHJBVAitW7dmTp5K7Nq1C8rKaqemdRQNKBMjTosgGRmZfGUYcZeJGLT7JgiCqK6QuCAqjAkTJvKVlPT0dBair404ikari3Fzc+MrDTkmunTa2ynXcRQWmmBeQRAEUUWQuCAqDEN+F3v37uWr2oWDSqTB01OaAsGiTlOwtVXuKsGiWYIgiOoKiQuiwsCOEbVR7Xv27OGr2oVaWgQnzYpJVTHB0nL12nXYtGUrzJwzlx+RgiPyCYIgqiskLogKRc3zAs200O+htqHWbeElFxepqWBjY8s6TJycnCEqJhZ2790LH69cBeMmTIRJU6bA+++/DyEhIfz/kNK6NTloEgRRfaFuEaJC2bBhAyxcuIDvpPz+++8wefJkvqs9KHWMYJ1Jn/4D+A6geUBzaN6iORNYhgyx1Fi9ejUsWLCQ7wiCIKoXFLkgKhRDfhd1KTWCI9HFREZFMrdSS4SFv38jeOih6XxHEARR/SBxQVQoOCG1Z8+efCel1ooLlY6Relaqk9iyZQvUr1+f7wiCIKofJC6ICmfSpEl8JSUqKgoCAwP5rvYgHlImpmHDhnxlGQMHDoRr167DkCFD+BGCIIjqCYkLosKZPHkKX+nz22+/8VXtAQs0lbBUXKAZ2ZYtW9lAMRqFThBETYDEBVHh4NCsdu3a8Z2UP/74g69qD9aIXHTs2BGeeupp2LdvHwQFBcO0adP4RwiCIKo/JC6ISuGBB6bylZSrV6+yOSS1CXuV6aj+BsRFly5d4Lnnnoeff/4F4uMT4NKlQPj0009hyJCh/DMIgiBqDiQuiErBUMtpbUyNKEUv/P2VxUXv3r3h/PkLsGLFCrj//vupWJMgiBoPiQuiUujevTs0b96c76TUJnGRlZkJ0ZERUKgwUh2HuSlhY6Ns8U0QBFFTIXFBVBpqqZEzZ85AbGws39U8SktLISMtDWIEUZEYH6coLJDOnTrxlZTaOiGWIIi6C4kLotLAkL8aNbGws7i4CNJSUpioSE5KhAIVUaHFxcUFmjZtync6TB1iRhAEUVMgcUFUGgMGDIBmzZrxnZSaJC4wMpGSlCSIikhITUmGoqIi/hHjdOrYka90ZGTUvhkrBEHUbUhcEJXKzJmz+ErKwYMH4fHHH4etW7dCfHw8P1q9yM3NgUThe4uJioT0tFQoKSnhHzGdjh078JWOpKREviIIgqgd0OAyolIJDw9XvMDK6dSpE9xzzz0wbNgwGDFihN5sjsoC6ymyszIhOzML8vJy+VHzCbx8GU6fOQO7d/8DV69d40d1hIffgiZNmvAdQRBEzYbEBVHpDB48iBVxmkOvXr1YyybOKenRowfrPnF1deUftS4YkcjLzWViIjcnB4rNSHsgWVlZEBoaBucvXIBTp0/DmbNnIVf4eobYv/+A8HsZzHcEQRA1GxIXRKXzzTffwHPPPct3loOunyg0tA8slvT39wdfX1/+GaaDxZgoKPK5qMCIhSHw82NiYyHudhyEhoexiExYmPAQ1snJKfyzTAetvXF2CEEQRG2AxAVR6aSmpkKjRv58VzE0atSICQ203MZnTDlgt4azszN72NnZgp2tLdja2gkPG3BydISiwiLIL8gXxEU+e87H53zNOikpCeLi4oVHHHtkZFqvCBNTQBcvmj96nSAIorpC4oKoEqZNexB27NjBd3UXBwcHOHHiJHTr1o0fIQiCqPlQtwhRJcyaNZuv6i52dnawfftPJCwIgqh1UOSCqDJ69uwB169f57u6BdaFbNiwAUaPHsOPEARB1B5IXBBVCk5E3bXrb/jnnz1w8OABfrT24ubmBo89Ng+WLFkC3t7e/ChBEETtgsQFUW3Iy8uDY8eOwt69/7Lnixcv8o/UfDD1MW/e4zBz5kzw8PDgRwmCIGonJC6Ias358+eZyAgODoaIiFsQGRnJHtVtHgdGIfz8/IRHQ2jYUPPcuHEjaN++A/Tv3w98ff34ZxIEQdR+SFwQNZKcnByWUomKihIekZCYmMQKJLWgT0V6ejpkZmYwIZKZmSU8p/N1JqSkaLwoPD09wcXFFVxdXZgpl+bhxtpW8RimMfAYfo67uzs0aFAffHx8BfHge+e5YcOKbaslCIKoaZC4IAiCIAjCqlArKkEQBEEQVoXEBUEQBEEQVoXEBUEQBEEQVoXEBUEQBEEQVoXEBUEQBEEQVoXEBUEQBEEQVoXEBUEQBEEQVoXEBUEQBEEQVoXEBUEQBEEQVoXEBUEQBEEQVoXEBUEQBEEQVoXEBUEQBEEQVoXEBUEQBEEQVoXEBUEQBEEQVoXEBUEQBEEQVoXEBUEQBEEQVoXEBUEQBEEQVgTg/0oYviQGAN2/AAAAAElFTkSuQmCC;" vertex="1" parent="1">
          <mxGeometry x="269.58" y="290" width="94.42" height="71" as="geometry" />
        </mxCell>
        <mxCell id="aMjAXd4H22HxAeJlpXIM-6" value="" style="shape=image;imageAspect=0;aspect=fixed;verticalLabelPosition=bottom;verticalAlign=top;image=data:image/png,iVBORw0KGgoAAAANSUhEUgAAAOMAAACICAYAAAAVvVzVAAAAAXNSR0IArs4c6QAAAARnQU1BAACxjwv8YQUAAAAJcEhZcwAAEnQAABJ0Ad5mH3gAAHN9SURBVHhe7b1nk2Tnded5ymRmZWVlZXnv2ncD3SAsCRrQSKRGEqXRzkysJibWzJp5MRG7b/Yb7PfY2NgXuxszG9odo9GMNNJQQ4mUSAIkXDfam+ryLr03VbX/37l5m4UmCAGNBroLyNO4yKyb9z73Med/3HOe53YdiqxDHerQE6euZ5Lf64CxQx16Cqi7/dmhDnXoCVMHjB3q0FNCHTB2qENPCXXA2KEOPSXUAWOHOvSUUAeMHerQU0IdMHaoQ08JdcDYoQ49JdQBY4c69JRQB4wd6tBTQp10uKeIurq6LJros/7hQRsYS1lCn5F4zHp6uq2bo7v9qaOL791dfo7vXfp+eHBgpBr7cdD+PPL9gE9d02o2rZwtWWErY4XtjFXzpXYNOvQkqQPGz5AAW2wgbgPjQ5bUEe2LWSTaaz2RXgGsxw4FKsDXN5iwgREBcihp0Xj0AfAAXFdXADzKMv3H4B3qC3/6H/5XQMKf/+8BKPU3wNxvtawsABb28lZO561RqFjXwb41601r1BpWr9SsWqz4bzV97jdbQYEd+lSpA8ZPiQBQFGAl+y0mbdcbjViPgDcwNmSji9M2fmLa4vqN890RgBiAsUffIwJnTOejDtJuOwBIoXYT2MLv+wBLx8HhgQMRgALKbv8Ekm2Q8q39hd+EZWvu71uj0ZKWFNBaB9atv1sCYq1cbQM1Z5nVHavos16qCqR1q+mzkivaQXPfn9+hx0sdMD4ugskFnN62luvti9rI4qTNXFiyiZMzNigQ9gJKtGEsanF9Ao+KtFGlLm0kUICXhM4ndG+ktycoV9TaP7ADHfsCXQBAQVL4o4AAYijAYBj5EFTbn4CPqrVNWj2gByEhwPOsRmvf6gLkvsrm9z60tIQC4AekLWnQHv1WL5Qsvb5rm7fW7N7rV62aK7m2PBCAg08q06FPSh0wPiaKOPim7NSrF21Smi8qUzMqkzSuIyZTsyptUqk1XdslBcpIb7dV6y2rNZoOJMAXExgCzRVADG2GvxgRuPnsPXKE5yPt71x7sC+gCqX4hgAWUPH9oP29pd/RiDWBX6f9NwBZQesJlNShvy8iUEYcyU2BkZpwALh6tSH/smj1fNnyu1nbvrNuq+/ctpyACjA79MmoA8ZHJPy2aH+fzV48ZaMLk5aU5sMXTM2Mye/rM0FMwBNjxyIOFEAHW8cERjQTAOrXbwMyZfsF5GgvWikAYUjcBy5Ds9M/2xou/Dv47hcH2tH/a2tG/Y/B9c/23wEo0WTBueDvfQmGphUrddfSDWk7NDDXUW8ER5/aQllN/d2l8/iXmLO57YzVsgWZryXbW960nTtrlt/K6MoOfVzqgPFj0uDkiA1Njznw+oeTNnVuwVJTozJB49YrcMUFLpi4KY2D5kLbAbyETNOB/pjFBDpZjQ6ifp1L4Fe6efjkZplggJbqW5bPWK5KS2J6CoyAtyStWdF52gNAqwIrEVy0KDKggWbX9fVyzXIbu7Z3b9OyaztWlK+5t7xlVZm4+Lgd+rupA8aPQL2ARsAjyjl8atbmnj1pk/IDIwJgXCbnobiy0Qr8pqTABbAw91zb9UiDShtOpJKWFBiP+oLHgaoCW1pmabZYcUAC2FpT2tH/BYEgtCtt5u99fOBc0Xbvb9m9N65ZenVbgCxbTZqzKaC79u7QB1IHjB9C3QIO0w5DMj3PvPa8LXzpjKUl5QdTCRsRMEtirkEBEjMRZuzF79Mxqt8XJobdBP28EWDazBRsO1u0Qrkqk3bfiuoHzNggMNTlASH0bU3acnczbRvXlm3j51ctLa3ZEliZWukEfX6VOmD8NURkdOErz9rCC2dtYmnaEqNDHiFdz+QdgFMjgx4kIVKZksabHk3ZWGrAo5IBMLvdFP08Ema4B4jwK/W5I2BupguWL6E9D7ztWAUAd0+/lXV+RKZ4aTdrW0RkpTG3bqx4YKlDv6QOGI8QmhCfcF4AxA/cHx60UWnFiclhi0jyY2Le38m6xjs9O2bTAiTnojoIwngU8gtGAI5ILH4lJm1B2hCt2ZD2I1qMiXt4eGCL6kO0Ylkm7Nrdddu6s2HNnYwtC5hN3dsxX2VdjcdO/a/t719YwrQaPTFjsxdP2tLLF+yENOL42QVrCmBMTaQG+j1owUQ8NCkQnpge1WfStSSBmN6e4+ULPi6i74IpkSBAxScR42R/nwspAkIVgZXfMPn7Zd4f9sctMpS02aUpi+F36xxma0NA/iLTFxqMZL8kZF4OCliLX7top9t+IXmhXWIkJD1acHxowFJiGuYHMcHmx4fdJwyDFh0KCGASrBqSABuT30x/kdRQbTRsWAKNaCzTN8Va0w7kBiydmrXx03OWUv+TsUSiAYBt1b6YgZ4vJBiZq+uRJoMJzn7rBTv3u1+31Kk5GxwfsoRAB5GJgqmVEmOdlKn6rPzGKWnCfLnqkn842e/XdejXE/2Eb4n18NzJGStUah6NzcmHBGwTsjDU0ZYcG7YxAXP0zLynD+bXdlxTOh6/QKD8QoJxZHbCzn37Rbv0e1+36UunrCypnBrsl0Tvd9OKUD3+36R8RnzDWYGUrBdoK1N06d8B40ejrAd19m1OfUiAa0aWCD4mUyXMwzIHSX/u26E11cf9EyN2+uXzNjI/Yfv1hpXS+WAi9AtAX5gADsGZuJhhSgM9Kwk8eXLWUlMjslV7bW0vZ1MC3rC0oEdKh5OeK1qXZhyTPzOhv0N6+/aaDcofQls+TkJTYMbxXKYG0Cj8/WERR5QGgiNMd/NsnCMZOg+b0JxDqCBoAMDDGT+PmwjqEMyhLadnx/0c9by+su3RV4I6a7s5BycuQbnasLo+RzUGh9Wqbdxdt9X37llGfb5zc/Vzv3rkCwFGzNExgS85M26Jcws2L5MzJWBGIoEWvLuRtosnMEMHBcY+mxhKeuBhQ1IZX3F6VOZUm94Vgwz0xWxpatSnMT4uwZjkg5JyBpgwhX2qQEdThydu6xrAycA8nL3CWZLEqTf/PPdU3zl8Il4K/AEQ26BEpwNQwEcgCkASdPEcV/xe/UaOK6tF/DcdBKs+KVQ39vIuXPAdEWohLW+l3WQ9Pz9pG5mC93W2WHWA7uaKrkUH+2NWkkuwubpju7dXLXNj1XZurVpJ4G1KY34e6XMLRmewvqgHaJZeuWAnXr3oJtBaVhJZQEK7EYyJi+mua8Bfe+6kLU2OOjPSIZhWN3We6xYkwUO6tbbrTE0klRUWfxcBqmBeLsgBhTnxm0gYAEBoA9LPHIg6uBYQuIZrB4h0mU78UhMyt+dg1N9qpv/I0ir+8/Pegi7/P2X06KJewOhlyByUAOAzIr8Ys5wjLiAOxKOevhfXQTQUYdPL/UcA/HHo2v0t18JzE0NukoYEGGn/xRMz/jcCZVsgvLGyoz7f9jlbspUYg1ypavlC2eL6vvyTy7YuTZld37GygEsbPk/0uQSjm2Mx+Xyn5+zS979uE+cWrS8Zd8a8sbZjZ+YmpN2CecHFyRG7s7FnFxYnbfSI9IY+yCSFOZg7g1GZ3vgg8g5tMwoZKmiBUrXm0p9E7BbaTsAgH3RfX1kb0dBRk8ar6remwLav+7kMcMGURBtBHucBI2a3A1fnaRfnERIt1hrquYAUbcuUi077s1jl3y/QdUm1kk8KPPpkpifUD5HDfYvrRJTyALgKwXIYjPc5MPCR6R/azc88wD8/hN6+ve6WxsmH+uneJmCs2SVZK0dpN1/ye9DiCAzaTgJ7Jl9xv52JpYyAeONv3rV3/uTHPm/pmTy67vNAn8sAzqD8kwu//w279Ftf8YW8fQP9Fm+DbydXsrmxIQFy3JamR3Su1zNISGFjvvAobcmEejhyinYAkEVpNKKrDxMMhNQHeBt7BfdH04WKn6syOS6E5VsHtlmRP9U4sL19s3JPr1V1lMRXJJzHVN8eaV1WfySHBq0FOgSqHtWfBcpdRIJlSrN2kugvB5eMHD3XH6TpJXw6Rvei/eIxG0wlvZzB4ZTn2rZUVl4Coi5Q5lWXjMCcZ7mXpARCwtdb1upWUJvx/3IyHZnMB/hoVATfw4TGwhSn3XEJRaY6jhL9hzWAW3CUWCFSBKTSmPQ5S74yxYoHe5hews9lp4ThmXEXsD3qp6osnaaE3eeBPldgZCuLpZfP2+I3nrO+pRlblORlG4sQiPhnmGZn5yfcFIJRYJydbEmDH3+w3CmkPUlqGBn/Be0DIbVhGHw7pD7mG/cgwWEaGBbN6eYVGlGMWxRjbpVqlm6I0QGfQFfTPb19MgUjkvdt7RZTPR00Egr7YsRG2zeiDtSKJVmxaCAwuIY1hBijh/psiZFZHXKgZ2FW4vehCQcEaDQhQqWf56mguuqKUOlTWZSNAOkXeA9UJ+ZXqdO+nM+m+gpNXW7pEECrzabVdC8rN8i0yalN+HtobsqhLyA0N344c7Sjg/3+7JAQStzD88nvPUpBH1Z9DteTCHQ/fbubL7pLQD17JDTYQUEdYD3y+0emxyyicatLSJDJc5zpcwFGJopnnlmyxZfO20n5hiNn5q0mhpyfGvHBBHQpAQfNh5m1INMUIEEYOEh//CpfrCsmCYloKr4eBHM8IJ3CRMyLIQEA6wCR4Bn5NoCwJKbISvPlBMSCritIE+ab8gd7xeTSgIe6JyLh4FtruBkZPHtAgGAPGq+UGBoTDHDxbD4xx/BofeMp/eafXKff+KQMjzi6fetRHvl8mK7BwmGfQpAQoQ/ch/NrAGqPJQRaFeI+YlT1on41ninmP2DOVWXV9My6binTLlkGAMvXP6rMusCKsAMwBJ3uyS+cluXAdNFRAbchX48+BYiMS0j400Rf0Y4E0Kgr48WtAHReAPXoMuXr+iZ9IUCOyQpKjQ66IOM8m2sd1yVbxxqM3RqwuMyXsaVpe+77X7OTX71ow9J6zjxijOnhQR9wpivGJUXRhuli2X2fByapBhvGBER8P7rSgmTngoAG2DCTQgKAhOIJ0aMFfImR7i+jNQQ6TLy0GDaHFjyUqae/MS/RPn16LkESVneg0QAjz0erYPrVxZBNaaCIQAtYg+8CmYDBd3xCwjp1gSDMAAKIPdJkUbXVJ8vbGjOqMrv1t55kfSojqvJ75BumkgmV2R08q9FQHwUas1s8TDkRAKn6se0G24OgrVti/pqEyoH6pK42NXVtE4CqHwhKZRBCAidTE6yBRIOOySRmATVg1O3uB67u5nxMyOs9CtKSg7vh1yMoEVAQIKevn5OVw6lw2odnYuoOaVwnZidsbGHSze78Xt6XcdEHxy3Ac2zByEAmpOGWvv6cffWf/D0bPTVj/WIyN9XEJEhRtMF5DRK+IdFBpOrqds5TtUJNRzmYsOvpnBig+1f8Qyat0XSTPtfYpTIO5DfVbF1MtbqTlVlasm7ClBIABZlz6+WG7ej6hsrq0zMTMnHRThExMRrKmU2gRBMgwWF213xisrTqMDQo0KuetAOGrKF9KlVPVMeUhSFjugeg4B9yLUCF7QLm1r2q50Cs12YlQEZjPbYgTTOViNlQb7cNSQv2IwhgVF2P2del75ls3gYHEgJCv7cxK9NwcnTINSer+0n2DoSGzGiBpaV7SwBCT9wXONGo+/sCm/rk59dXbElWCb5isKaTMTlwE54JGKaLEvH3++dMaQBiAmpkRwVQDKyWtCwOAjhoTMaHfiGLh/LGdQ73IqJ+nj01a9G5SaupLI6WNPZxomMJRsL+F37jJZt77Us2Ikd+ckZ+gwBF5BOGxYcBSC+enXONGPpcSNR1SU603PvMTtH6bsFNoxH5OEcJBoTR13ezMlv3bWM3LyYoBKatnpUWMGvdEWtFY3YoH6xLZVAXGASAARr3zXQtwSIYH19vIB4PzFJpuKoAB7Pi2xKj5B40H1oQsB4cyA+kHtyr6xA2AMTLl7Y80PXy/BzsI3rufLJPR7+NiOETAkK/nhtRn8X0nShyv8oakJUaFzjpGIRNUgBhnSF1QUOOicmbYmbKRPMCKoJCAJ+60Q60PH6oB5XUxnQZf7BhM2y+pT4Lgi9BsAZBeHtt16ZkUiIMMZWPEtcy+U9QJ9SYusWqqhu/zciqwXqgH1nAzTjd28y4cAvLwrze0rXzZzTuspAQdrnNPf/tONCxAiOO+9iJGbvwmy/LJL1k8elx6xETjUlrueZT5yN1kZaYWQ46MQyggWBkwudcg6kUmkIQ0T9MIMpgd7aQWjLNCORcu7/t97tvpGsw1erdvdbb32+p4ZSbzA2BjHWQgFrYEEkPoID0yXwmgYzAsJQrputgoobAtM99qkufAF0qV5wZw5oBQjRYUwwNMJiicCCqDoCUOgG0lOoMo05Ia40IwHG1v1eF0HKAQ3mYweTcEtDBPI5Ko3frt6bMaJLm2UIDQYEAwkQGdId6BsEiD4Dpd+oKSigLLRlMnUjQoOEF1oR8RHZGYAMu+tTnCgXIextpF2pjAhFbjYRjAjHviiuAIAWoIeGPEizDnyfa7Wa5vocm/Z40JmPcqzaF/n1BwmRIgB6bGrUhkvnVHyQK4Es/7WbrsQAjA5CU+TJ76bSdfvVZO/m153zjpwMxHFw2JHBhvgAiUtfGhxLOJAwyoHNwiBiKcP4K0+lolA/w4vPgtzDwMFKxUnMzNSM/E+mcF8McqlyJYGlBmZ/SboMyK5NiQEy7mswsAA2hTWAa9ryB7WBwDxLpOTyL69zv4zyMqTrtC/gwuy5zBofQkq4JAa3q5NpR9/q8o74DdPzPVJ/8S53nGQQ3YE6ui0r7AcaADVWwvkMwPteqNX66qL7iufQVVjeA9/oLhEFk9tAjtvQi1/CbLvP60FbqMKh+GCRCqjYx/cJcKMLL+1DAIWKN0CH4BTmQBarNdN597xGN4VGLBV+cqC0JFv1YHVRQxFYfjBMtIY2R5Vk0i/ED1P2yCIZ0fnhy2OLSqH6f+pP6t9TnTys91WCkE9GGTFnMvnzezv7Gy3ZKn1GBD5MEqcvg4s8RnSMkPqQBD8Psy9tp91vCYA1jEhfTkuwNoSFDAiSYawwo4OBzW9fhrzTEPDGVsVWoWE+836LShnEEgJ6JxgBAaA20VwCaluol305A5NmYUvhT4lrfngIhwPWAMY4Jq2dzL76hm4IqD+aH0Wu1mgOS786L+p/7jnoAWo1TmJ/4gR7BVb2ztaYVVR4gxizFZ3UroA0c7oE4RVvRoOuZgpvXHuHUfVVppAG1EXCgkRE0+L0AEzCiu9GiHihpl0m72HiLe7gXa4GgD0ICwJDZgxlL3yLsACKBmM100QNnM2OpoGIiAItPyNwsSQMhECG2vGTrD6ZNSD4HxFgeBNvQlmhyF8I6EvqdVMguAZR2NAVuNmt+GumpBqNPWZxftBf/0Xds7IWz1qVOBwAADW2IFETDfUe/ESEFUBADh9QkmMBghdKW82iolZ2cl/Fwxg2/kS3z48t33DyFIQ51T1MmaXFfpuDosE1LQw/pPhgP9uDIF0o+9wZj40MFUw2BBkMzjcpsBqDcA+NWXYPKb0z0uwaC0QEbgG+1pH14pkBd1/ngCcSH8HsFKn3HHFUBHlzBDCZrJq72lJH6ei6gY56SyK7XSSB4MEGv38KDvzkwdZn7JF+2IV8YrTycSlqFuTuBgWs8EKNP/HJMZeoGc3MeX7e3B78Uny7Q/tSa31IaM/KAu/S9WGeKJdDIAHJF43N1ecv9xOmxwfdZKhlpU/oUYXY0qAZhsaxsZz1xw8dB5QE+4gOA1PuHGug/pmzqEoL78M7ilCWSCdu+cd/H52mjpxKMdC57kb4kED7zm694J5IpQiIz2g/JSIoWTnwAQjGcBo37QiJYs5Ut+KJWJOXR3zDa2KsF6UwwACCQmbORyduuPim/XBdA5BMyN9gtgA3L7MEMi3lUM2BiiAAM2SkwrUsAPRcuIICD1sRELEvjMZ1AMMYZWWVzOwEQD9QIWICGKYSGGJYyuc75SRfyJH8mIKJ8Xc/9buLqwERMCHBVtUkXuhbU5X4vYB/ul6Zgsyhqxo0Uo+9MxeyWarYtjcq9CACAwtQLwoq68bx+/EEPJKnPGkyHBJsx93tCwaFragJJ3E/xBKa83u2DthHESspKORDQERLM0bI/DoCl/9HiCNbQiiEHGFAzv0hdjhK+5J5M2KNL2yDcDyyZU3JhaAPCOjivtjJtovGbES+Nn5nzPuR9IqTUPS301IExqc6fef6MnfrmC3by5Qu+Jw1ZNAwWzJQUA8zpGkxTgEiyN+YMGpBBP0rua4mpcfYBRkhoCXwRIn3saIbZms4LhBoYKRScGQ/QYOIMJKVZxVxIf+4DFDA6B9qlpHIIwhD6h1nx6/rQFO1ncqANYdjgusDnwuSrSMLrTw/6wMUAGnMVf5JquDnK77TrIAAgfhaasD8StYSOuDRSvEfmmMrDEu7jbwkQPvHqBGlncnwyopVopxwgBAzluuWk4Uo1/Oggj5W+or4kFSAssBZoKlo+AM2BCzfqzzl8cLQ8AoD+B0CYjHwP+4nfAA2/YZLjYqDpMf+JMCNMMXmZ9MfUzMpHR1AiSB/Wit4GaVUEGDwQjjnX5yUU6Tf8SOaWGVtPzlcdmQcmG2lMpnBEZY4R/JNwIMmCbSSfBnpqwNirQZk8t2BLL12w6RfP2+j5BRsV6Ii8QXQqWgkgLk6NeIoapgk+B3N+TOiHUxgQjIsJQ/QU6Rxm3EAMICv28QkBJEnL7HsK4x6KiaMatD6ZkJhXSHnKgaEok/LDA+YslivOoPwNsvj3IFgjBuRemJrf2VZfF6uegWnF38xRAnBAjNbx4IZ+45xzlsoMnkegRmX1Rq37QOCSpG+Uy1YrFG2/VrWeg5bt7exavVi0RrWic9IKKov0ObQg0wtFgbAg5svryEn7VzBL9VzAxBPcvNTDaA+AxMTj2R70AoQSMp5coOu4B8GBoODa0E+n3fQvIPM+85J/edA3CKgYPh3CSmVyHX5lVXUqSFOv7mYd8GTvsP8sv4dEMA1BStQVPzP8jWAdJipCGasJvsE94XesDIJIjAXLuSSdbHR6zFq6DvMZ4xgN6QEq+vwJ0RMHI6YZWy2MLEzZC3/wTTvztUvWI8nG9MGoOpY0NhiXpGEkJXOHAdMEgwCjMBAs/wk0VyAp+Z3rMGdgiTCcDrMHW9nXHKh3NtKWkB/EpPqBgHgorZIQEMdUB4IrgYRHG77/4OlohqJADaPyVKYNeCY+I8BxtaeDYAYaPMwe2W/uu1kHMwJemIUgjScCqBw0pU+JUK6e1SOtRVQzLrO5p3FolYIEyea6ba6u2ObaihWzuwJezW5cv2ZbG2sC5bbls1mPHCYFCiKJDSGyqucQEKHP1FFBW/REWqOvXlfO4XPxd6glOY+LgGbhHOZrYNLKV42RP6pr/X4uBfpqs4TYr+s7DvqJfonLBWjpPiwS+oLMHYQkwEHYhtraLQvVGzeClTCspKGckBhP1k9ynnsh7iWnlevRqGhg5xHdRwCMnGGi8lPiPYRXQwJuX4BkXJ8EPXEw8o6K01+9ZF/9b3/bps7M+/srSH9i+Q7ZGLsCE0ueMFcYFAICDHI4DnQ4oWzmseh4jwYeIQYd8BEwYC4ScBI4yBVr7mPwLy+JzKQ1KyFGZfqEEpVn/LqDASuLAQqSuK5ZxEw+XSLQYKLiX8LUBEXq0ngVaV/8LoDP/cUSWxjiJwXmns/xqb4Ipy6cHIGgS4hEQ/aL4YdicSvnK7Z8776t3r1uue0VKwuE1VJWmlLCSHXeWF+1Wrkg00sas1y0Ui5t29tb/m6MITR9IuHTHkyLAHRVIwAMAgRw6TvmJ37ogertyQkClVsnur4gfywIfByqL4OVIWh3P6f/CFIRgKLcIbKh2uP06w41zbUpGpgVJUReWdC9pHFPaBzx+ZgSgRi7+1sZv4+oawg4SE1yE/dockBICLjb67t2bn5Cbs2A80KQTgdAm57TOj47bqfkGvVJ+Gd17ZN6eewTBSNJ3ee++4rNv3ze31tIehdTE0gxpBlgZLuGcA4RbUeEFF+RgYZcQ+q/NUlFBgx/xU28NmEW4S+wHAqpmxEYMc0k1K1LQACEoyMpGx8dkqSWhmRSnCL/joNBLstcAswMPsBC8+kn1xJ8Yp6S2QJAyWwBtMHEeUtmWszN1SAgEuwbih+lH73e3E9dBqLSRoe9trayYWv371pme1Ug27Vapaj76g4YzPeh1KDt7Ka9XkQs0NYAo6VrquWSFWW+cu3k8JBHiOHgB+3Rd9Li8BMBHULFTesQZLoPgcH5ETEspihmKc9BqPgUh2cJMe3BvCRalDRAAV1j8eA5v+YIQUnwhsgzWhu3gSFGAHv0VONOoIwNwiaGBt6nFRnbvULJdwhAe4e/IWyxBAjOkUpHwA93BSBnVG/AjvB2F0Z9Pyr3J6oy4L2KXJ/PWkN+5mDEBGMvmjPfftHOvfa8JRenrUsMO4ipqgMzkqALJilLnZgnZKDQgDAampJ9TPk71F58whyADiY7muyNliUgQJCH/VZiMTGdkMjLSdkhfCiV9PLQWmhRyvooB6ZlWdqO50n+qx4yJ9tMRfCAsD/MAFsAUpiKwE3oa+ly1yiYe5jgIXEeE9WjmmLsWHfE1tc3bWtt2bI761YuZKxRlzbG1FT5oIXsl6FUynb30g7CgAASoAxM4nq9qvvqXvaIruXFrAgAfFGfs9Qd/ux2OwQjL4O2YqUgUPhOO2BSn7NTuWq5+31+n8oEkJyTRejtDcfpoxz0P1FohFSvnkntEMwlgXFbgAPYgIe6eGqh7iGfNRj3QGPS//Q5hPtCPGFUWho+cl9VZRPYwZoG5DwTSwjw89qGksqJig+T+s58ZF0+LP30WdBnCkay6keXpn3L/AvffdnGT85aS51HR+B44x9657jzHmwORYiaTtd/zntESImmMSjY/xADyRRFkAfZ1KAFkTvmDNGESEBASaTOdwZX+SRbJ0hlU8fDNDAZg/iRDtUDRsREpT6hNuGZaDPKBHSwM1TToPIM6gkwYWbaxDWeYQMo2m2kfHJDYZrerh4rSqrfv3PbcrsbMklz0oYyrx8ALiCmTIaHAjBigj1M+HGAt6F767WaTPFh9UGwVhAu5hMWpn6Ak3oHAjCAJO0CVAwAaWWekaMyESaYmAjCMALrnwyUfg8F3IN++wgHdaCvEES8OoFdEdzP1/hhHTFOTEvpCd73aD2e51oPF0DnIQJ7rC/NFip2Ymr0AXi9reIP0uxoByY4IGe1Ce3IiGficlUm5yedRxgv1kqy9OzTps8MjKy2Z3X2mW+9YM9+98u+UXBUJiImI9qSJTUM/gk51OQbEl0jIZsgTmiShkC9JbseUwNJBwggOplMF+av0IIMKg49K9MZTKTpoEzgYmPfl92MSiOG0biHGeLvOhh8ghh5aVy+eyK3BhR/i4AI9eqVegEkmMmefK3n4DsCRI886mjKHELDYOqinQgA6aS3qT8a84jp7dvLlt9ZsWox62YpzB7Wg7JJFBhM4usOWUGmaKiJAkCgW4Jr+e6LkJts8NEl8A6J2YKVLKGZqttcsKgqXi6AwPwEdK5B/ecDny8M2hq0EX+YdiAI3GRVeYwKfiXACuvwcQ76E4FL+ZjvgIm/KbskoUq+MJovI7AhuGfl5oTEeANEhDCR1SEJx5CHADEBrFvrO3ZyZtx5zU163YM/ie8Z6Y3YsMqbOT1nCfFpWXxYlVAn4v1p0mcGxvO/8ZItfvN5S52ZtwGZDYfqcSZ0caKx0V8+N6+/R9xMYQCRbMty2PEDYDBnFBFSDL+B38hRZHvFQMIHYGWucHk7a2/eXPX0KxhWN/kax4iY7xSmr56PqQLTPsoB+BoCDVk6gNwjn+36YRKSUcOfrk1EDDZmeKg1BF8Hs2fYAB6u4zxaXUAcUD3397ttV37S5vINq+T3fgWIHGOjI3ZyYc5On1yy2ekpXwI1PTnh/edpdCrv6PU8A7BU5ENy78DgoKesodEAmycRqK+4NtR0gBNAkH/rE/86x2vu8H1rMnu9vErVr+d+BCzPZzKfaQS+f1AfftSDMSWVDkBVJEjrapMnnwuE11a23bUhg4e6cT20kys6SLl3aXr0ARAhxoKkAawogDisPguWdMXszvqeCxTMVl+WpbFFQ6Zmx+Wjy8rS84IA1qdDnzoYiY4+/wev2aXvvGx9AltDbUGSsZkTWRH4BDjXbBbsoNM9HKGpia9APmkYPQN4/iZddRTzTUTQCOigSXHkSS4GJICQlKoeSfcBMRLrBDFlKMdNUj3kUQ9MS7auIFKKcPA5RZVLmJ8gkgdeNMAQqW+YtAxiVcwLIXlhEA+MAEIxAEDxxb0qJ6Hfc2rL6sqKFfc2xAglZ6Lw+VEJmbOnT6ldCWlntTmT8fuv3bhlO7u7PmUyPjbqwKhUBRT9Ft6rC/U3QkGWRCIhPynl222IC3/Z9/qbA18UawVAYuYCTgJOrpG9vW3tqXoH2zwi4HQ/ZegLfeGaUec+yUFdGDMsH8YdnmEd6dx4ykFIYI5oua52sxWtiNtCih08dJTgmbubad8JEBBihZD+R/koAPgI64vnkIyOINhXu3rEPz3xqBU39uxAyuPToE8NjJhdqekxacSXBcSXbETShf1UECxsXksH0BmYikRA3Qf0gVPvi2BW5uaIntI5YVYHxOA4OHUpg8A1TOoyYezJ4+o8Zw4xCgtkR9SRzEPSwSGjfZKD/E2CN2gHGNWlpf6jer6CX3/3q1261IGGb0vbgmgrHAag9wXSMAgTtClg4m6L9kQsm87Y1rrM00JaGg5GC8xEopzj0mqkohUKRctmcw5q5kbX1jddS/EczOAUoXxpyHC1B/dz8B1/a3hk2MYEWlbsB4EcGNMvcNOVMmBmAjoIHJ7NdxIJSHgHqGhKhA3tD7KQgsgr7WZ8AevD/feoB3VB4yKMACE+JN3X0jMxXe/LIsJ0JfqO1nt4K83QrGVaA4uLMYFUtPcHW4IQqSW6ipB081VHqda0qM4Ny5IjpY5XprPfDu18nPSpgBHpPjw3YSdefdYu/r2v2NjMuJ9jVQSAQisS9p6VZCNoQ4OJiLHEJgQcoAylFX4lPUbncS4kmIpgDlstIg0bTfk7SG0Bm8ACE/esbQxWLgTBiMdxAEI0nmsr/c1gwo0wJ4IDkME4MCRpZtQbkOGrYKTCQTCwB1sklGirl61yMAG7DqXV9/Zsd3PNauW8PwfiuuTAgM3OTNnuXsYymaw0dN0Tzqcmxy0tAANyzEeeBWAT/Qn9LSEFYB4igDg2PuaT7vi6riVUz6A5QXs4ACD9h+kWBHqoq/6ntuEHB9FitYAb24KJ/7FrQJiJc7T/PslBPVgZ4mlyXlES3Pc9o4qtU3A/WMGDqQmvhPyEacqcJVqV+UZ8SW+DCH8RoY6VRXYXPAnI0e6Fct3LdiEoMCbZV4nxEy/zJubHucv54wWj2gboBlXhs99+0S6yVeLkSDCZrUGF+dB2vFL79NyYayo0HKH9td1ghQXSONSOMAbnCORg0qJhuB4p5snC6lwCNkQe2YmNyBs+HEnZY/gDGjBAQXGP84DROQJpTW5loEGQ1qwqwR/UZQ5afEsyVTBt0agwKe1DkMBdPgGvs/JE/bNP7avLlk/v7FhmZ93q1SBIxD30zeBg0jXj8v1VL7tP/iV+4pmTJ9ugI5ASzGdWa1U7c+qka1CWRFHG0WN8dNRGRscYHD2baQyBke9iQupCX5PAEAAsABwChrZ4/XUP2UQ+XaV6hG4GY+2CSdYBZQAKPe6xHpSJVYUFBA+g9QjiBGZsEIdAsNFngI2sHnalQ1ti3oZAhOClLWlFlAHxCMplWxB6gShuWiAF5MwZs4Z2+uyc6tBlNfmdJJv7ZmGPgR4rGMnkIK3tmd9/zU58+VlLDie9QURE0XCYmixzYbpiWIBB8kAMPgNJxn1orh4lfELsd7Z/p7PzMkfJ1EASYk4ACLJBiJDOSnpNjwQZGjCPS+XHfBAG54AfMd/C89R7QH4SgPAUOLUJpiT44RJa7STIQbsBC4ztTK1Pj2jqGrJtcrmy7W5vWjG7Y8169QEDkrBOWZilmKeYhZeePW+/+a1v2DPnz9q5s6dde5RKJSuXyypPjCONmc3lrCZg0tthWRxEVEcEbBZJ0xgAySe+Kwe+J1FV9xH13YM4YlTqj+DhwCQHfICCtmC6BcN6GKzd1H3cf7T/HueBW4Abwrw0c45YIjwefsNqIkIK0JirRGNingKko8QUGEkFp2XNwV/8yrgByBHxKT4m5xDuWHGkak4sTVliZFD+fN1yaztezielxwZGNGJKWvCVP/xN65UZOiDzEFAgaQANGfYLREvVWIIyvOGJQaSRMCHmx8p2xgePQXTmbROdzoCS7Hzl7oY6Zw+eCQDnzB1sscExKGZB+3IPff5pHJiBpMKROUM0EXBwhAzNbwCFpVCADgbBnGTpkV8rSUqkkzYm+8TkEkCsOcScHpSGYQoiYvuW6o/Y2MiQTU2M+7EwN2szU2ICUtuSA/o+aRfOnbWTS4syo6SF1Hf4UwAD4cQ9s9OTEgwJGxketgmZpZM6xzE1Meb3T4yNCZRJ18gsw+JgDSbtgmkxX33+UIea7nWnLYAOjUBf4CfSLk90p720UQdgRbh+GtZJeDDO8A7bTXr2jSQBe9p6xFV8d0tAQUiwkgP+gLeOEkKdYBD79qQkSCkvJCw5ovajAiHtoMyU+pVP8jRaUgK90qakOOYI7Oj8J6HHAkYGzYM13/uynXn1ojU0mGiI4UG2o2BiOObhZ7LwkThuo0uKwQDBQKExAF+Xm5tEtAKgBYDEni/IzEKCccAVXIMmwixEcxIsINoWmrmf5oF5iGaEqCOg4qDODAwmbLiGkqEFKBBMgenNgDPQbqLqEKt7P5EZxH4u2XzF0nu7lkvvSssVfaokXICMxsEMxl+sqU+Y7AdYPIPft7Z2bHV13VPj8BMHBVquzecLbqqGZQGovr64DQ4N+z4+mPgetFDdsEp9dz0xLuND25ggZ9UGf+tB3laCKbTD26/vtBafOGBoVsqwUwAR2U9/TBiHsE4I6GA5FvvnyNpQvbHGACrXhpYXQCS6iuk6IbBSTx8wEYDDV2RXdFYEwcuY8ZitjC331dX2AVljU+L9khRMtVhub03yaPRYwMiaw5Nfeca+9Dtft+GxlG9GhI3t0Td1EvOHbE/YI5DSUXQMZoGne+m7M6U6iQwKJmrLYhb8SMxX5g3xDXG+yTNkcH31gMplsHnhJuYHTOLaUPX5tA98JgDH0wC/A0x1JS+TiW60IcEO8SV86xqLa9EqAfO0pzVUFu/VIEDFZlYAgOvZwGlzY8M2Vu/b3t6e+3wclUrFn00Z91fWLCPzk+AO5WNOrq1t2OWr1+3WnXu2vbNr1UrVRkeGbWV1zUGap5xicBSLJUsm1XcTE9aKRN3HQsARWfV3gQBGjQ1aFlMcHy2IpqoH9DNMD/O6RSACuNSL3xgHDjKRYNzPalxCoOEO8e4R6oI7BK+w4oMoKmYmvzHPGLhFMd9jBz6kEN3iyoJsLZZkoVSYyyRlkrLxTbmQpAPGK5VK2KAsQHbIK+7lrKoyH1VDfmIwUonTX79kL/zeN3wpCqsOMMuarSAax8S+7+yl71DAjGyRHywQBYg00gdSjcQuL9eatq6GAcRQetFBDL6bsdGo7wqOaYFUC8v8rA4yZ9CMRBEh/CYO/eRMy3QCzIxmwn/EZKWtrHBg0ykPmWvAMOeCdDrdy6eugyEwDsv5vGWlGZv1Gqf84D404NTkhECadiBkc7pOoETI/ehvfmZ3792XNsVf7Pac0SmBbS+d8fnGsBwOBMj0zIxNz835Vv7Bxsdtoh5iWMpg1NxM1Tnajnnt7dbvtAkmpy0wMfVz81Wf0JC0MgB+uP8+7QNewwobkTZDwOA/gk3ASLCHHSB4+Q7akNf9ITBCCqy2xoONqVkxhGsFwacoAExfBCYWH0EdlqaN67paqWKlvbxVBNRHoU8MRpY9Xfz2S7Z46bSVpbnQbGfnJt30QsUTDUUr0kkMGAeMgMPNekJMAdgDUIW/Yy6RxMv2iMwhovXoMNYXMgcEwIl4AfbAuP1sDwBWEeDYTsNNRx1If6wBH1idGpREhhGpO59EPTnPyhQGFekcahWxkJfrjRcw2LKxKC22J1OVXFROqwOdoZjIZ4UGpjJHMKcoLaVjWeYpfhvXJgYSNjc7LS1YktlbcE3O+fDo1vWzs7M2JUACHV872Tbj+Ed74rJAQtMUXyspXxVGhwmxULBsEJAIIq6ngggXhAzjMqQ6BFaByn8CB3EGX4SuOiDY4TXeq8KCAUxPgMV4MR70MQdBwrUdWRz6i1fWERwMf+PAirknPxLQwosEj0huYIf1PpVZyuRt7+6G98nHpU8MxrPfedlmXzhr/bKdiQSi2fDxAMu0NBe2O3OAbs/rCIlBxynGHEXzEfVCupNXignAfBBTGZgISGiiWvPjQzYiEDN35VIbxnkCB8MSarfARwm0O5PhQfJ64M+iJcgOwccjyBF8OuurnECTqCFqRxDIgpkxzWO9ETdLM9J+zXpFAxtoGq6hTAJHBHNoP9oXQADQ3d0gnWt4cNCDN8wzrq9vyUcMVh5wf3gM9CdsVlpxfHLSBQPn8PsYA3YfoBXuQyEBXGjoU/9hgmPSBf0fMLyb7KoL7VBz/JPxZk0npvvD/fdZHfQPUzOMBfyIoECTE+QjxY++gs/cJdK/m2vbrkVJvSPAGGpECB+St5XdlFbkfZNz4+zNE2zfQsCI/pgQvzOjUJDvmH+ECOsjg5GHsgXe/Fcv+XQGPguMRAQVE5S8RKQP/hGdgMZ0c1MdgLSFPNlY9zDPE26Xzz4mdAjEG4IJzjDgpND5tvx6Dp38JA8GGiABNI1BwOhiTA78QtcMXKsfYXLS8/Ahg7A/wY4gcwX/jyTd4F7YIfC30ETsh4OPWCnldV0QFOA6gIlGZNoiTBIfGx21ifExRxkBHdLkqF9OJmy+UPDvwTOCg2csLi7Y3MKC9et+UuMYO6+vfvO0PF1H8gSfCBzXIPpEmyNwXCi0xylcq+loVSUYU9qA/wwow357EgfEtFihErzLg3PwEvWFzzBbSaHjTVeMDYGaIGkg2IuVCD7z3JitmLkEg6bE1wQMMYEJ6ITa03e0kznPuz52b6x8bN/xkcHIW4HPvPa8jZxdtLi0IhO/qO4g34+8xLibpx7JknTEISYwQwNcIrELmirLgSbdSGcdkDA2Cd4c+JOYXyrcyySiR/ifPn6SBwOKv8TcFQyIP8U5/eSDHKSABT4GARCYFj83nAOD4Yk6hmYq5OXqVweDbmbrQ/oim5FJhKkK4NvXAq58sehah7lHIqYpjQEakORmtFc6k/XjYY1IPQHr+QsXpBWnfA8YKBQcusFNTAIyoYnJtEFolqLhmX8MhMm+6tnt/rP7vroX4h4A+7hyUz/JQZCFrTk3c2WrCEwsfA6FCn2BO0RiOaCcHBn0OmPpANSC3JAHSkTtJWtnbmLE76e/aDL8zBaZeQGR3Oi47h/SkZZmLKfzD6yaj0KfAIwxu/C9L9uw/MMeMZpHAjUMRVWcdCMio+oOv5bK+/SDzBZeH3Zrddv21DlEtLbk8PKdLBpMUBiBJF/eRVGoNS1X2ff3AwJmggyzIyQSBCU/qeMBGOWDAMEgCyfw29Di4xrUA5k+oSnNVMK+gAiI0IYIo6j8QoCHSAXMsDFlUT4AgvkBW0ES2xPFdd/DwGJinxQ48lGjMm2v3bhpm5vbnhDg20EeuTY4ZLIJSCeWlmzhxAlpxcEAP5SrC6grkCRC7EuX9NPBPlFjNGUgJPCFiGZjogFEopGUjDDmOpiPdqJJuQ4N+cvnf/YHPvVd+XglKfGDLoFQZ9FwiVgwr+tCRATP4lIxN1mSFs2LN9d2A99wfnzEZmWWAlT6kHsAIe3nRbJvSgviWpF6eX5x2iZlrhbkSqxfvuN76nxUenQwCjDPfPfLlpoY9S3dSdolDenOxq6rdsDDPM+BegQpGZpBjDrakG0P7upapiyY8F4YSxlvAsbvPOiWw33QbYf6xIc5kBkV1a0jiahs+QFn4id9+IC4rxQADoKx+UoSQrlcaWuMIAoJuAiIwNAMMOfRLpi13BQuo/LIqv5GtKFVh4aG5AviOwZLqECtavC+f0RYhwaTtrNDhBXt+8H/ABCrNF555RVLpNh+I9SGYgTAJGHC356nqnq6H6yDPF8EA+YoAgGNiDAK+uBA2piEbRXSBjWT8AgkVn04SHXySR30I6ZkqRFM2wS728nqEDBZdZOIR2xqCPcH661qy1tpW5dGg0enR4dscXrMs47gX7XQ/eucxhbeJfmEGAcBx8WpMQcsgixfrFheWnL5p1c+1r6sjwxGtt1/5ntfcRMV3wKpwZwOjHZ6btztagYTaYPjyw7QhIRvyUn2dyuIkUeScVsYH7JJSRSYoXUo4KmTurrxM+RbaWBxrum0kYGozY8B1l+GoZ8kMcgwI7te49wDTJeygFH/A3QwY7DzXK95xo6uwTLwCXVpKJ8GApBibGdmMTED7qAUIwHQPpZbRWLSrlXdG/hmaNKjRF7o0NCg7fhK/w/2UyIRCbLJCbv03HM2Mj5hXQLXAwCJOdXhbnlQb/bnYUxZNqU//ZwjVpSS4OUvxof7i2Jggki03csT0d5hCQcyobxDniBRo4pcor0irxRQWxEkAsuA/MYgqSHwaRFiREcJ9CCIyvIvMV/JmQZw7KuL9oOXCdiQWTY+HLz/kyDQFIvlGWfxOztANNQvt3789sd6lQC99eikRsAWNIjwPVKQ9xGSqA0wiUoRyEGqsJFsVaqbBcGsRxxPJezE5IiDcQzNKt+HsL9PHqsHG9WaleVY00lIHib8izJbPVNFz3zSByYophxMSJ3USOtCC+g8ETvARv8AVjQJ7UZSRwmE6LdQswBItD+g8HC4rvF+1d/uU6rM6ZlpO3PuvM0tLFpCpiVRT7/uQX0+uE+cdN3g4KAtnVi0c/ITJ2fnNGCBeQZ4DjU2fj8aXJdjvQC+UKNT12DuWPXROcYDYcJ1LFGjfP5GCNNGrnH/U4dY/0FdnsRBnXhZ0U6xZg03QFQftQOfmvdeQt3yIXsk8LBaJsST8wLV6ZkxW5iQ5aBrmQ7BryTaT3sQrswt8ooHAj1MjxDPwCqE/Bk6mDqSbvZzH5UeWTP2iKnmXnlWYpn9ZIKJXRJykRLY0vAVkVM+YUhMVxrn0wAa3DnZ1TQmmApQI3qCrAkGlikANEm53PDd22ATf+WXBjul52Fm8LwnSTyff3mZLPojABVMqO9oSsL/gJCIq/uOMK/q7buw6R9+JGOFSYvHCJO7ZoGJVQbAdP9Lz4oKPJiXpK/xLK4DLDAc1CdG8g2p0mxIhamI3ycTM8ZrCYZtfn7eTp46bVMAEZNS9zjwBTpAowL1X3ulvu4DjEz0u5mq6zHFucY1iO4DcFAANjWiXV8Hor770q22Sf4kCZ7bkkC/v1sQLwZZRNTIhY/+sdEWvMrBHDGvyKM/MPt92kI8CE/67hMazyDDKvCD2beJza+JsvKiV4I8DJ+/4VnaMC2X4e6P3/lYb716ZDB2q3KJc0vWVAVZD8deMyR6w3jh25uIkqLayabZ8xXYVV/cibQZTQ2KWXo9HYyMGzYIInKFfd8koKEGA8S6mELj64xDB4rbfKsN9z+fMMHURN1C7QigmHZwU1LnYEwPZDA3qk8WJFfUJ1yPCQfzB8ACDEF5/t1LD5jdF+tilophAOTYyKi0a9yvwRKBaYioMqWRyxe8TBIMBgaSMksn7eLFZ2x+6aQlhkZ8xbo/T4KNV7ahzf3B4EnlwZSYmAShICweAlEIFcrFL3WNqd8IXLAkCR/Jsam2Mk5Mt/DSHO4NSn0yRP9UZZ7uiP/qUosIG+quHpbZz/62Eug+ZqQ2NjWOUgC6nnAVgcNt8StLpxC2WGVk5WTF0/A2edXw8/Jm2lZ3M66AdrIFj6biUgHA+7dWbeetGx8rgNP1TPJ74dh/LIrJBP3aP/sDe/7br1iU7R9UaQZ6Tqbn5m7ObWrCwEhpBo0I6n05x1SWdyiiLUkQYGIVfqCj8AcxA2AKciWZCoHBATjSaCgRs8WJYUvJFCZI4CB9gkR7fRvBdM4XG6MJiGqyIS/1JlOF6YGSfAgqi5+MKc45JO7uXtbNWcw9tCkvSkW7wO6U3X6IAx3G6ZIWdfNPZR+IeTgI7Nhhy5lrN511LQoYe4jWYoJJoGEyURplknbXTZ/DmGEHSnhgjhKoQIgwP0Yd8Q8JMGHWcS8CBUGDec74oBnc3KY+Kg+rJyVemBof9nF/UkR/qRnSjEH6W0bCvyZAwk8koPAKcpJI3JxWNbFe2CkiSDDB2gk2MSPvGd7dk+ZjQcLJ2QlPocOaY+VRkC8tzadnYUUwvcEbn3v1nL/+N//Z3v6jH1hDZX1UemTNSFcfqCKjC9MWUcMwi9jgFkeXtDWYio5wc04Xw7Q4u2OSmpzbFAOrz5whSFXazOT9PB2Dpsyp0wj0wABcR3nM57Dj2yq7vkmL4kPyJiU6Llyt8dkSpk97nk2VJKjhYKHCqgoM6pJSDI2Q6QOkOod2BKxsBYgmBIgQfeiMpN/oGvom6KLAHKRcB5SYHoB1C8S9Mqn6EglLsrlUX8Ji0oiRfo2HzndLMAS+W0gaC/VTUD8qqDrrLH4smizU5gARk4z5UcDH34wDbeFexohsVExzL6tNXMOuA3x+loR1xctet/MV12gr4o+V3bzd3tizd++u+++YrJ4sTuyhCjhJHJfvqLHDKgOkjIVHx9W/CEssNVb9sx6XeWLAi4DFAoTn6A/Gk3PlasP5vyXw3Xj9il359z+2igDr7sBHpEcGow9KsezbEAxIEiYkOWAYQIR9TePJpiGauraTdeeeRIARSQ4Yk/lI0uWG1QA6AalCdIoBhmkwVwE2O57BONzPHBAdgeZgZUFF12BalPVJwkCdJGzqpt89VO8lfbrEANHfDAqH11WDDo8Gf7MoONjGgd9gbhLNaXM8HvdIJGDlNwej7nHw6XofR2lDZ/gQVPrOn3wHuN5W9RnM0tTjgoBMcL9f73+LVKb7h/oMf0SQIMTI5kGy80CezYZZAArfnXsxUYN2Bn4lpjkCxE1qLzzoB14FQP4qls2nRTyOVvPq85yEWk5Cfl3gu7edlX9YFLACAU0WGNoO9wntRhARgUM7nT91DZqPV9Az/z0oSw4tPyWeZCaA/qyKd2dkiSGYCOLA2/jM6UIQWAxW2rD5WSDImvmi3QGI/+lntnNzxS2Yj0OPDEZ6hTkUJC1ZBzEdZVWOiiNVGCzMBOzs2+s7bo4iYQEJE8UORoGYqOuh+IN5nZOzkw4+14Z6BGUQMsbvglGRRJgYM20zCPCRSodtz2ps3iOB/4rUotOYmOWgLJglGMjHf9AmhAURNxiUZwMgpKybfzIbS5Wq1983y1Jb/Bru1/8cH/oOuFyICBz88ACETFdwUfsIJPgvNSXaLKr7WD3gAG2XDRC53wn/kPtVT4/66gIY06O+7TJwBfBB+c6l+s+DHL4Kh7pTln6gbNrrmlLfeSZjCxAxYTn3uA81yS2jrMCVFe/g1+0WpAnzZX/rMptJ8YaqsH8RNPQ9y7gAEQndI7LK2KaTc7yD8/T8lM1PjfqcKIoA4c8n4CRJA15jHx/AzK70lJMnwUI87us/BUQAx9YbTVl6twXEaz94wzYv31GlqfXHo0cHY5ty67uW29qTum9YVA1NqqFMBDNYaAAmUpn7QmryN/M0qzsZ25AmAzShFIfBlqbHPVQMk8AU3EOHTfIuDHUSa8u4Z1a+qDOFbsRmx5xF6zIQACJb5nXSVdtTJyEhYVwmrx90D5z2GAkmpW0eNdaB4MDUQcPwbIDIs6kvgob5RyQqKyoStBethvCSuUQwBj+NKGuPgNBUea6V4EbgIVDRXwDKgaa/0Va0j3dKEusJLpPZrucH0pn2CmBBJTxAwyu2vZ4CLH1N8jkavF/amnrmxZjsLvfLhOogMIW2cIYXQ9I2X92v8cbCweJxwD4mcpNddWauGUFzTxbW5eVNu766a3uyktw60ngDDrQdPpznwqp+JFmwIdmUeAdBf2pu0i0xeIi0PoBLXANe4y3PmK13xcu4U3vScKtbabu7tuPaNci24X2S+7a5G7zrxXtU5TZyBdu8dtfe/eMf2s0f/uITbcHxicEI1dUxe7LNV39xzTKrm/qbd0EEb7KlI6YEHrSDp0ZpAKtMqGYLriGRrmsyMe5Ke9IpSCc6ACeaAMHU6FCbGYmOBTs+L0yPuR2PFoW/0uo8JB5MxuAhCJh8vba8YVWVz2LnHClOei6ah+AP0v9xkpt7Khv/kfoCJgI2hLlhKibmCfd73dQuBpdAC/uvcg9/JySRi2Io7ud9lfigEBkuQYQ2ABZ9SJk+5SByzajn19R/Lq31m350zUgwhushzEfATmQxWNIlLa7+YfqCJV9oPzbN4nr2u/EpJgkzgIcAwVTz/tV1CEXqQl0JHrENCNqRc4+DAFpOQnU9W7L7MkNvb6Tllsg81nn4AK2FxYQgoi40EYENmJZmJmQ9jbgvR1sItgy311bSb7hA18Wv8Bevf1iT63Pj/qbdWd/2NiB4cLEwVSkToMOnFZ3b1z3RWtUK4q07P3rT3vuTH+nzLVdKTfEXffqo9MjR1A8itAEvteHVWhFJoC5JHSHQZs4t2sjSjPULWL1ign1dV1SDmbZAUtFhq+oQIlEk49IJdMhONm/nFqZ9KQ5mB+H0gkD6lYunvdPo2D1JppvqyLO6zjtazE/06/7mnks+l4S6FkGA1IyIQelYEtHZHIvXCsR6Hwc4g8AGgoE6AEQIgMIwmE4IAc+e0aOQzpiIRTEV9QHMgKJcDaJvYVIAQASs4Tl8FbQh2ThoPzdTVSZgrGskw5UC+Ej4iKzAIIJL69CCTD2gbeFehBfRQygpwca2HNSb/kLQ5aW5HwDb+yfIswXwDnqdQbOMD6faUfBgSuRRCJDX9GyCfrzQdVnjh4Xlq4H0bPoHDYyV5dsuCkS4PkTvWTdJPTDObwgkZ8QLCGv6C9Py9Su33RdEW2K98FqG5c1dacphATTib5/2tEz9DoD5vSI+m0Bz6nlVWXO7d9d0rFtZ32Pqs32Vw6vjqrnSx5pL/DB6rGD8IMLUGpRdnpwa89S5XjWWhIFufbZkoo1IyyUFwoIYmS34SVNiagDphSk7OjTgq7aRgjAlUa/nBW4YBuYGtBl1ysXT884caM5tma3LGzueLwgRNYOJkeK70shc5+lMGrARAEsigRiJ/ETfR6fNoMH/PzohoXnvxK4EBJtROROJSVx6o6F0DYPv0UYxOaYpdeK61n6QKoefg1AJ5isPPEmA140HkdcDZzDO1WT6ElF1YIiJPQqoZ6HpwjxgfqO8oB1qtf7zOklAYApTD35HA4bTR/zuABQBALSgm6hCC4KF37we1F3XokHHh9pvjf4YHcYTKAu/Hz8QHw7hjCWDa4GFhHBzrS/B6W4I370/sUCY28u7G+P71yCMVM833rsdCAfxEFFrrtmRZmTKhUwZNCe5o76yiOwZ1aOqc2WdG5VAqUmQbwnQBblSgwBcZnhNQC1IOBSZmlOZnxZ96mD8IGLAowLB0IkZ3+w4icbEUdaAx2WPD6hze9QxZQ04E9WYoGg4mGJdfsPc5LD7Mu4HqvZEL88uSvP2Seo7IOruuw3L54GpmV/C3PI5wUxO4OvzMoMsmWDzKwaaecxxPX+wP9j02N8EpYH/OKDEv9oTA/A8gAOHUoKDSGWRncLzMOExUZOY1xJY1JdVIAkxHdfSLgaGTYJhfCbjg8CQ/JeILIeaTF1pV0xXj8bqGWRCIQQAIlqQ+UGmU9gkib/5x3NZckUyAdehzdDAlIc25Dk8kwwo/kZrB9HTYIoGXzNMncPNwFdkKosx/SiEcYsQqvvRslK95TuB45pQBkEgwE498LXRbPQEY0YABgCxKwR99t6dNfcD+Zt+R2O+ceWWX0MmkS9rSufk6hARJYGB94zIxBS4xpNx13IVWTJMR6DpouqbkgCXlgbMb+x9os2lHoWeCBg/jHht3MSZeZu+eMoSs5OW1rnRiTF/qzD+FloPpvPJVXU4icoZdei8tODY0CA86eYXPgOLmGFCGrgnjXj51ornFEIoP0L6MH1W92P+4oLhW5CskOiL2MywBr+tKT2VSszyUYG5k2HvnmDlBloIX41ADYwGICiHpTYwPaBBQ6Fl+Bszib/RXLyfAwAD7nDyHYBTpmsj14DBEOLXEQSicLBRl5XgZql85j61x6c/BACCNMACjYv29eRv3YC/iFaGcQmKrO/s+bPxXQEQoEDz81yijAg7NNDfRdSOeiNM0H4ZmYU7MjNzJbVd9cH/o908l3EjSR2BirCg3yvyxfpivT7GCGXXqBIQt+SeYJoiJLCIcGNWt/Y0frLEdB28sS1/c2lm3EHY1FGX6Z3fy1pc37dlvu7eXrOKQPk00FMHRpiL4EWPBgQzDBYYW5q2GfmJIzJFu8SwBQ3q6MiQ+1wwPGbISWlYoq+YrPgFZEssTLP1RLCNe6ZQshWZGvgTaDsPVwuE+JfrMknG5Dvim8J4SH5eeAKTI00HxMgnZU4Pf4zMH7RbWvVCUODbwVSYl/hkaLdwB24V58CiSJKVQ/8RhsP3ZK+d1GDSgUi9mVPEfMOkROsDbgJflMsGVNwPU/tUkO4B4JiagI01iVwHo8dpi57Pea5HQFAu92FWw9j8zkZW7vMKnEROATbJG6S8MUXA/R9GyI7AFK3ZPfXzijQPQgYgY8XgO+NGoI0RiEyFXTy14G8wxqR3IaHfbyyva4x501a/FXUdY7m+k/ax9bWf4gVM/RVpNMxU8kzLEmoluQwJ9cPm2zds58Z9K0mYM6ZkIqENMetJsnga6KkD4wdRTCZtv0zXmEyiHrSdzJCFFy/Y6IlZa2gwdyRZkZoMXE6DSQSXuUjePMVguYkorifhAMceiQuDEvzBtxzT4HEd0h/NQeSSyCHXwKj4rKRDsRiVwE9KAB90P/PDw/hBsIAX8lRcglMuz8YE6+4KkpTZUgP/1+fnxLmFUlmCQEwu8AbmZxAEggFpHwABZEyJwMBod64lsIKJC+PiP9JevocBGp7NeZ7DRlrseE6b0dw8h5U2TE8hAHwiW/3Kee4D8ICKdB3MP+aGeRYC4ddRQwICX5BVE0zCM3VATif9SjSZemMZUH6oiakpGo4xQJBibnIOi+ju6pb3QSDA1B9qA9YOQRwsIAQGoGZDqAjPkd/HxHsxnbUetaMiDUnApaUxeVrpsUxtfNrEW2NxokvyF0ubaavt5awpqVeWpK3ou7hHPgULQOX/aPRgHIDl0VV1PgAldzScB4O5ASy/9fT0auAnfECJeMLwmIa81Yj7gyBH1H0ckoVhLHa9Yxs/PCdSrSgTxtZ/7yOeg6aB3FxtXwvjAE60GDf5kig0iOpDwAfNSP1hVMxMN01F4bwgIEETBBoPkzswIwFQAJwgKSAQRAiUYGMlignnDflOWQ5IlUN9vD16JmXxO+3nAVyPlUAQLfDffxWI+tlqupcUxb1izVZ2c7a8nfNVE/Qbv+th3sckhdB2ysRtSEr4IBzwFwcSfQJZyc1R+g9/3yPU6humIPD7KYe+IeiD/91DebJw8vfWbPedG5a5dtd2ZILuXVu2wuq2lVUXckTRiE8zHQswPkyAsyBzZ1c+YEESMwIzSSoeCigES0gJI1uDqCzMj7RlBQlMhXaAWTFbcfhn5Y/io6CdMPMgTCUkP9rCX5Mt8HCvB4Ek1Vl0uqtryPDHBJMScAbjE54DCIh0PjErKRvm429+h8n5B0CZ7+Mc5iirC5jv89/UFqKzADMwPQMfkvag6YkwAsaAAuamnpQVgpfnAixfcU+7dQ5BQD3w/agkUyfUJyfhRgIGE+ZcyN6voU/N9TwbEzGISgZlMRfoWVAaj6L6kmSLHbaryBRtRYIy2OWvSQFuDfj0ju4FzPivAGtqbNj7mfIplzrRx9Tb5xNlWTDRznI86kh/+rae6psqifW4Jes7lrt5z3bevGbLf/Wm7YkvyhLSn3UA5pPSsQTjUWIldW5lyzbeuiG/4LodlErWz6vlNGDJ5ICDBF8ETehmq5h5SwPFAfPNyxeEATh8pYg0IteeXZr1dzvCRAQZ8KdgBnzSRJxV3in3vQhI7AiYZISUWaqjcnhXBRrHIaFPTEZ8NwgmA4QOxFiQOhb4kcGcIoB3f02My9wfJhy+LYABhEx/UNd+fFp9I6IZmLiswg8yZgLQs16v1+tIkIZ7ATdCBeanrRVZAAFYgjeE+RwmpbvmCZaDUX/qPqr2hi+A5Spe/lJUXbbyVbu7k7N70oKkp6GtaCM+JZYI9cbKoE30P5qQ38iOwW+8u77tCSFYAFzLASgvy8RkjPR4nQvMY7K58DGTXFupWFM+4+pf/sxu/9nf2P2fXPbsl6dd+30YHXswHqUDSemSpOiuzJPcjXvWn5BjL+ZEgzFESN+GzDYIrYLpCrOGkjsrbYlPMy9/hdA559FM/Aaz4vfgX2KukbsYprVlBVCk97b8lYLKKwqU2UqjvRYT/y0wBz2wIkbDPINhfUWFGA2gcA4mBEh8BwyE/tHqABdNzfIoykHDwLTUHcDQFpidHFL+pl3cD6D5BEwEu0jnwu/CLEVI8WzMWu5jNzrK4XoEA0ICQugAIsoiw2dT4FuTGQkAg9UzNbu9tu3ajLoHrwSQRtazaB9TEoASeccLdgA0/elt1/UIt3BzZOaQ8Q1z8pt3s3nvK6K51KWX1ED1xX4ub3tvX7N3/sWf2fKP3rbMvQ3PAAutgeNMxyKA83EJpugR8w0vTFl8bMhSZxZs9MIJS8k3lO3mTJiXNkPjYSbBbOhGNCgrvp85veh/h0TEdnVzNwCiTFnuh+kBw9rWrkcFmU4B7AAVXwyfiqwYXlnGC376+3jTlExN/Y2RRy4ogYzgpasCopjT/Us9GH8IsxINBegwPwEy54OAR5DcDQBhYg/qCEhhEIgADwBD81JPynVgCnhMZyBgKD8QAqq7/vb5P91HkjmCCEFDogErQQJTlPla+X6qIPmglE8/IFRCjY1fR1lzk4HpTzQ03HKS39DwMxMjbqZC1GdXAoxpIIh2MLdI/63LDWHaZHI0RYdYVcJu+fXLlr0tE3RzzzcJbqnNXonPCX2uNONR8gleDTKTuC2Zlwca5Hq2KE0psIhhyPTAbEPjoA0wDwEjzEVwBECT3ocWYTIeM3VWTOZMqt8h97PEC/h54Xb+sIb42T9Z5kNebEn3soEu3zkaet5BlyS9mFGc58/iepiW50MAkXOAD00D4xLgIUXMA1X8pnMEoPADaQuBJjSOv9xFleA712CKAvgHz/F/9FFgmgZlYSLqE5DqaB6yCuTQsqr3nvzAbKnm7cA64HqAw3ORHuEaxhDklIMZilajL9GEgJQ54uBcr/crFgWZNMsyVR2EuheiXJIgelQ3Y/rpyi1b+/l7tvnGe5aWP4j187RMRzxO+tyCMSTmDFnkmbm7Zrl7a65J2AUNJiV9jAAKgQg0EmF9QEm0EobgtOcpijFGhgZd08DQaKtwnnJe2haNSV6p+zy6yc0wMVYQOQ2CHTAf4MSMzcisKokJMZ97BDTYCrMOMxJfji0xABLlURf3PwGK6kxFfdmT6ku5aDzqhGbkPAKErTJco6JBAZcsADSgLtSzCPao/boZrYdgIFLc4PuhytH1ZcmDvVLdt6yoyORGAHAv0wjUE63X24vW67F4PFjehrYbG0n5vC7mPn415jR9AFEff/GP6oFPTvBmQz4fWTKZXMl4FR6CEQtBFbaazNTq+pbtvn3d7vzgZwLjNReuj/qGp+NAn0sz9e+iWKLP5r9y0Ra/+bIl5meI9zuTMEEPU89Ojbu5CfMQdcTnunTuhDM9xHnmDknqBowwZUiAsSizFmAj7fHDmJSGKTG/KIJn4LsFq1Z4xwgbIjG9IXNV5l9CzE4QiJfRkHfq7xbRM9CSIBAwUC4DFwKVcgiC8DcARstiZkKkukEAnA18EQpNgCcgsv5TCHBwYG4CIBdE+k40Gn+Vc5icPId20AZAg1lMhPUo0X5M79vL67Y4N+UBGz+vm6nzW+/dcvMaP5GySPze2sl41HpmYtT6pUE3b96z9R//QgC8atlPsCTpuNEXEowwZbS/z/qGkpacGrWT33vVBhZnrQgjiZHHhofE1FzXZUyQYwJOj4/a7PSYMw1+DufnBFpMrqNJcnSmB0VUFp8AD+ZEOxHkgGBuGBoNRmACk4vruB4/k0lvvlNuEMSQRhYzk0+KT+fmpu7hN8w/n9jX72xKzL1oYdeM7W03+M4DMUWrdVLg+C2YBgnyXZFHMoV13i0GlYfZ2RJwmUpA2PizpGmZB3RzUo8E+K7JjhBlIhhuyRKZmx43llYxb7u9m1Gf1WxVPjZakI2v6TV8yiKvPG/UrVvaMH35li3/7IpVswVr6noyZL4o9IUEY0gwKjujDy9NW4KFzafmLXVm0ZKT43YAg4tdcoVAW87oXHKArBWZcQIiQY4zJ+aDgj6EABUawYEpoJBOhgaC6Xm5Dd8BlwNMqGCSHmKOD0YHSO7XAUR9p1auZR0MbW2rc/6byvDrVTbAwiT13yhf/7iWA7+U+qABATNA9d0BdC+/BxFktHOgET3Lh+fpua7B+eNDiPoCPiwIiDoxb4nfvaXzWB1TrDeUZs3vpi2zvGbpa3ctf3vFqtKSRbZWURlfNPpCg/EoAcqRk3M2dv6EDZADeWrOIoNJ31kMTTM7NeZMBVOThgZTLs1Ne+AmNN0+CgFMwI2mRONiBgIMiPKJhEIhQFFbgfYKgi48hoPvfk4H96OJA7AFvmp4zVHSz/4bYOW+cNrGNZ0uxlx2TauDZ6MdA7+P0j4aIVyIMmfJ+ZUWBJgkU6BFaV9e/iRphMMqu4dXPLx+xXICY+b2qhU399qlfDGpA8aHqDcqU2xi2Ja+/bINnV60ajxu+9IO4/JnABHTCkRX0XIzE2M2OTHiE9EwNcz90dk2IBiU3QB8ikP+IgRAfXpCAGPKxBcHA8729TA4/qNrWH3nOkeTLkCLOch0uC/bvo8rQi2NaYwwAZgQYMQUJvL5sNn5UYl6YCLTDgJbaZmZezLneQ5TR9THd37AN83krL6+bYVb9+zuj962psDboQ4YP5SG5ydt5qvP2fTXnrfk7Eyww7QYulyuuRZZmJ30yCEMNymza2xk6GOD8cMIBoe5MYsB4SchwIzZ6XvutMH9OImo885e1oNXmL+8yhwfkWmg8dFhTwrfvLdiOzfu2Opf/dx2fnH9cx0ZfRTqgPFDiMSBqJg3JVDOvXTBBi+eta6hlJXaWgsmq9XrHqRAAzGNwsJdf4PtI2qY95FGBm2JRnscg4Sp6CbsYwIiUVvetrWdznp/oPnCedJ0Nm/DqUHrlxY+LJetsrJhN/70x26Kspqe4AwmeId+SR0wfgTCn0xOjlh8cszGv3TWYmzcPDpiyeEhX7oUpsWBGPchxexoTibDmRZ5LMB8Sghfk71x2C/Hg1EyTclQAuAIDUxefMTtzV3rP9i32v11S1+9Y4W1LcuyobD6i2BRh36VOmD8mDR+ftGSJ+Zs8NSCjT9z2g4ExK5IMOEPQzLXRwCDLT0AIhkngBF/zF+oIt/puBF+Jtk/QXT00N9ZjwmK30qbEUT40h5AkmndVava2uVbVlvfsvzNZcveWfX80Q59OHXA+AhElgum64lvv2zxpXmLTYyZ9ff5PB/mKszJqn2MQYIamGOs1mdVRZhqBxFgwb/6ONHKT5NgBLQbOw+Emp4YLlowly95JJSqI1zC6C5WAA2NqU96dV9jL2M7V2/a1k8uW+beutXLHRB+VOqA8ROQb5Y7PGinv/8NG3vxWYuMjdmBzpG1g5kK6OhcQEe2ChFSzDpnYjH08NCgjQynfArhaSAAVhZ4Mrm8A09/+jkIccG3QI4wJxrMU7JpFe/8z62s2d7bV23rZ5dt/e2bfq0X8CmSz8jwiE/3MZ8ZHW8wIqV7dfTra4+a0ZbSThLs+xV9yLLCZeuO6Sd4HvctvIaWM5vg5zj5/q44kFA/CF7y9IB69CzKYo8/7iDpPDY4aH3JQUuMj1vq1LS1umWy9rKiPUjEJpOHKQMYB5M2PjphIyfOum/lWmi/ac1S0SrbG9aqFO1wn6xVlS1mx6wFuChPXuoZ6x+wxMioDU5OW99gSs8PktYfJvwytBtpbXxiUvKJyYmfy9+/4rqpgs16zSrZtOU3Vqyuz0Yu44Gp3n6BLjVifSPjNn32vIDYa5V01prptKXfe8/Sy/etkslYU/4j0xfvI56jg348bKpPdRzt0w8i+jg8ukix1TizDi68H+pNBX+3ivqprO/HPDh7rMHY3acBSQZHNwt6xbyujcRUhM1bZTFfXr8JhBENXFeky+fs9M3v5zpPt+oSeLoDpg9NSGfeiu7PHlqr5KcEeLPouMpK6lkCSXCtfm/Kdzrs8o2b4yODqpB+lw8FhVMSzPahTciGScws2szXv2dRAQuzsLIr3+rudcvfuSYmbbjpR3YQ5QPisE4QbYzE+x2Ig3NLlpg94QDh9W8hhZf7o+kLHd4nHGoX6WoIiVDrBR+HVsulrbRyx0qrd61eyMr/a7nWpi5odBK8u6N9NjK7aIe1bitv5nVdzhr1bauVJUTa2vJh8n7WvaTwARgEHIKS432gVL3p456EunBAn31d6qOYxWXex5MJq8viqOSKbvrSJwPjg/69UWxYIy9BklEZx5ab1fbjCkZMFCRjYrbPhufHbXLxpEXbqyoaku753R1bv3Hb6pmmpGuXrhm1uXPnLRaP6xpUoZhCQGjUqra3vmrDE9Ma8KQDEiBmtzZs+96KFe6XfJDFZ9YrJolNddv0+UU9b0nAZsnUodUrFdtZWbacnplIDdncmXMW7WOn9OA5ITUbddu+f88qrUOb+ebvWHL+lGuwzPW3Lffez62nUbGpE6fUjmCX9YfJX+ypMurVqhX29qzZHbG+6QVLnjxvAzNLjsLwLu5HI/uZ9snwNwelnvsAjGpvLb1t+XvXrSIw9jarNjo9YwNDQ5aUFgZgtUrZitms+mXTCpmslXfKVk8TxGlZfLrX5s6fs9T4hPfJwzVneqbFtEetZuV8znJbu1bYEohzEpgSlqFGQ2i6cE112+jChI3OzniZCSyPxIDVNVbcXykUrNVo2Mj0tOV2tm3r3j1L39ux2tpD4D5mdHzBKEWAlho7N27nX/2avfr7/0AmHPt/mlWKBVu5+p798F/+n1ZMZwSwLjvxpRfst//Hf259A8HWGxDmV1Xm4Vs/+I929uVXbWxu3pmYhb/33nnTfvrv/rWtv3PP6rtiXknz2ITAPzNgX/7937OXf/t3BbhgkSwM8vq//2O79tO/EVM+Y9/9r/97B/bDgKqVS/b6f/h3duUnf2OpE+ds+pXvSNs0beuNH1l15YadefEl+/o/+ENnvIdudUJ4YEYW9tJ279237PZbP7esTMO+6SWb+sZvyZTkvqBtfrv+x9/h9/ADDAZJ52gqAUWm8c4vfiwg3rIB+YAn1VeXXvuODY6OUkD7vi4BoG73Lr9j7/3tj2zj1k0rZ3KyQMziw/3etyeff9G3DnmYXCtLMzIuW/fu2N133rL7712x3IY06oaeLxOTimG9xGd6bXBiws698hU7q2NyKVgtg0ZHQ1NnhF+5kJcAnbTNu7ftzT//U7v6w5+qLLWLZJ5jqh3fL7qPISH9uyWN2Ra4oUGoS4P1JJLSXhdt/plL1j8oUGDqSbrvy8Fk6RDXcLB+ryW7qKcv4Ytq69IWnD/oidj0sy9YcnxKJmnEeiStAT+fU2dOSssu2GE0/qCcfWkoOXduurI+MajLL58THl3xAUvNzFliIGk7Anv+Z29Y6+Zts3zwotiuB/e+/77wYLstSRxLqoxLv/V9e/Uf/mObFrNiVqYv/8L2JURCs9jNWfWLL+4leUEgiUZjFpH1wBKsqK6L1OvWldmz6s33LHf1TRudnLSXvv9f2Eu/9w/l145bU31DRg1HTWA6kIm68MIr9o1/8k/t3Fe/IbM8Jm2m/tezDtS3LdXvg+rt/SwzOpoatvkvvWRf/gf/WM/5+xZL9llsUvfLL8Q0jQx3W//wkH37v/kf7Pnf/fs2LGuHe9lZICOhQz3omx71X3J6zvZ7o9YtAdwtSwIwP2SIHDs6vouLNSgEb2RoymzaspUr78p3GrU+DfihmIioZmJkzDIyQUtiuHIuK2l82e5fftsSAllM1+2srthP/9X/Y3fffF2StuCaJa57JIPtUD5kRdK3XMhYrSj/Sc/qHeiyc9/6DZt55jnrjQvAqgPHz//kX9ut1//WyjLjipm0rV69YndUJpv+9o9OCMhRX8DMoiiCKGjjzRvXLHdv13av3Lfi5o5Ma8zAbb83KlOX+hXEgFf+6gf27g/+zG5K695XG9Mb655g3jc0YtFkys3sgky16s6WDQ2MWFdBvpusgf3dXWttbll9dc1qd+9b+eZdK169Ydm3rtjO375pq3/5U1v/6zckFN6Rhlu2SF+vXfzu79jss1/yNm3du2uv/9v/16785Z/b9b/9a1tWvxWyGRuYnBYIB/w15fsyPdNry9JaLdtbXbZ8es+6BNjY4LDtrq/Z23/+7+3Kf/5z9cUbtnb9qv9OnWNJ/Ope9yOz22u2X2tZj4yM4aUJO//at23++Zc80LV247q98xd/am/+h3/j7b/xs7+xe29LiKXTlpRbwTWM29btm7Z7d9n25dsfZzP1eK/0F9Ow1KYpX6si0EwJJImJGQGp1w6kaWAa/KuKgFgQs5bETOV81qYvvmD9AiT+z/Uf/6Xlt7est6/fUrMLYrbZAGQCDu83LKZ3LLe5Ig3QLa02bae+9i2/jpf0hGC89tc/sB35p81C0+r5msDGa6ZbNrSwZCNLp409ctbFjN1opsSgNVSnzevvWS1ftOpuRWZaU+2Q/yRfrVzM2MS5Z1WPGTd/7/7ip7YmIZK5v2G57R35wkE7hpfOPGgfbUvLXKveL1j25oplb9yzHJPtN3Tcum+52ys6Vn2ng/zyuhVWNq20IR9LwqPVLErIHNjJr3zdtV6PhMzW3Vt25S/+g61euaxyN/y9E0UBAMHEuzz6pTXjI/IRRNmNNd8yH8HVIw2VnJrVGAR9e+snP7LNa9fdHM1LYOS3N73OUYEVYdZqtWzj6rsCdcMiA1GbOHvGLkggxIfHbEP9dVvgu//Wm7aruhc2Mr49Z0nCrlYV6qQGkzML8hl3bOvWNcvel5A64n8eRzrWip1pC6QhUTk2J2J7CLYQZM+XYl5OvkA58cyXbPzMBX/XPdE+gghEBX2bCbSVNBWg9rctY6aqDDZPwiyLj09bam5JzDdqvYmITcrs7RudDPaHqTXaZageKuOgdRjUgzB7c98SY5PS1BMyq7otI4a5Ke2S3tqyg0ifxSXVh+YXLTIo01YuFuF52oHvRHQ32ILj0A9e39aoVK2aFVC3cwLlqq1fu2J5ac1qoyXTN2FRta2ldm1dvmGbv7hqm29et823btjWu7ds+8pd27l+3/burIlht6ywmfZ3S/hbp3sOPWJJFHj2+S9bZEiWhATTsnzR5V/83IqreavvqS7pQ6tsVW335n27+aMfesAE835AYEDY8BoGHFECXw31n5um6r+mzGDqXidjRyDaW5GQEKjZ8Y77u2NSh5jn6oO+VNIGpmYsMTXvbyDDgll9513Lr+xZU89vpGWmZ+R379Uts7wqTfkjCaqf2cq70pTb2w5C14oay+NKx9vKVsf7IDDvpO9sIQE4ipLUm3dueRJznwA1eu6itNRJ98twLvy69vXuYrU/+ZuNqgry4QBzQ9cOzC7a6OkLFpVvMvXcy9YrqV6UaZSTyUUZHGhH7g+W8uoJPd02fPKsxaVlSzJJ129ctbXLb9ne2orqVPYyJi+9IIBHpU24XvcS8g+yzR7Uj9eiSz74Od9rUszWZWJi+X81aZO6mJ8tNKR4H4nwg7tj3W4VUFd8wp3le7Z+WdqqKgDsqg7SNq1CAIT67r7lpfG2pTlze7t2iP8qK8HBqKZTjXAMZHgKZLIEBvotNizzf3TYTVwA3CNTla03MFsRZLQ/NpSSoBu3mhoDYAFucSMdPF+Cir4hOHNQUz0KNUsv37Gf/9H/Zdd+8KcSUMsBHzxiPzwtdOwDOEepJeZ1MMqMW3nrZ2KsOw7I1MnzNvvy161XzAH59oNoHXE6fA7B9H5eYCwJjGuX37SizNv+6QWbfO4lS84tWr+AeSBTbG/tvm3evOplcIQ80N176BHBSL+YdP6ERYbHfRpg/Z1f2H69Zjt3blpmc926B1I2ekF+pzRDt/zQrr52AW1i/ye0NvVhvQbMGhnWMSY/eHrUJi++aP0zSwJPXHXNWXFvxxnRJ9PDynwUUrm9/TFp8DFZEbyrYt9N4NLWju1Lw7vJ1+4gtA6g4FxB2pNpjoNIzGLS/v5Kc67RtfjGBMm6ZI4OyZSeeu5Fm//qN+389/9Le/G/+59t5Nyldr3ztn3jPduXFkRGRpNJ+cqj3v+57Q23YBCyPI+2982ZxZeYWlK1+3VeIK4V827iuqBSuxFsbXl4LOnzBcY2E2Pe1Uslu/Of/8yym2u2L0e/f/6kTb/6bY+8/VLzBAyk/45IdXYxq9v6W69bAcktbTFw4rwtfu8PXBOUcnnLrsmH2dp4oBkBspMURGQwaiPnL1mvGKvabMrH27bMvVsyY5v6vCn/ac2jlN0DQ5Y6dc76xpKevHCUifxdFKpQr8A8/+3v27P/1T+3S//0f7Ln/9n/Yhf1Ofet31Fd4tLeeduTwMnevWsHTA98HCCKiD72xHqloQccQKydrDfq7ocfHAHiA9LfgKMu7V6Tr7rfQ6R5KChIFPZhU39HRids5uvftaXf/kde35FLL1tsYs5aPVHbEgjv/PA/2p4shma+GYBeZQFuItrkwmLy0idEWqNj3bJQxm30mWds4oWXbOJ5HRKQE5detDEJtcTsjEzsqPrrQVWOJX2+wChGgInRKPiQ2eXbtn31XSvs7lqPGHvs+Vflk8z5oDc01lwX8lsg1YP78XeKW+uWXV22UrFgXYmU9c+dtKZ80LTMJ08Vw/dUGRy6xbUXEVfekjX8zPPWJVOUqYjI2JTNClCLv/OHNvXV71p0asEZ/yASt+Hzz8uEG3KJDtOFFLbjICrzUUJk6MILNvzsS5Y69yVLLJ71tuRkLq7+5Ie2897bVssU3Zz72GYaz1A/uV+HpaAGHAoUXexMp/Y8TGgwZ3YJN4DIFo+AMkweQCgh4BoHcgWY7ulPOli7dXQlhmy/N2YVAXlPFsLutcvBusacLAtpQKqOpUK79+VnY/LTJ2TiRJL9NvPN79rsd37XZr71254wMf1acMx86/s2+eXXbPDUCU/KIHXuuGrHzycY9Yl2aVXKtvveW5a+c8OBF5NpN3zxFetKDnuQgetgAojPgJH0KcZs1aqWuX1dwFuX79jtEh0TKq1zpa01vz6cR4MJYd6eeEQm1aj1L5y2w74Ba4kzopPzNiMwznzn92zy678lc+uk7ulyxk/IfI6NjIvhIjIXvRpOYTsIRJUzGSvsbEgTSzjcv+NMvPX267b+0x/a2t/+leVuLcunk9+IZtR9DwiG1OjiFzqwPoBB0UitSsPT4HidWqut6WLDwz7VcJSx3b8kB7i3y2JM10izo0lL+I6uRoPHU3eCYKVcToLiHdt448e2LZM/L0uCoBig35dJLJ/Bb3CtqLa2ZI0QGSbgddgnVPXgG+uZcaLaPRafmrf43AmLz56UlXPKErJWkmcvWfLccy4oI8lBr6NzdAeMT5DofB3OxDoIfLSFtRVX7ljmxhXLy1drSTIPv/xN6x4a8+vQhCEDA6hf3h+czt8RGFfuWrVS8b1Hma8sqLyqPsVTfi2Hs6L4KzI44JrLBHbAxH2VUlFmV+XBwd8c3Nc9PCkfaM6ioykxeuAbQmE9mIbZfvuntvKf/q0t/8d/ZXf/5F/arf/v/7Cb/+J/s5W/+HdWXF6zxm7LmlnVl7a0Ce2FYgJQpJcxoe4J1+3yQwIIzPE1SgXPaAH8vWPTMstPW+9gj/VIK/l9lCUgRke7JDgSEihL3oe0DwuCdDoo1IyADuGx8oM/tlt/9L/b3T/+v23z9b/2aYnD+IAlpelHnv+K6haXjw3Y1F65FUxBYU10p0YEwoTOsz2IwIu//c7rgWC99Z6b/fjJHvmWSVvc3rCS3BGygTyYd6QvjhMd73lGARBm6ZHbghRNPvdli0zMWkOmZfH2e9bI7mpg9q1ZKflke/+ZS3bIZLUkM4xTE6jyV9+0A/0ekYbqk0bDT6vlMpa//Lo1xaSHPcGcZV0Ayl5+w4p3r2vAm9J4czZw4UUHZfadn1ld2is6Nmkjr/6GRcZnrJretvTbP7Hdn/zActfeft9RTe+onjNBXVRWI7crM3Nb4AGQXZZ89uV2O/KWERgLN2TS7WxaI5+2lph2v9SwZkbae09gkkZ07XKEMO1IFYxO6Dvz66ngHGBkJUoogNzsFNB6kzJLmcgfmXSz2tTm6sotgaHmdYq0y4ik+iTMXrPkpVesZ3DEyjLXd3/0p9YsFFSmrpPG7JNZTftr2T0r3rqidmXsQFZGZWtV5nBZYJ/y38mc2a+WrFXc1q1qQLeALhD2y3SnLnX1UTMvn71WUvsOrLa9bnmVl7v8c09mP+jutujsCatrrLJXfm7Fq+95Ur/7zu32HTc61mAME4ujIz0Wm561xLNiEjEUk8mtalnMJx9IUnVf35lUP+zr999J3QJEdYG1dP1tDXbL4ovnLCat1i0m4/59Ado04K1izirLN610+6pVVu+IiQYsxkqJpXMWkcnk5chshYHjOjfw3FftMNZntb1tq64vW3Vj2Wrr96yR2fUDIdAzNKp6iOnlU3WRiteoC2B6nrgovnhGDPmC/MIJD2Jganf1SYNISHRH43bYatqBTLpmWsBq6I6HtIBn5gk8sdlBS5x71oYkHNC+qI39Us4OmSJAe4i4Fy3aFSE/NGOR6UVp6wn1wbBFpxd85Ul3DNN7yOLSlqkXv2HJF76huk9YdUfgePd1K9+67GZqdHza+mQ6xhbO6P5Rj3IyBvx2qP480PemgIP/jT/dnaIPJC2Y2lA/H9Tle+p7z+iUTOBhCcUJb3OP+ts1ZK9M6IGUC0H6Pn7igt+PRi3fu64xWna/2aeHjikdazBiOkUExOjkiA2+9n2LCkz4G2TgdCUGrXdiTlosYHQYsSWfpFdAIirKi2fqAkf19hVJ2JMWf0baSMxIlJIgBqDsFWMAxtr9W2LWolAfs4EXXguunVp0MAHGw0jMeuUbRuXL9IxOymzt9vOmupArWtf9+7WKA69P2pn7MfPIb+Vek+lGdLVnMGX9l76qeizpXtVRAO9KJKUlZcqqjr3SKAiI5uZKsNYSxnsIjL78SGDsW5zzPuk79azft18tWlMAOpTfe1Q7ujnP/7oq/pJZ+qZ7SCBQ2zEXIwJlbOms9Z28oM/zLswa0vqFK69b6eov5K/m3KQceOXb1n/hJd03rXb1ucDrkv/Zk+L9lzJDt1RnCcYDgbRLoOqZmPffCe700meyThqkxvG7wEwd6CMAF5G/GBXI+wTAGPWYP209Y1gWfcEYLt+w+uqq7aOgO+lwT4bcJ5Jv0yvJnfjKd8XUAgdaTRKWhGqkcHN3w1o7W9aSPwIouweH5LcIJLJxG3tbVr97TVpg0SIEXQQKzEZPthaYTdK4ub1qzY37elq3T1bHAcvsKQGzz1cxsKTJfL5Qdpw+uZ/z5LY6oATCGtpD5wmO9J26aNETzzjQYDyuP9RzyLNE60WloU0A5TxrDk2ApR0wLfXZL2StLk1wUJNf3BB4HjJRu+kTkq5nZqz/pW9Zl5iaetGOxsptmeQqt6QL22DkEwbuihAEUh81ai7MEBQukKYWXKgBHN77UVd/lt97w8oyDRtrq7q3SwIgbv1f+pr1MvepdrO8iQAawohATEumauP+TQkkmdUVIUZCjSAa840IoqCf11xotbJp9f+BjwGCqkt16NHzIzMSRqpLjwDqfS/Tt6E2Ve9e9fuaexnPfuqA8QkRPlBXj2AVEYDEQJhFzXxWvoN8MEnvuqRx9dqbAtOmmFCjhNmX2wmAwNSEfm/IN2oVs24+7lcrMqXS8sd2HKjV25ediVq5vK4Xc5D+Eelzs7Kpe5pueupa+YsN+TRN3dOUpgjP12Wm1sUsTZm3bhq2GmL04GUvrVLer/NrdX9NzwG0HgSRNg7qEfzu18jsrd2TBlB5++k9net6kLHzPiJ4gx89EHEtb/2DQfk331Fb7nn+Js04eh/maqBlBaLshoBxvy1UeGtUEJVu7G5aTYKr9MZfWlW+c2NjJ8iMqePnql0CGNe35Od6/1Nv9UdNgqN+56q10gKkXPjubszWisaqJOtEWp52qd11uQL7WQClcVm9pfZKiMoa8XporJj7ZHwbAFv+Z+3OFSv95M+t+q7qsrPtbfJEhYcsheNEx3vbDTEegYnYjKRzvxxISeGjawh9/kvap5EW88u5h0lj090yF1m93hP4M/qdSEaXTFNMwPB+7xT5koC4mdt3Eygm18uf4+lfuie8jue06X33+/Olqcuqw7ZwPKp6pmS+sQtA+/7gMl2HNtfz0BI4cu1iHpA/QvU9qMsfzjUlaKQVP0gL6L7oqI7JHvm3MfdxDyU8CKK0sg1f8xemD76PdB9RzYgUMKY/YPb+lOByoq/wu9WeZpoI7qEDAL+d7JiehL5Egn55QGGdawJUdt/qO8F4RUa7rVf94G2FVO5Btaky990XxsyOjKoOCV2Dqa5x4dM7wSUHdZH2pFwWKDO1I9PbrYSH23WM6HiDUeTzX3064GE0Jbygw8eNlolhPacRzDGmySPXQe3xdYIhdY2f40ODC+NyL4z/4DnwHNe1ye/nhvB+qF1uWAYmGoxLUrSX8dD94eF1028fBEYvi/aoPh+2iDaYn1Nb5VN390notGBcMWx7q4tfdx/1l4ER1JG6qp6sV2RbEp4bBn+8P/RJfair9wvXq+4IyAcU9kH7Hh8DXYN74VlHbTrazxzvqwPf/aBDVCDlURcd++oDrwd/q4zjTscejCGFTAxDheRgZKA1gCE9DCQnBlgfIZCdQkbi3iM95PceBTPEtTred7/I7w3LCEn3v08YiLyeXEcZ/P5QOSF5fWC6I/X5deTPAEw6uM8BJKb9KPfybOoQAsHrouf6PN6veb73C8fD9Q7bf+SeXwHtB1zjdaAvOLieA2pf6wCmPZ8j+tyAsUMdOu50VD51qEMdeoLUAWOHOvSUUAeMHerQU0IdMHaoQ08JdcDYoQ49JdQBY4c69JRQB4wd6tBTQh0wdqhDTwl1wNihDj0l1AFjhzr0lFAHjB3q0FNCHTB2qENPCXXA2KEOPRVk9v8D1k904tDPRSAAAAAASUVORK5CYII=;" vertex="1" parent="1">
          <mxGeometry x="541.09" y="53.5" width="126.85" height="76" as="geometry" />
        </mxCell>
        <mxCell id="aMjAXd4H22HxAeJlpXIM-16" style="edgeStyle=orthogonalEdgeStyle;rounded=0;orthogonalLoop=1;jettySize=auto;html=1;" edge="1" parent="1" source="aMjAXd4H22HxAeJlpXIM-53">
          <mxGeometry relative="1" as="geometry">
            <mxPoint x="270" y="340" as="targetPoint" />
            <Array as="points">
              <mxPoint x="170" y="340" />
              <mxPoint x="270" y="340" />
            </Array>
          </mxGeometry>
        </mxCell>
        <mxCell id="aMjAXd4H22HxAeJlpXIM-26" style="edgeStyle=orthogonalEdgeStyle;rounded=0;orthogonalLoop=1;jettySize=auto;html=1;" edge="1" parent="1" source="aMjAXd4H22HxAeJlpXIM-13" target="aMjAXd4H22HxAeJlpXIM-25">
          <mxGeometry relative="1" as="geometry">
            <Array as="points">
              <mxPoint x="184" y="200" />
              <mxPoint x="180" y="200" />
              <mxPoint x="180" y="100" />
            </Array>
          </mxGeometry>
        </mxCell>
        <mxCell id="aMjAXd4H22HxAeJlpXIM-13" value="" style="outlineConnect=0;dashed=0;verticalLabelPosition=bottom;verticalAlign=top;align=center;html=1;shape=mxgraph.aws3.codepipeline;fillColor=#759C3E;gradientColor=none;" vertex="1" parent="1">
          <mxGeometry x="140" y="200.7" width="67.5" height="81" as="geometry" />
        </mxCell>
        <mxCell id="aMjAXd4H22HxAeJlpXIM-21" value="" style="image;sketch=0;aspect=fixed;html=1;points=[];align=center;fontSize=12;image=img/lib/mscae/Docker.svg;" vertex="1" parent="1">
          <mxGeometry x="458.90000000000003" y="281.7" width="82.19" height="67.4" as="geometry" />
        </mxCell>
        <mxCell id="aMjAXd4H22HxAeJlpXIM-27" style="edgeStyle=orthogonalEdgeStyle;rounded=0;orthogonalLoop=1;jettySize=auto;html=1;" edge="1" parent="1" source="aMjAXd4H22HxAeJlpXIM-25" target="aMjAXd4H22HxAeJlpXIM-3">
          <mxGeometry relative="1" as="geometry">
            <Array as="points">
              <mxPoint x="350" y="70" />
              <mxPoint x="350" y="70" />
            </Array>
          </mxGeometry>
        </mxCell>
        <mxCell id="aMjAXd4H22HxAeJlpXIM-25" value="AWS Config" style="sketch=0;outlineConnect=0;fontColor=#232F3E;gradientColor=none;strokeColor=#ffffff;fillColor=#232F3E;dashed=0;verticalLabelPosition=middle;verticalAlign=bottom;align=center;html=1;whiteSpace=wrap;fontSize=10;fontStyle=1;spacing=3;shape=mxgraph.aws4.productIcon;prIcon=mxgraph.aws4.config;" vertex="1" parent="1">
          <mxGeometry x="240" y="50" width="80" height="100" as="geometry" />
        </mxCell>
        <mxCell id="aMjAXd4H22HxAeJlpXIM-35" value="" style="shape=actor;whiteSpace=wrap;html=1;" vertex="1" parent="1">
          <mxGeometry x="760" y="290" width="40" height="60" as="geometry" />
        </mxCell>
        <mxCell id="aMjAXd4H22HxAeJlpXIM-43" style="edgeStyle=orthogonalEdgeStyle;rounded=0;orthogonalLoop=1;jettySize=auto;html=1;entryX=0.798;entryY=0.005;entryDx=0;entryDy=0;entryPerimeter=0;" edge="1" parent="1" source="aMjAXd4H22HxAeJlpXIM-6" target="aMjAXd4H22HxAeJlpXIM-19">
          <mxGeometry relative="1" as="geometry" />
        </mxCell>
        <mxCell id="aMjAXd4H22HxAeJlpXIM-44" value="" style="endArrow=classic;startArrow=classic;html=1;rounded=0;exitX=0.39;exitY=-0.044;exitDx=0;exitDy=0;exitPerimeter=0;entryX=0.174;entryY=0.958;entryDx=0;entryDy=0;entryPerimeter=0;" edge="1" parent="1" source="aMjAXd4H22HxAeJlpXIM-5" target="aMjAXd4H22HxAeJlpXIM-46">
          <mxGeometry width="50" height="50" relative="1" as="geometry">
            <mxPoint x="320" y="250" as="sourcePoint" />
            <mxPoint x="370" y="200" as="targetPoint" />
          </mxGeometry>
        </mxCell>
        <mxCell id="aMjAXd4H22HxAeJlpXIM-45" value="" style="endArrow=classic;startArrow=classic;html=1;rounded=0;exitX=0.25;exitY=0;exitDx=0;exitDy=0;" edge="1" parent="1" source="aMjAXd4H22HxAeJlpXIM-19">
          <mxGeometry width="50" height="50" relative="1" as="geometry">
            <mxPoint x="440" y="200" as="sourcePoint" />
            <mxPoint x="440" y="160" as="targetPoint" />
          </mxGeometry>
        </mxCell>
        <mxCell id="aMjAXd4H22HxAeJlpXIM-46" value="&lt;font style=&quot;font-size: 14px;&quot;&gt;&lt;b&gt;Cloudwatch&lt;/b&gt;&lt;/font&gt;&lt;div&gt;&lt;br&gt;&lt;/div&gt;" style="text;html=1;align=center;verticalAlign=middle;resizable=0;points=[];autosize=1;strokeColor=none;fillColor=none;" vertex="1" parent="1">
          <mxGeometry x="364" y="130" width="100" height="40" as="geometry" />
        </mxCell>
        <mxCell id="aMjAXd4H22HxAeJlpXIM-47" value="&lt;font style=&quot;font-size: 14px;&quot;&gt;&lt;b&gt;User&lt;/b&gt;&lt;/font&gt;" style="text;html=1;align=center;verticalAlign=middle;resizable=0;points=[];autosize=1;strokeColor=none;fillColor=none;" vertex="1" parent="1">
          <mxGeometry x="755" y="355" width="50" height="30" as="geometry" />
        </mxCell>
        <mxCell id="aMjAXd4H22HxAeJlpXIM-49" value="&lt;font style=&quot;font-size: 14px;&quot;&gt;&lt;b&gt;Jenkins&amp;nbsp;&lt;/b&gt;&lt;/font&gt;" style="text;html=1;align=center;verticalAlign=middle;resizable=0;points=[];autosize=1;strokeColor=none;fillColor=none;" vertex="1" parent="1">
          <mxGeometry x="260" y="365" width="80" height="30" as="geometry" />
        </mxCell>
        <mxCell id="aMjAXd4H22HxAeJlpXIM-50" value="&lt;font style=&quot;font-size: 14px;&quot;&gt;&lt;b&gt;Github&lt;/b&gt;&lt;/font&gt;&lt;div&gt;&lt;br&gt;&lt;/div&gt;" style="text;html=1;align=center;verticalAlign=middle;resizable=0;points=[];autosize=1;strokeColor=none;fillColor=none;" vertex="1" parent="1">
          <mxGeometry x="25" y="292.4" width="70" height="40" as="geometry" />
        </mxCell>
        <mxCell id="aMjAXd4H22HxAeJlpXIM-53" value="&lt;span style=&quot;font-size: 14px;&quot;&gt;&lt;b&gt;Code pipeline&lt;/b&gt;&lt;/span&gt;" style="text;html=1;align=center;verticalAlign=middle;resizable=0;points=[];autosize=1;strokeColor=none;fillColor=none;" vertex="1" parent="1">
          <mxGeometry x="113.75" y="282.4" width="120" height="30" as="geometry" />
        </mxCell>
        <mxCell id="aMjAXd4H22HxAeJlpXIM-55" value="&lt;font style=&quot;font-size: 14px;&quot;&gt;&lt;b&gt;Jenkins&amp;nbsp;&lt;/b&gt;&lt;/font&gt;" style="text;html=1;align=center;verticalAlign=middle;resizable=0;points=[];autosize=1;strokeColor=none;fillColor=none;" vertex="1" parent="1">
          <mxGeometry x="458.9" y="355" width="80" height="30" as="geometry" />
        </mxCell>
        <mxCell id="aMjAXd4H22HxAeJlpXIM-56" value="&lt;span style=&quot;font-size: 14px;&quot;&gt;&lt;b&gt;ECS&lt;/b&gt;&lt;/span&gt;" style="text;html=1;align=center;verticalAlign=middle;resizable=0;points=[];autosize=1;strokeColor=none;fillColor=none;" vertex="1" parent="1">
          <mxGeometry x="475.00000000000006" y="220" width="50" height="30" as="geometry" />
        </mxCell>
      </root>
    </mxGraphModel>
  </diagram>
</mxfile>
